%TF.GenerationSoftware,KiCad,Pcbnew,10.0.5*%
%TF.CreationDate,2026-09-04T22:35:10+02:00*%
%TF.ProjectId,FlexDrive,466c6578-4472-4697-9665-2e6b69636164,rev?*%
%TF.SameCoordinates,Original*%
%TF.FileFunction,Paste,Top*%
%TF.FilePolarity,Positive*%
%FSLAX46Y46*%
G04 Gerber Fmt 4.6, Leading zero omitted, Abs format (unit mm)*
G04 Created by KiCad (PCBNEW 10.0.5) date 2026-09-04 22:35:10*
%MOMM*%
%LPD*%
G01*
G04 APERTURE LIST*
G04 Aperture macros list*
%AMRoundRect*
0 Rectangle with rounded corners*
0 $1 Rounding radius*
0 $2 $3 $4 $5 $6 $7 $8 $9 X,Y pos of 4 corners*
0 Add a 4 corners polygon primitive as box body*
4,1,4,$2,$3,$4,$5,$6,$7,$8,$9,$2,$3,0*
0 Add four circle primitives for the rounded corners*
1,1,$1+$1,$2,$3*
1,1,$1+$1,$4,$5*
1,1,$1+$1,$6,$7*
1,1,$1+$1,$8,$9*
0 Add four rect primitives between the rounded corners*
20,1,$1+$1,$2,$3,$4,$5,0*
20,1,$1+$1,$4,$5,$6,$7,0*
20,1,$1+$1,$6,$7,$8,$9,0*
20,1,$1+$1,$8,$9,$2,$3,0*%
G04 Aperture macros list end*
%ADD10RoundRect,0.200000X0.200000X0.275000X-0.200000X0.275000X-0.200000X-0.275000X0.200000X-0.275000X0*%
%ADD11RoundRect,0.225000X0.250000X-0.225000X0.250000X0.225000X-0.250000X0.225000X-0.250000X-0.225000X0*%
%ADD12RoundRect,0.200000X0.275000X-0.200000X0.275000X0.200000X-0.275000X0.200000X-0.275000X-0.200000X0*%
%ADD13RoundRect,0.200000X-0.275000X0.200000X-0.275000X-0.200000X0.275000X-0.200000X0.275000X0.200000X0*%
%ADD14RoundRect,0.225000X0.225000X0.250000X-0.225000X0.250000X-0.225000X-0.250000X0.225000X-0.250000X0*%
%ADD15RoundRect,0.250000X1.000000X-1.950000X1.000000X1.950000X-1.000000X1.950000X-1.000000X-1.950000X0*%
%ADD16RoundRect,0.112500X0.187500X0.112500X-0.187500X0.112500X-0.187500X-0.112500X0.187500X-0.112500X0*%
%ADD17RoundRect,0.375000X-0.375000X0.375000X-0.375000X-0.375000X0.375000X-0.375000X0.375000X0.375000X0*%
%ADD18RoundRect,0.125000X-0.125000X0.250000X-0.125000X-0.250000X0.125000X-0.250000X0.125000X0.250000X0*%
%ADD19RoundRect,0.075000X-0.125000X0.300000X-0.125000X-0.300000X0.125000X-0.300000X0.125000X0.300000X0*%
%ADD20RoundRect,0.150000X-0.512500X-0.150000X0.512500X-0.150000X0.512500X0.150000X-0.512500X0.150000X0*%
%ADD21RoundRect,0.250000X-0.495000X-0.495000X0.495000X-0.495000X0.495000X0.495000X-0.495000X0.495000X0*%
%ADD22RoundRect,0.062500X-0.337500X-0.062500X0.337500X-0.062500X0.337500X0.062500X-0.337500X0.062500X0*%
%ADD23RoundRect,0.062500X-0.062500X-0.337500X0.062500X-0.337500X0.062500X0.337500X-0.062500X0.337500X0*%
%ADD24RoundRect,0.225000X-0.250000X0.225000X-0.250000X-0.225000X0.250000X-0.225000X0.250000X0.225000X0*%
%ADD25RoundRect,0.150000X0.512500X0.150000X-0.512500X0.150000X-0.512500X-0.150000X0.512500X-0.150000X0*%
%ADD26R,0.000001X0.000001*%
%ADD27O,0.250000X0.600000*%
%ADD28O,0.600000X0.250000*%
%ADD29R,0.900000X0.400000*%
%ADD30RoundRect,0.250000X-0.375000X-0.850000X0.375000X-0.850000X0.375000X0.850000X-0.375000X0.850000X0*%
%ADD31R,0.400000X0.900000*%
%ADD32RoundRect,0.112500X0.112500X-0.187500X0.112500X0.187500X-0.112500X0.187500X-0.112500X-0.187500X0*%
%ADD33RoundRect,0.218750X0.218750X0.256250X-0.218750X0.256250X-0.218750X-0.256250X0.218750X-0.256250X0*%
%ADD34RoundRect,0.225000X-0.225000X-0.250000X0.225000X-0.250000X0.225000X0.250000X-0.225000X0.250000X0*%
%ADD35RoundRect,0.250000X0.350000X-0.450000X0.350000X0.450000X-0.350000X0.450000X-0.350000X-0.450000X0*%
%ADD36RoundRect,0.112500X-0.187500X-0.112500X0.187500X-0.112500X0.187500X0.112500X-0.187500X0.112500X0*%
%ADD37RoundRect,0.150000X0.150000X0.425000X-0.150000X0.425000X-0.150000X-0.425000X0.150000X-0.425000X0*%
%ADD38RoundRect,0.075000X0.075000X0.500000X-0.075000X0.500000X-0.075000X-0.500000X0.075000X-0.500000X0*%
%ADD39O,1.000000X2.100000*%
%ADD40O,1.000000X1.800000*%
%ADD41RoundRect,0.218750X-0.256250X0.218750X-0.256250X-0.218750X0.256250X-0.218750X0.256250X0.218750X0*%
%ADD42RoundRect,0.218750X0.256250X-0.218750X0.256250X0.218750X-0.256250X0.218750X-0.256250X-0.218750X0*%
G04 APERTURE END LIST*
D10*
%TO.C,R6*%
X141825000Y-69300000D03*
X140175000Y-69300000D03*
%TD*%
D11*
%TO.C,C19*%
X131900000Y-69075000D03*
X131900000Y-67525000D03*
%TD*%
D12*
%TO.C,R4*%
X140205000Y-67040000D03*
X140205000Y-65390000D03*
%TD*%
D13*
%TO.C,R11*%
X136300000Y-85975000D03*
X136300000Y-87625000D03*
%TD*%
D14*
%TO.C,C5*%
X149875000Y-84400000D03*
X148325000Y-84400000D03*
%TD*%
D13*
%TO.C,R15*%
X134095000Y-83175000D03*
X134095000Y-84825000D03*
%TD*%
D15*
%TO.C,C3*%
X125805000Y-105675000D03*
X125805000Y-97275000D03*
%TD*%
D16*
%TO.C,D3*%
X153250000Y-84400000D03*
X151150000Y-84400000D03*
%TD*%
D17*
%TO.C,Q4*%
X140955000Y-97675000D03*
X139255000Y-97675000D03*
X140955000Y-99375000D03*
X139255000Y-99375000D03*
D18*
X142010000Y-100780000D03*
X140740000Y-100780000D03*
X139470000Y-100780000D03*
X138200000Y-100780000D03*
D19*
X142010000Y-94975000D03*
X140740000Y-94975000D03*
X139470000Y-94975000D03*
X138200000Y-94975000D03*
%TD*%
D20*
%TO.C,U1*%
X139562500Y-85850000D03*
X139562500Y-86800000D03*
X139562500Y-87750000D03*
X141837500Y-87750000D03*
X141837500Y-86800000D03*
X141837500Y-85850000D03*
%TD*%
D11*
%TO.C,C21*%
X126495000Y-75675000D03*
X126495000Y-74125000D03*
%TD*%
D21*
%TO.C,U2*%
X132850000Y-72475000D03*
X132850000Y-74325000D03*
X134700000Y-72475000D03*
X134700000Y-74325000D03*
D22*
X131325000Y-71650000D03*
X131325000Y-72150000D03*
X131325000Y-72650000D03*
X131325000Y-73150000D03*
X131325000Y-73650000D03*
X131325000Y-74150000D03*
X131325000Y-74650000D03*
X131325000Y-75150000D03*
D23*
X132025000Y-75850000D03*
X132525000Y-75850000D03*
X133025000Y-75850000D03*
X133525000Y-75850000D03*
X134025000Y-75850000D03*
X134525000Y-75850000D03*
X135025000Y-75850000D03*
X135525000Y-75850000D03*
D22*
X136225000Y-75150000D03*
X136225000Y-74650000D03*
X136225000Y-74150000D03*
X136225000Y-73650000D03*
X136225000Y-73150000D03*
X136225000Y-72650000D03*
X136225000Y-72150000D03*
X136225000Y-71650000D03*
D23*
X135525000Y-70950000D03*
X135025000Y-70950000D03*
X134525000Y-70950000D03*
X134025000Y-70950000D03*
X133525000Y-70950000D03*
X133025000Y-70950000D03*
X132525000Y-70950000D03*
X132025000Y-70950000D03*
%TD*%
D24*
%TO.C,C17*%
X137695000Y-72325000D03*
X137695000Y-73875000D03*
%TD*%
D25*
%TO.C,U3*%
X147442500Y-76550000D03*
X147442500Y-75600000D03*
X147442500Y-74650000D03*
X145167500Y-74650000D03*
X145167500Y-76550000D03*
%TD*%
D24*
%TO.C,C12*%
X127995000Y-71225000D03*
X127995000Y-72775000D03*
%TD*%
D26*
%TO.C,U4*%
X130018750Y-81606250D03*
X129406250Y-81606250D03*
X128793750Y-81606250D03*
X128181250Y-81606250D03*
X130018750Y-82218750D03*
X129406250Y-82218750D03*
X128793750Y-82218750D03*
X128181250Y-82218750D03*
X130018750Y-82831250D03*
X129406250Y-82831250D03*
X128793750Y-82831250D03*
X128181250Y-82831250D03*
X130018750Y-83443750D03*
X129406250Y-83443750D03*
X128793750Y-83443750D03*
X128181250Y-83443750D03*
D27*
X130350000Y-80525000D03*
X129850000Y-80525000D03*
X129350000Y-80525000D03*
X128850000Y-80525000D03*
X128350000Y-80525000D03*
X127850000Y-80525000D03*
D28*
X127100000Y-81275000D03*
X127100000Y-81775000D03*
X127100000Y-82275000D03*
X127100000Y-82775000D03*
X127100000Y-83275000D03*
X127100000Y-83775000D03*
D27*
X127850000Y-84525000D03*
X128350000Y-84525000D03*
X128850000Y-84525000D03*
X129350000Y-84525000D03*
X129850000Y-84525000D03*
X130350000Y-84525000D03*
D28*
X131100000Y-83775000D03*
X131100000Y-83275000D03*
X131100000Y-82775000D03*
X131100000Y-82275000D03*
X131100000Y-81775000D03*
X131100000Y-81275000D03*
%TD*%
D17*
%TO.C,Q2*%
X146655000Y-97675000D03*
X144955000Y-97675000D03*
X146655000Y-99375000D03*
X144955000Y-99375000D03*
D18*
X147710000Y-100780000D03*
X146440000Y-100780000D03*
X145170000Y-100780000D03*
X143900000Y-100780000D03*
D19*
X147710000Y-94975000D03*
X146440000Y-94975000D03*
X145170000Y-94975000D03*
X143900000Y-94975000D03*
%TD*%
D13*
%TO.C,R18*%
X129895000Y-88275000D03*
X129895000Y-89925000D03*
%TD*%
D24*
%TO.C,C23*%
X149205000Y-74825000D03*
X149205000Y-76375000D03*
%TD*%
D29*
%TO.C,RN3*%
X132950000Y-79300000D03*
X132950000Y-80100000D03*
X132950000Y-80900000D03*
X132950000Y-81700000D03*
X134650000Y-81700000D03*
X134650000Y-80900000D03*
X134650000Y-80100000D03*
X134650000Y-79300000D03*
%TD*%
D16*
%TO.C,D2*%
X153250000Y-86100000D03*
X151150000Y-86100000D03*
%TD*%
D17*
%TO.C,Q1*%
X146655000Y-104875000D03*
X144955000Y-104875000D03*
X146655000Y-106575000D03*
X144955000Y-106575000D03*
D18*
X147710000Y-107980000D03*
X146440000Y-107980000D03*
X145170000Y-107980000D03*
X143900000Y-107980000D03*
D19*
X147710000Y-102175000D03*
X146440000Y-102175000D03*
X145170000Y-102175000D03*
X143900000Y-102175000D03*
%TD*%
D11*
%TO.C,C14*%
X146100000Y-85125000D03*
X146100000Y-83575000D03*
%TD*%
D13*
%TO.C,R17*%
X125695000Y-88275000D03*
X125695000Y-89925000D03*
%TD*%
D10*
%TO.C,R5*%
X141825000Y-70800000D03*
X140175000Y-70800000D03*
%TD*%
D13*
%TO.C,R14*%
X151600000Y-71375000D03*
X151600000Y-73025000D03*
%TD*%
D30*
%TO.C,L2*%
X140725000Y-83200000D03*
X142875000Y-83200000D03*
%TD*%
D24*
%TO.C,C24*%
X143600000Y-74825000D03*
X143600000Y-76375000D03*
%TD*%
D15*
%TO.C,C1*%
X154405000Y-105675000D03*
X154405000Y-97275000D03*
%TD*%
D31*
%TO.C,RN1*%
X144000000Y-79850000D03*
X144800000Y-79850000D03*
X145600000Y-79850000D03*
X146400000Y-79850000D03*
X146400000Y-78150000D03*
X145600000Y-78150000D03*
X144800000Y-78150000D03*
X144000000Y-78150000D03*
%TD*%
D24*
%TO.C,C22*%
X151600000Y-68525000D03*
X151600000Y-70075000D03*
%TD*%
D14*
%TO.C,C2*%
X149875000Y-87800000D03*
X148325000Y-87800000D03*
%TD*%
D32*
%TO.C,D5*%
X147400000Y-73150000D03*
X147400000Y-71050000D03*
%TD*%
D33*
%TO.C,D6*%
X153087500Y-79300000D03*
X151512500Y-79300000D03*
%TD*%
D13*
%TO.C,R21*%
X122100000Y-88275000D03*
X122100000Y-89925000D03*
%TD*%
D12*
%TO.C,R12*%
X137800000Y-87625000D03*
X137800000Y-85975000D03*
%TD*%
D11*
%TO.C,C11*%
X139000000Y-84175000D03*
X139000000Y-82625000D03*
%TD*%
D12*
%TO.C,R22*%
X153000000Y-73025000D03*
X153000000Y-71375000D03*
%TD*%
D17*
%TO.C,Q3*%
X140955000Y-104875000D03*
X139255000Y-104875000D03*
X140955000Y-106575000D03*
X139255000Y-106575000D03*
D18*
X142010000Y-107980000D03*
X140740000Y-107980000D03*
X139470000Y-107980000D03*
X138200000Y-107980000D03*
D19*
X142010000Y-102175000D03*
X140740000Y-102175000D03*
X139470000Y-102175000D03*
X138200000Y-102175000D03*
%TD*%
D16*
%TO.C,D1*%
X153250000Y-87800000D03*
X151150000Y-87800000D03*
%TD*%
D17*
%TO.C,Q6*%
X135255000Y-97675000D03*
X133555000Y-97675000D03*
X135255000Y-99375000D03*
X133555000Y-99375000D03*
D18*
X136310000Y-100780000D03*
X135040000Y-100780000D03*
X133770000Y-100780000D03*
X132500000Y-100780000D03*
D19*
X136310000Y-94975000D03*
X135040000Y-94975000D03*
X133770000Y-94975000D03*
X132500000Y-94975000D03*
%TD*%
D34*
%TO.C,C9*%
X134325000Y-61300000D03*
X135875000Y-61300000D03*
%TD*%
D11*
%TO.C,C8*%
X123495000Y-72775000D03*
X123495000Y-71225000D03*
%TD*%
D34*
%TO.C,C28*%
X125625000Y-86225000D03*
X127175000Y-86225000D03*
%TD*%
D17*
%TO.C,Q5*%
X135255000Y-104875000D03*
X133555000Y-104875000D03*
X135255000Y-106575000D03*
X133555000Y-106575000D03*
D18*
X136310000Y-107980000D03*
X135040000Y-107980000D03*
X133770000Y-107980000D03*
X132500000Y-107980000D03*
D19*
X136310000Y-102175000D03*
X135040000Y-102175000D03*
X133770000Y-102175000D03*
X132500000Y-102175000D03*
%TD*%
D35*
%TO.C,Y1*%
X135950000Y-65400000D03*
X135950000Y-63200000D03*
X134250000Y-63200000D03*
X134250000Y-65400000D03*
%TD*%
D14*
%TO.C,C4*%
X149875000Y-86100000D03*
X148325000Y-86100000D03*
%TD*%
D24*
%TO.C,C6*%
X144600000Y-86675000D03*
X144600000Y-88225000D03*
%TD*%
D12*
%TO.C,R3*%
X152805000Y-67040000D03*
X152805000Y-65390000D03*
%TD*%
D13*
%TO.C,R19*%
X123895000Y-88275000D03*
X123895000Y-89925000D03*
%TD*%
D31*
%TO.C,RN2*%
X147700000Y-79850000D03*
X148500000Y-79850000D03*
X149300000Y-79850000D03*
X150100000Y-79850000D03*
X150100000Y-78150000D03*
X149300000Y-78150000D03*
X148500000Y-78150000D03*
X147700000Y-78150000D03*
%TD*%
D24*
%TO.C,C20*%
X128900000Y-67525000D03*
X128900000Y-69075000D03*
%TD*%
D13*
%TO.C,R20*%
X128095000Y-88275000D03*
X128095000Y-89925000D03*
%TD*%
%TO.C,R16*%
X131695000Y-88275000D03*
X131695000Y-89925000D03*
%TD*%
D36*
%TO.C,D4*%
X150750000Y-75875000D03*
X152850000Y-75875000D03*
%TD*%
D33*
%TO.C,D8*%
X153087500Y-82300000D03*
X151512500Y-82300000D03*
%TD*%
D34*
%TO.C,C26*%
X131625000Y-86225000D03*
X133175000Y-86225000D03*
%TD*%
D11*
%TO.C,C10*%
X124995000Y-72775000D03*
X124995000Y-71225000D03*
%TD*%
D33*
%TO.C,D7*%
X153087500Y-80800000D03*
X151512500Y-80800000D03*
%TD*%
D11*
%TO.C,C18*%
X130400000Y-69075000D03*
X130400000Y-67525000D03*
%TD*%
D37*
%TO.C,J2*%
X149700000Y-67380000D03*
X148900000Y-67380000D03*
D38*
X147750000Y-67380000D03*
X146750000Y-67380000D03*
X146250000Y-67380000D03*
X145250000Y-67380000D03*
D37*
X144100000Y-67380000D03*
X143300000Y-67380000D03*
X143300000Y-67380000D03*
X144100000Y-67380000D03*
D38*
X144750000Y-67380000D03*
X145750000Y-67380000D03*
X147250000Y-67380000D03*
X148250000Y-67380000D03*
D37*
X148900000Y-67380000D03*
X149700000Y-67380000D03*
D39*
X150820000Y-66805000D03*
D40*
X150820000Y-62625000D03*
D39*
X142180000Y-66805000D03*
D40*
X142180000Y-62625000D03*
%TD*%
D24*
%TO.C,C16*%
X139195000Y-74325000D03*
X139195000Y-75875000D03*
%TD*%
D14*
%TO.C,C7*%
X135875000Y-67200000D03*
X134325000Y-67200000D03*
%TD*%
D34*
%TO.C,C27*%
X128625000Y-86225000D03*
X130175000Y-86225000D03*
%TD*%
D11*
%TO.C,C13*%
X144600000Y-85125000D03*
X144600000Y-83575000D03*
%TD*%
D41*
%TO.C,D9*%
X142000000Y-78312500D03*
X142000000Y-79887500D03*
%TD*%
D42*
%TO.C,L1*%
X126495000Y-72787500D03*
X126495000Y-71212500D03*
%TD*%
D14*
%TO.C,C25*%
X128570000Y-79200000D03*
X127020000Y-79200000D03*
%TD*%
M02*
