%TF.GenerationSoftware,KiCad,Pcbnew,10.0.5*%
%TF.CreationDate,2026-09-04T22:35:11+02:00*%
%TF.ProjectId,FlexDrive,466c6578-4472-4697-9665-2e6b69636164,rev?*%
%TF.SameCoordinates,Original*%
%TF.FileFunction,Legend,Top*%
%TF.FilePolarity,Positive*%
%FSLAX46Y46*%
G04 Gerber Fmt 4.6, Leading zero omitted, Abs format (unit mm)*
G04 Created by KiCad (PCBNEW 10.0.5) date 2026-09-04 22:35:11*
%MOMM*%
%LPD*%
G01*
G04 APERTURE LIST*
%ADD10C,0.100000*%
%ADD11C,0.200000*%
%ADD12C,0.150000*%
%ADD13C,0.120000*%
G04 APERTURE END LIST*
D10*
X156121371Y-92691353D02*
X155521371Y-92691353D01*
X155807085Y-92691353D02*
X155807085Y-92348496D01*
X156121371Y-92348496D02*
X155521371Y-92348496D01*
X156064228Y-91719925D02*
X156092800Y-91748497D01*
X156092800Y-91748497D02*
X156121371Y-91834211D01*
X156121371Y-91834211D02*
X156121371Y-91891354D01*
X156121371Y-91891354D02*
X156092800Y-91977068D01*
X156092800Y-91977068D02*
X156035657Y-92034211D01*
X156035657Y-92034211D02*
X155978514Y-92062782D01*
X155978514Y-92062782D02*
X155864228Y-92091354D01*
X155864228Y-92091354D02*
X155778514Y-92091354D01*
X155778514Y-92091354D02*
X155664228Y-92062782D01*
X155664228Y-92062782D02*
X155607085Y-92034211D01*
X155607085Y-92034211D02*
X155549942Y-91977068D01*
X155549942Y-91977068D02*
X155521371Y-91891354D01*
X155521371Y-91891354D02*
X155521371Y-91834211D01*
X155521371Y-91834211D02*
X155549942Y-91748497D01*
X155549942Y-91748497D02*
X155578514Y-91719925D01*
X156121371Y-90091353D02*
X155521371Y-90091353D01*
X155807085Y-90091353D02*
X155807085Y-89748496D01*
X156121371Y-89748496D02*
X155521371Y-89748496D01*
X155807085Y-89262782D02*
X155835657Y-89177068D01*
X155835657Y-89177068D02*
X155864228Y-89148497D01*
X155864228Y-89148497D02*
X155921371Y-89119925D01*
X155921371Y-89119925D02*
X156007085Y-89119925D01*
X156007085Y-89119925D02*
X156064228Y-89148497D01*
X156064228Y-89148497D02*
X156092800Y-89177068D01*
X156092800Y-89177068D02*
X156121371Y-89234211D01*
X156121371Y-89234211D02*
X156121371Y-89462782D01*
X156121371Y-89462782D02*
X155521371Y-89462782D01*
X155521371Y-89462782D02*
X155521371Y-89262782D01*
X155521371Y-89262782D02*
X155549942Y-89205640D01*
X155549942Y-89205640D02*
X155578514Y-89177068D01*
X155578514Y-89177068D02*
X155635657Y-89148497D01*
X155635657Y-89148497D02*
X155692800Y-89148497D01*
X155692800Y-89148497D02*
X155749942Y-89177068D01*
X155749942Y-89177068D02*
X155778514Y-89205640D01*
X155778514Y-89205640D02*
X155807085Y-89262782D01*
X155807085Y-89262782D02*
X155807085Y-89462782D01*
X156121371Y-87491353D02*
X155521371Y-87491353D01*
X155807085Y-87491353D02*
X155807085Y-87148496D01*
X156121371Y-87148496D02*
X155521371Y-87148496D01*
X155949942Y-86891354D02*
X155949942Y-86605640D01*
X156121371Y-86948497D02*
X155521371Y-86748497D01*
X155521371Y-86748497D02*
X156121371Y-86548497D01*
X155549942Y-85119925D02*
X155521371Y-85177068D01*
X155521371Y-85177068D02*
X155521371Y-85262782D01*
X155521371Y-85262782D02*
X155549942Y-85348496D01*
X155549942Y-85348496D02*
X155607085Y-85405639D01*
X155607085Y-85405639D02*
X155664228Y-85434210D01*
X155664228Y-85434210D02*
X155778514Y-85462782D01*
X155778514Y-85462782D02*
X155864228Y-85462782D01*
X155864228Y-85462782D02*
X155978514Y-85434210D01*
X155978514Y-85434210D02*
X156035657Y-85405639D01*
X156035657Y-85405639D02*
X156092800Y-85348496D01*
X156092800Y-85348496D02*
X156121371Y-85262782D01*
X156121371Y-85262782D02*
X156121371Y-85205639D01*
X156121371Y-85205639D02*
X156092800Y-85119925D01*
X156092800Y-85119925D02*
X156064228Y-85091353D01*
X156064228Y-85091353D02*
X155864228Y-85091353D01*
X155864228Y-85091353D02*
X155864228Y-85205639D01*
X156121371Y-84834210D02*
X155521371Y-84834210D01*
X155521371Y-84834210D02*
X156121371Y-84491353D01*
X156121371Y-84491353D02*
X155521371Y-84491353D01*
X156121371Y-84205639D02*
X155521371Y-84205639D01*
X155521371Y-84205639D02*
X155521371Y-84062782D01*
X155521371Y-84062782D02*
X155549942Y-83977068D01*
X155549942Y-83977068D02*
X155607085Y-83919925D01*
X155607085Y-83919925D02*
X155664228Y-83891354D01*
X155664228Y-83891354D02*
X155778514Y-83862782D01*
X155778514Y-83862782D02*
X155864228Y-83862782D01*
X155864228Y-83862782D02*
X155978514Y-83891354D01*
X155978514Y-83891354D02*
X156035657Y-83919925D01*
X156035657Y-83919925D02*
X156092800Y-83977068D01*
X156092800Y-83977068D02*
X156121371Y-84062782D01*
X156121371Y-84062782D02*
X156121371Y-84205639D01*
X155521371Y-82748496D02*
X155521371Y-82377068D01*
X155521371Y-82377068D02*
X155749942Y-82577068D01*
X155749942Y-82577068D02*
X155749942Y-82491353D01*
X155749942Y-82491353D02*
X155778514Y-82434211D01*
X155778514Y-82434211D02*
X155807085Y-82405639D01*
X155807085Y-82405639D02*
X155864228Y-82377068D01*
X155864228Y-82377068D02*
X156007085Y-82377068D01*
X156007085Y-82377068D02*
X156064228Y-82405639D01*
X156064228Y-82405639D02*
X156092800Y-82434211D01*
X156092800Y-82434211D02*
X156121371Y-82491353D01*
X156121371Y-82491353D02*
X156121371Y-82662782D01*
X156121371Y-82662782D02*
X156092800Y-82719925D01*
X156092800Y-82719925D02*
X156064228Y-82748496D01*
X156064228Y-82119924D02*
X156092800Y-82091353D01*
X156092800Y-82091353D02*
X156121371Y-82119924D01*
X156121371Y-82119924D02*
X156092800Y-82148496D01*
X156092800Y-82148496D02*
X156064228Y-82119924D01*
X156064228Y-82119924D02*
X156121371Y-82119924D01*
X155521371Y-81891353D02*
X155521371Y-81519925D01*
X155521371Y-81519925D02*
X155749942Y-81719925D01*
X155749942Y-81719925D02*
X155749942Y-81634210D01*
X155749942Y-81634210D02*
X155778514Y-81577068D01*
X155778514Y-81577068D02*
X155807085Y-81548496D01*
X155807085Y-81548496D02*
X155864228Y-81519925D01*
X155864228Y-81519925D02*
X156007085Y-81519925D01*
X156007085Y-81519925D02*
X156064228Y-81548496D01*
X156064228Y-81548496D02*
X156092800Y-81577068D01*
X156092800Y-81577068D02*
X156121371Y-81634210D01*
X156121371Y-81634210D02*
X156121371Y-81805639D01*
X156121371Y-81805639D02*
X156092800Y-81862782D01*
X156092800Y-81862782D02*
X156064228Y-81891353D01*
X155521371Y-81348496D02*
X156121371Y-81148496D01*
X156121371Y-81148496D02*
X155521371Y-80948496D01*
X156121371Y-79519924D02*
X156121371Y-79862781D01*
X156121371Y-79691352D02*
X155521371Y-79691352D01*
X155521371Y-79691352D02*
X155607085Y-79748495D01*
X155607085Y-79748495D02*
X155664228Y-79805638D01*
X155664228Y-79805638D02*
X155692800Y-79862781D01*
X155521371Y-79148495D02*
X155521371Y-79091352D01*
X155521371Y-79091352D02*
X155549942Y-79034209D01*
X155549942Y-79034209D02*
X155578514Y-79005638D01*
X155578514Y-79005638D02*
X155635657Y-78977066D01*
X155635657Y-78977066D02*
X155749942Y-78948495D01*
X155749942Y-78948495D02*
X155892800Y-78948495D01*
X155892800Y-78948495D02*
X156007085Y-78977066D01*
X156007085Y-78977066D02*
X156064228Y-79005638D01*
X156064228Y-79005638D02*
X156092800Y-79034209D01*
X156092800Y-79034209D02*
X156121371Y-79091352D01*
X156121371Y-79091352D02*
X156121371Y-79148495D01*
X156121371Y-79148495D02*
X156092800Y-79205638D01*
X156092800Y-79205638D02*
X156064228Y-79234209D01*
X156064228Y-79234209D02*
X156007085Y-79262780D01*
X156007085Y-79262780D02*
X155892800Y-79291352D01*
X155892800Y-79291352D02*
X155749942Y-79291352D01*
X155749942Y-79291352D02*
X155635657Y-79262780D01*
X155635657Y-79262780D02*
X155578514Y-79234209D01*
X155578514Y-79234209D02*
X155549942Y-79205638D01*
X155549942Y-79205638D02*
X155521371Y-79148495D01*
X155521371Y-78777066D02*
X156121371Y-78577066D01*
X156121371Y-78577066D02*
X155521371Y-78377066D01*
D11*
X121814171Y-86011279D02*
X121814171Y-86411279D01*
X122442742Y-86489850D02*
X121242742Y-86339850D01*
X121242742Y-86339850D02*
X121242742Y-85768422D01*
X122442742Y-85289851D02*
X122385600Y-85396993D01*
X122385600Y-85396993D02*
X122271314Y-85439851D01*
X122271314Y-85439851D02*
X121242742Y-85311279D01*
X122385600Y-84368422D02*
X122442742Y-84489851D01*
X122442742Y-84489851D02*
X122442742Y-84718422D01*
X122442742Y-84718422D02*
X122385600Y-84825565D01*
X122385600Y-84825565D02*
X122271314Y-84868422D01*
X122271314Y-84868422D02*
X121814171Y-84811280D01*
X121814171Y-84811280D02*
X121699885Y-84739851D01*
X121699885Y-84739851D02*
X121642742Y-84618422D01*
X121642742Y-84618422D02*
X121642742Y-84389851D01*
X121642742Y-84389851D02*
X121699885Y-84282708D01*
X121699885Y-84282708D02*
X121814171Y-84239851D01*
X121814171Y-84239851D02*
X121928457Y-84254137D01*
X121928457Y-84254137D02*
X122042742Y-84839851D01*
X122442742Y-83918423D02*
X121642742Y-83189851D01*
X121642742Y-83818423D02*
X122442742Y-83289851D01*
X122442742Y-82832708D02*
X121242742Y-82682708D01*
X121242742Y-82682708D02*
X121242742Y-82396994D01*
X121242742Y-82396994D02*
X121299885Y-82232708D01*
X121299885Y-82232708D02*
X121414171Y-82132708D01*
X121414171Y-82132708D02*
X121528457Y-82089851D01*
X121528457Y-82089851D02*
X121757028Y-82061280D01*
X121757028Y-82061280D02*
X121928457Y-82082708D01*
X121928457Y-82082708D02*
X122157028Y-82168422D01*
X122157028Y-82168422D02*
X122271314Y-82239851D01*
X122271314Y-82239851D02*
X122385600Y-82368422D01*
X122385600Y-82368422D02*
X122442742Y-82546994D01*
X122442742Y-82546994D02*
X122442742Y-82832708D01*
X122442742Y-81632708D02*
X121642742Y-81532708D01*
X121871314Y-81561280D02*
X121757028Y-81489851D01*
X121757028Y-81489851D02*
X121699885Y-81425565D01*
X121699885Y-81425565D02*
X121642742Y-81304137D01*
X121642742Y-81304137D02*
X121642742Y-81189851D01*
X122442742Y-80889851D02*
X121642742Y-80789851D01*
X121242742Y-80739851D02*
X121299885Y-80804137D01*
X121299885Y-80804137D02*
X121357028Y-80754137D01*
X121357028Y-80754137D02*
X121299885Y-80689851D01*
X121299885Y-80689851D02*
X121242742Y-80739851D01*
X121242742Y-80739851D02*
X121357028Y-80754137D01*
X121642742Y-80332708D02*
X122442742Y-80146994D01*
X122442742Y-80146994D02*
X121642742Y-79761279D01*
X122385600Y-78939850D02*
X122442742Y-79061279D01*
X122442742Y-79061279D02*
X122442742Y-79289850D01*
X122442742Y-79289850D02*
X122385600Y-79396993D01*
X122385600Y-79396993D02*
X122271314Y-79439850D01*
X122271314Y-79439850D02*
X121814171Y-79382708D01*
X121814171Y-79382708D02*
X121699885Y-79311279D01*
X121699885Y-79311279D02*
X121642742Y-79189850D01*
X121642742Y-79189850D02*
X121642742Y-78961279D01*
X121642742Y-78961279D02*
X121699885Y-78854136D01*
X121699885Y-78854136D02*
X121814171Y-78811279D01*
X121814171Y-78811279D02*
X121928457Y-78825565D01*
X121928457Y-78825565D02*
X122042742Y-79411279D01*
X122442742Y-76832708D02*
X122442742Y-77518422D01*
X122442742Y-77175565D02*
X121242742Y-77025565D01*
X121242742Y-77025565D02*
X121414171Y-77161279D01*
X121414171Y-77161279D02*
X121528457Y-77289851D01*
X121528457Y-77289851D02*
X121585600Y-77411279D01*
X122328457Y-76304136D02*
X122385600Y-76254136D01*
X122385600Y-76254136D02*
X122442742Y-76318422D01*
X122442742Y-76318422D02*
X122385600Y-76368422D01*
X122385600Y-76368422D02*
X122328457Y-76304136D01*
X122328457Y-76304136D02*
X122442742Y-76318422D01*
X121242742Y-75368422D02*
X121242742Y-75254136D01*
X121242742Y-75254136D02*
X121299885Y-75146993D01*
X121299885Y-75146993D02*
X121357028Y-75096993D01*
X121357028Y-75096993D02*
X121471314Y-75054136D01*
X121471314Y-75054136D02*
X121699885Y-75025565D01*
X121699885Y-75025565D02*
X121985600Y-75061279D01*
X121985600Y-75061279D02*
X122214171Y-75146993D01*
X122214171Y-75146993D02*
X122328457Y-75218422D01*
X122328457Y-75218422D02*
X122385600Y-75282707D01*
X122385600Y-75282707D02*
X122442742Y-75404136D01*
X122442742Y-75404136D02*
X122442742Y-75518422D01*
X122442742Y-75518422D02*
X122385600Y-75625565D01*
X122385600Y-75625565D02*
X122328457Y-75675565D01*
X122328457Y-75675565D02*
X122214171Y-75718422D01*
X122214171Y-75718422D02*
X121985600Y-75746993D01*
X121985600Y-75746993D02*
X121699885Y-75711279D01*
X121699885Y-75711279D02*
X121471314Y-75625565D01*
X121471314Y-75625565D02*
X121357028Y-75554136D01*
X121357028Y-75554136D02*
X121299885Y-75489850D01*
X121299885Y-75489850D02*
X121242742Y-75368422D01*
D10*
X149622931Y-109849942D02*
X149565789Y-109821371D01*
X149565789Y-109821371D02*
X149480074Y-109821371D01*
X149480074Y-109821371D02*
X149394360Y-109849942D01*
X149394360Y-109849942D02*
X149337217Y-109907085D01*
X149337217Y-109907085D02*
X149308646Y-109964228D01*
X149308646Y-109964228D02*
X149280074Y-110078514D01*
X149280074Y-110078514D02*
X149280074Y-110164228D01*
X149280074Y-110164228D02*
X149308646Y-110278514D01*
X149308646Y-110278514D02*
X149337217Y-110335657D01*
X149337217Y-110335657D02*
X149394360Y-110392800D01*
X149394360Y-110392800D02*
X149480074Y-110421371D01*
X149480074Y-110421371D02*
X149537217Y-110421371D01*
X149537217Y-110421371D02*
X149622931Y-110392800D01*
X149622931Y-110392800D02*
X149651503Y-110364228D01*
X149651503Y-110364228D02*
X149651503Y-110164228D01*
X149651503Y-110164228D02*
X149537217Y-110164228D01*
X149908646Y-110421371D02*
X149908646Y-109821371D01*
X149908646Y-109821371D02*
X150251503Y-110421371D01*
X150251503Y-110421371D02*
X150251503Y-109821371D01*
X150537217Y-110421371D02*
X150537217Y-109821371D01*
X150537217Y-109821371D02*
X150680074Y-109821371D01*
X150680074Y-109821371D02*
X150765788Y-109849942D01*
X150765788Y-109849942D02*
X150822931Y-109907085D01*
X150822931Y-109907085D02*
X150851502Y-109964228D01*
X150851502Y-109964228D02*
X150880074Y-110078514D01*
X150880074Y-110078514D02*
X150880074Y-110164228D01*
X150880074Y-110164228D02*
X150851502Y-110278514D01*
X150851502Y-110278514D02*
X150822931Y-110335657D01*
X150822931Y-110335657D02*
X150765788Y-110392800D01*
X150765788Y-110392800D02*
X150680074Y-110421371D01*
X150680074Y-110421371D02*
X150537217Y-110421371D01*
X143408646Y-110421371D02*
X143408646Y-109821371D01*
X143408646Y-109821371D02*
X143637217Y-109821371D01*
X143637217Y-109821371D02*
X143694360Y-109849942D01*
X143694360Y-109849942D02*
X143722931Y-109878514D01*
X143722931Y-109878514D02*
X143751503Y-109935657D01*
X143751503Y-109935657D02*
X143751503Y-110021371D01*
X143751503Y-110021371D02*
X143722931Y-110078514D01*
X143722931Y-110078514D02*
X143694360Y-110107085D01*
X143694360Y-110107085D02*
X143637217Y-110135657D01*
X143637217Y-110135657D02*
X143408646Y-110135657D01*
X144008646Y-110421371D02*
X144008646Y-109821371D01*
X144008646Y-110107085D02*
X144351503Y-110107085D01*
X144351503Y-110421371D02*
X144351503Y-109821371D01*
X144608645Y-110249942D02*
X144894360Y-110249942D01*
X144551502Y-110421371D02*
X144751502Y-109821371D01*
X144751502Y-109821371D02*
X144951502Y-110421371D01*
X145122931Y-110392800D02*
X145208646Y-110421371D01*
X145208646Y-110421371D02*
X145351503Y-110421371D01*
X145351503Y-110421371D02*
X145408646Y-110392800D01*
X145408646Y-110392800D02*
X145437217Y-110364228D01*
X145437217Y-110364228D02*
X145465788Y-110307085D01*
X145465788Y-110307085D02*
X145465788Y-110249942D01*
X145465788Y-110249942D02*
X145437217Y-110192800D01*
X145437217Y-110192800D02*
X145408646Y-110164228D01*
X145408646Y-110164228D02*
X145351503Y-110135657D01*
X145351503Y-110135657D02*
X145237217Y-110107085D01*
X145237217Y-110107085D02*
X145180074Y-110078514D01*
X145180074Y-110078514D02*
X145151503Y-110049942D01*
X145151503Y-110049942D02*
X145122931Y-109992800D01*
X145122931Y-109992800D02*
X145122931Y-109935657D01*
X145122931Y-109935657D02*
X145151503Y-109878514D01*
X145151503Y-109878514D02*
X145180074Y-109849942D01*
X145180074Y-109849942D02*
X145237217Y-109821371D01*
X145237217Y-109821371D02*
X145380074Y-109821371D01*
X145380074Y-109821371D02*
X145465788Y-109849942D01*
X145722932Y-110107085D02*
X145922932Y-110107085D01*
X146008646Y-110421371D02*
X145722932Y-110421371D01*
X145722932Y-110421371D02*
X145722932Y-109821371D01*
X145722932Y-109821371D02*
X146008646Y-109821371D01*
X146694360Y-110249942D02*
X146980075Y-110249942D01*
X146637217Y-110421371D02*
X146837217Y-109821371D01*
X146837217Y-109821371D02*
X147037217Y-110421371D01*
X132008646Y-110421371D02*
X132008646Y-109821371D01*
X132008646Y-109821371D02*
X132237217Y-109821371D01*
X132237217Y-109821371D02*
X132294360Y-109849942D01*
X132294360Y-109849942D02*
X132322931Y-109878514D01*
X132322931Y-109878514D02*
X132351503Y-109935657D01*
X132351503Y-109935657D02*
X132351503Y-110021371D01*
X132351503Y-110021371D02*
X132322931Y-110078514D01*
X132322931Y-110078514D02*
X132294360Y-110107085D01*
X132294360Y-110107085D02*
X132237217Y-110135657D01*
X132237217Y-110135657D02*
X132008646Y-110135657D01*
X132608646Y-110421371D02*
X132608646Y-109821371D01*
X132608646Y-110107085D02*
X132951503Y-110107085D01*
X132951503Y-110421371D02*
X132951503Y-109821371D01*
X133208645Y-110249942D02*
X133494360Y-110249942D01*
X133151502Y-110421371D02*
X133351502Y-109821371D01*
X133351502Y-109821371D02*
X133551502Y-110421371D01*
X133722931Y-110392800D02*
X133808646Y-110421371D01*
X133808646Y-110421371D02*
X133951503Y-110421371D01*
X133951503Y-110421371D02*
X134008646Y-110392800D01*
X134008646Y-110392800D02*
X134037217Y-110364228D01*
X134037217Y-110364228D02*
X134065788Y-110307085D01*
X134065788Y-110307085D02*
X134065788Y-110249942D01*
X134065788Y-110249942D02*
X134037217Y-110192800D01*
X134037217Y-110192800D02*
X134008646Y-110164228D01*
X134008646Y-110164228D02*
X133951503Y-110135657D01*
X133951503Y-110135657D02*
X133837217Y-110107085D01*
X133837217Y-110107085D02*
X133780074Y-110078514D01*
X133780074Y-110078514D02*
X133751503Y-110049942D01*
X133751503Y-110049942D02*
X133722931Y-109992800D01*
X133722931Y-109992800D02*
X133722931Y-109935657D01*
X133722931Y-109935657D02*
X133751503Y-109878514D01*
X133751503Y-109878514D02*
X133780074Y-109849942D01*
X133780074Y-109849942D02*
X133837217Y-109821371D01*
X133837217Y-109821371D02*
X133980074Y-109821371D01*
X133980074Y-109821371D02*
X134065788Y-109849942D01*
X134322932Y-110107085D02*
X134522932Y-110107085D01*
X134608646Y-110421371D02*
X134322932Y-110421371D01*
X134322932Y-110421371D02*
X134322932Y-109821371D01*
X134322932Y-109821371D02*
X134608646Y-109821371D01*
X135665789Y-110364228D02*
X135637217Y-110392800D01*
X135637217Y-110392800D02*
X135551503Y-110421371D01*
X135551503Y-110421371D02*
X135494360Y-110421371D01*
X135494360Y-110421371D02*
X135408646Y-110392800D01*
X135408646Y-110392800D02*
X135351503Y-110335657D01*
X135351503Y-110335657D02*
X135322932Y-110278514D01*
X135322932Y-110278514D02*
X135294360Y-110164228D01*
X135294360Y-110164228D02*
X135294360Y-110078514D01*
X135294360Y-110078514D02*
X135322932Y-109964228D01*
X135322932Y-109964228D02*
X135351503Y-109907085D01*
X135351503Y-109907085D02*
X135408646Y-109849942D01*
X135408646Y-109849942D02*
X135494360Y-109821371D01*
X135494360Y-109821371D02*
X135551503Y-109821371D01*
X135551503Y-109821371D02*
X135637217Y-109849942D01*
X135637217Y-109849942D02*
X135665789Y-109878514D01*
X153822931Y-108855405D02*
X154022931Y-109455405D01*
X154022931Y-109455405D02*
X154222931Y-108855405D01*
X154422932Y-109455405D02*
X154422932Y-108855405D01*
X154422932Y-108855405D02*
X154622932Y-109283976D01*
X154622932Y-109283976D02*
X154822932Y-108855405D01*
X154822932Y-108855405D02*
X154822932Y-109455405D01*
X155222931Y-108855405D02*
X155337217Y-108855405D01*
X155337217Y-108855405D02*
X155394360Y-108883976D01*
X155394360Y-108883976D02*
X155451503Y-108941119D01*
X155451503Y-108941119D02*
X155480074Y-109055405D01*
X155480074Y-109055405D02*
X155480074Y-109255405D01*
X155480074Y-109255405D02*
X155451503Y-109369691D01*
X155451503Y-109369691D02*
X155394360Y-109426834D01*
X155394360Y-109426834D02*
X155337217Y-109455405D01*
X155337217Y-109455405D02*
X155222931Y-109455405D01*
X155222931Y-109455405D02*
X155165789Y-109426834D01*
X155165789Y-109426834D02*
X155108646Y-109369691D01*
X155108646Y-109369691D02*
X155080074Y-109255405D01*
X155080074Y-109255405D02*
X155080074Y-109055405D01*
X155080074Y-109055405D02*
X155108646Y-108941119D01*
X155108646Y-108941119D02*
X155165789Y-108883976D01*
X155165789Y-108883976D02*
X155222931Y-108855405D01*
X155651502Y-108855405D02*
X155994360Y-108855405D01*
X155822931Y-109455405D02*
X155822931Y-108855405D01*
X154222931Y-110421371D02*
X153880074Y-110421371D01*
X154051503Y-110421371D02*
X154051503Y-109821371D01*
X154051503Y-109821371D02*
X153994360Y-109907085D01*
X153994360Y-109907085D02*
X153937217Y-109964228D01*
X153937217Y-109964228D02*
X153880074Y-109992800D01*
X154594360Y-109821371D02*
X154651503Y-109821371D01*
X154651503Y-109821371D02*
X154708646Y-109849942D01*
X154708646Y-109849942D02*
X154737218Y-109878514D01*
X154737218Y-109878514D02*
X154765789Y-109935657D01*
X154765789Y-109935657D02*
X154794360Y-110049942D01*
X154794360Y-110049942D02*
X154794360Y-110192800D01*
X154794360Y-110192800D02*
X154765789Y-110307085D01*
X154765789Y-110307085D02*
X154737218Y-110364228D01*
X154737218Y-110364228D02*
X154708646Y-110392800D01*
X154708646Y-110392800D02*
X154651503Y-110421371D01*
X154651503Y-110421371D02*
X154594360Y-110421371D01*
X154594360Y-110421371D02*
X154537218Y-110392800D01*
X154537218Y-110392800D02*
X154508646Y-110364228D01*
X154508646Y-110364228D02*
X154480075Y-110307085D01*
X154480075Y-110307085D02*
X154451503Y-110192800D01*
X154451503Y-110192800D02*
X154451503Y-110049942D01*
X154451503Y-110049942D02*
X154480075Y-109935657D01*
X154480075Y-109935657D02*
X154508646Y-109878514D01*
X154508646Y-109878514D02*
X154537218Y-109849942D01*
X154537218Y-109849942D02*
X154594360Y-109821371D01*
X155051504Y-110192800D02*
X155508647Y-110192800D01*
X156051504Y-109821371D02*
X155937218Y-109821371D01*
X155937218Y-109821371D02*
X155880075Y-109849942D01*
X155880075Y-109849942D02*
X155851504Y-109878514D01*
X155851504Y-109878514D02*
X155794361Y-109964228D01*
X155794361Y-109964228D02*
X155765789Y-110078514D01*
X155765789Y-110078514D02*
X155765789Y-110307085D01*
X155765789Y-110307085D02*
X155794361Y-110364228D01*
X155794361Y-110364228D02*
X155822932Y-110392800D01*
X155822932Y-110392800D02*
X155880075Y-110421371D01*
X155880075Y-110421371D02*
X155994361Y-110421371D01*
X155994361Y-110421371D02*
X156051504Y-110392800D01*
X156051504Y-110392800D02*
X156080075Y-110364228D01*
X156080075Y-110364228D02*
X156108646Y-110307085D01*
X156108646Y-110307085D02*
X156108646Y-110164228D01*
X156108646Y-110164228D02*
X156080075Y-110107085D01*
X156080075Y-110107085D02*
X156051504Y-110078514D01*
X156051504Y-110078514D02*
X155994361Y-110049942D01*
X155994361Y-110049942D02*
X155880075Y-110049942D01*
X155880075Y-110049942D02*
X155822932Y-110078514D01*
X155822932Y-110078514D02*
X155794361Y-110107085D01*
X155794361Y-110107085D02*
X155765789Y-110164228D01*
X156480075Y-109821371D02*
X156537218Y-109821371D01*
X156537218Y-109821371D02*
X156594361Y-109849942D01*
X156594361Y-109849942D02*
X156622933Y-109878514D01*
X156622933Y-109878514D02*
X156651504Y-109935657D01*
X156651504Y-109935657D02*
X156680075Y-110049942D01*
X156680075Y-110049942D02*
X156680075Y-110192800D01*
X156680075Y-110192800D02*
X156651504Y-110307085D01*
X156651504Y-110307085D02*
X156622933Y-110364228D01*
X156622933Y-110364228D02*
X156594361Y-110392800D01*
X156594361Y-110392800D02*
X156537218Y-110421371D01*
X156537218Y-110421371D02*
X156480075Y-110421371D01*
X156480075Y-110421371D02*
X156422933Y-110392800D01*
X156422933Y-110392800D02*
X156394361Y-110364228D01*
X156394361Y-110364228D02*
X156365790Y-110307085D01*
X156365790Y-110307085D02*
X156337218Y-110192800D01*
X156337218Y-110192800D02*
X156337218Y-110049942D01*
X156337218Y-110049942D02*
X156365790Y-109935657D01*
X156365790Y-109935657D02*
X156394361Y-109878514D01*
X156394361Y-109878514D02*
X156422933Y-109849942D01*
X156422933Y-109849942D02*
X156480075Y-109821371D01*
X156851504Y-109821371D02*
X157051504Y-110421371D01*
X157051504Y-110421371D02*
X157251504Y-109821371D01*
X137708646Y-110421371D02*
X137708646Y-109821371D01*
X137708646Y-109821371D02*
X137937217Y-109821371D01*
X137937217Y-109821371D02*
X137994360Y-109849942D01*
X137994360Y-109849942D02*
X138022931Y-109878514D01*
X138022931Y-109878514D02*
X138051503Y-109935657D01*
X138051503Y-109935657D02*
X138051503Y-110021371D01*
X138051503Y-110021371D02*
X138022931Y-110078514D01*
X138022931Y-110078514D02*
X137994360Y-110107085D01*
X137994360Y-110107085D02*
X137937217Y-110135657D01*
X137937217Y-110135657D02*
X137708646Y-110135657D01*
X138308646Y-110421371D02*
X138308646Y-109821371D01*
X138308646Y-110107085D02*
X138651503Y-110107085D01*
X138651503Y-110421371D02*
X138651503Y-109821371D01*
X138908645Y-110249942D02*
X139194360Y-110249942D01*
X138851502Y-110421371D02*
X139051502Y-109821371D01*
X139051502Y-109821371D02*
X139251502Y-110421371D01*
X139422931Y-110392800D02*
X139508646Y-110421371D01*
X139508646Y-110421371D02*
X139651503Y-110421371D01*
X139651503Y-110421371D02*
X139708646Y-110392800D01*
X139708646Y-110392800D02*
X139737217Y-110364228D01*
X139737217Y-110364228D02*
X139765788Y-110307085D01*
X139765788Y-110307085D02*
X139765788Y-110249942D01*
X139765788Y-110249942D02*
X139737217Y-110192800D01*
X139737217Y-110192800D02*
X139708646Y-110164228D01*
X139708646Y-110164228D02*
X139651503Y-110135657D01*
X139651503Y-110135657D02*
X139537217Y-110107085D01*
X139537217Y-110107085D02*
X139480074Y-110078514D01*
X139480074Y-110078514D02*
X139451503Y-110049942D01*
X139451503Y-110049942D02*
X139422931Y-109992800D01*
X139422931Y-109992800D02*
X139422931Y-109935657D01*
X139422931Y-109935657D02*
X139451503Y-109878514D01*
X139451503Y-109878514D02*
X139480074Y-109849942D01*
X139480074Y-109849942D02*
X139537217Y-109821371D01*
X139537217Y-109821371D02*
X139680074Y-109821371D01*
X139680074Y-109821371D02*
X139765788Y-109849942D01*
X140022932Y-110107085D02*
X140222932Y-110107085D01*
X140308646Y-110421371D02*
X140022932Y-110421371D01*
X140022932Y-110421371D02*
X140022932Y-109821371D01*
X140022932Y-109821371D02*
X140308646Y-109821371D01*
X141222932Y-110107085D02*
X141308646Y-110135657D01*
X141308646Y-110135657D02*
X141337217Y-110164228D01*
X141337217Y-110164228D02*
X141365789Y-110221371D01*
X141365789Y-110221371D02*
X141365789Y-110307085D01*
X141365789Y-110307085D02*
X141337217Y-110364228D01*
X141337217Y-110364228D02*
X141308646Y-110392800D01*
X141308646Y-110392800D02*
X141251503Y-110421371D01*
X141251503Y-110421371D02*
X141022932Y-110421371D01*
X141022932Y-110421371D02*
X141022932Y-109821371D01*
X141022932Y-109821371D02*
X141222932Y-109821371D01*
X141222932Y-109821371D02*
X141280075Y-109849942D01*
X141280075Y-109849942D02*
X141308646Y-109878514D01*
X141308646Y-109878514D02*
X141337217Y-109935657D01*
X141337217Y-109935657D02*
X141337217Y-109992800D01*
X141337217Y-109992800D02*
X141308646Y-110049942D01*
X141308646Y-110049942D02*
X141280075Y-110078514D01*
X141280075Y-110078514D02*
X141222932Y-110107085D01*
X141222932Y-110107085D02*
X141022932Y-110107085D01*
X138700000Y-69572371D02*
X138500000Y-69286657D01*
X138357143Y-69572371D02*
X138357143Y-68972371D01*
X138357143Y-68972371D02*
X138585714Y-68972371D01*
X138585714Y-68972371D02*
X138642857Y-69000942D01*
X138642857Y-69000942D02*
X138671428Y-69029514D01*
X138671428Y-69029514D02*
X138700000Y-69086657D01*
X138700000Y-69086657D02*
X138700000Y-69172371D01*
X138700000Y-69172371D02*
X138671428Y-69229514D01*
X138671428Y-69229514D02*
X138642857Y-69258085D01*
X138642857Y-69258085D02*
X138585714Y-69286657D01*
X138585714Y-69286657D02*
X138357143Y-69286657D01*
X139214286Y-68972371D02*
X139100000Y-68972371D01*
X139100000Y-68972371D02*
X139042857Y-69000942D01*
X139042857Y-69000942D02*
X139014286Y-69029514D01*
X139014286Y-69029514D02*
X138957143Y-69115228D01*
X138957143Y-69115228D02*
X138928571Y-69229514D01*
X138928571Y-69229514D02*
X138928571Y-69458085D01*
X138928571Y-69458085D02*
X138957143Y-69515228D01*
X138957143Y-69515228D02*
X138985714Y-69543800D01*
X138985714Y-69543800D02*
X139042857Y-69572371D01*
X139042857Y-69572371D02*
X139157143Y-69572371D01*
X139157143Y-69572371D02*
X139214286Y-69543800D01*
X139214286Y-69543800D02*
X139242857Y-69515228D01*
X139242857Y-69515228D02*
X139271428Y-69458085D01*
X139271428Y-69458085D02*
X139271428Y-69315228D01*
X139271428Y-69315228D02*
X139242857Y-69258085D01*
X139242857Y-69258085D02*
X139214286Y-69229514D01*
X139214286Y-69229514D02*
X139157143Y-69200942D01*
X139157143Y-69200942D02*
X139042857Y-69200942D01*
X139042857Y-69200942D02*
X138985714Y-69229514D01*
X138985714Y-69229514D02*
X138957143Y-69258085D01*
X138957143Y-69258085D02*
X138928571Y-69315228D01*
X132105228Y-66185714D02*
X132133800Y-66214286D01*
X132133800Y-66214286D02*
X132162371Y-66300000D01*
X132162371Y-66300000D02*
X132162371Y-66357143D01*
X132162371Y-66357143D02*
X132133800Y-66442857D01*
X132133800Y-66442857D02*
X132076657Y-66500000D01*
X132076657Y-66500000D02*
X132019514Y-66528571D01*
X132019514Y-66528571D02*
X131905228Y-66557143D01*
X131905228Y-66557143D02*
X131819514Y-66557143D01*
X131819514Y-66557143D02*
X131705228Y-66528571D01*
X131705228Y-66528571D02*
X131648085Y-66500000D01*
X131648085Y-66500000D02*
X131590942Y-66442857D01*
X131590942Y-66442857D02*
X131562371Y-66357143D01*
X131562371Y-66357143D02*
X131562371Y-66300000D01*
X131562371Y-66300000D02*
X131590942Y-66214286D01*
X131590942Y-66214286D02*
X131619514Y-66185714D01*
X132162371Y-65614286D02*
X132162371Y-65957143D01*
X132162371Y-65785714D02*
X131562371Y-65785714D01*
X131562371Y-65785714D02*
X131648085Y-65842857D01*
X131648085Y-65842857D02*
X131705228Y-65900000D01*
X131705228Y-65900000D02*
X131733800Y-65957143D01*
X132162371Y-65328571D02*
X132162371Y-65214285D01*
X132162371Y-65214285D02*
X132133800Y-65157142D01*
X132133800Y-65157142D02*
X132105228Y-65128571D01*
X132105228Y-65128571D02*
X132019514Y-65071428D01*
X132019514Y-65071428D02*
X131905228Y-65042857D01*
X131905228Y-65042857D02*
X131676657Y-65042857D01*
X131676657Y-65042857D02*
X131619514Y-65071428D01*
X131619514Y-65071428D02*
X131590942Y-65100000D01*
X131590942Y-65100000D02*
X131562371Y-65157142D01*
X131562371Y-65157142D02*
X131562371Y-65271428D01*
X131562371Y-65271428D02*
X131590942Y-65328571D01*
X131590942Y-65328571D02*
X131619514Y-65357142D01*
X131619514Y-65357142D02*
X131676657Y-65385714D01*
X131676657Y-65385714D02*
X131819514Y-65385714D01*
X131819514Y-65385714D02*
X131876657Y-65357142D01*
X131876657Y-65357142D02*
X131905228Y-65328571D01*
X131905228Y-65328571D02*
X131933800Y-65271428D01*
X131933800Y-65271428D02*
X131933800Y-65157142D01*
X131933800Y-65157142D02*
X131905228Y-65100000D01*
X131905228Y-65100000D02*
X131876657Y-65071428D01*
X131876657Y-65071428D02*
X131819514Y-65042857D01*
X140477371Y-64214999D02*
X140191657Y-64414999D01*
X140477371Y-64557856D02*
X139877371Y-64557856D01*
X139877371Y-64557856D02*
X139877371Y-64329285D01*
X139877371Y-64329285D02*
X139905942Y-64272142D01*
X139905942Y-64272142D02*
X139934514Y-64243571D01*
X139934514Y-64243571D02*
X139991657Y-64214999D01*
X139991657Y-64214999D02*
X140077371Y-64214999D01*
X140077371Y-64214999D02*
X140134514Y-64243571D01*
X140134514Y-64243571D02*
X140163085Y-64272142D01*
X140163085Y-64272142D02*
X140191657Y-64329285D01*
X140191657Y-64329285D02*
X140191657Y-64557856D01*
X140077371Y-63700714D02*
X140477371Y-63700714D01*
X139848800Y-63843571D02*
X140277371Y-63986428D01*
X140277371Y-63986428D02*
X140277371Y-63614999D01*
X136472371Y-89585714D02*
X136186657Y-89785714D01*
X136472371Y-89928571D02*
X135872371Y-89928571D01*
X135872371Y-89928571D02*
X135872371Y-89700000D01*
X135872371Y-89700000D02*
X135900942Y-89642857D01*
X135900942Y-89642857D02*
X135929514Y-89614286D01*
X135929514Y-89614286D02*
X135986657Y-89585714D01*
X135986657Y-89585714D02*
X136072371Y-89585714D01*
X136072371Y-89585714D02*
X136129514Y-89614286D01*
X136129514Y-89614286D02*
X136158085Y-89642857D01*
X136158085Y-89642857D02*
X136186657Y-89700000D01*
X136186657Y-89700000D02*
X136186657Y-89928571D01*
X136472371Y-89014286D02*
X136472371Y-89357143D01*
X136472371Y-89185714D02*
X135872371Y-89185714D01*
X135872371Y-89185714D02*
X135958085Y-89242857D01*
X135958085Y-89242857D02*
X136015228Y-89300000D01*
X136015228Y-89300000D02*
X136043800Y-89357143D01*
X136472371Y-88442857D02*
X136472371Y-88785714D01*
X136472371Y-88614285D02*
X135872371Y-88614285D01*
X135872371Y-88614285D02*
X135958085Y-88671428D01*
X135958085Y-88671428D02*
X136015228Y-88728571D01*
X136015228Y-88728571D02*
X136043800Y-88785714D01*
X146975000Y-84615228D02*
X146946428Y-84643800D01*
X146946428Y-84643800D02*
X146860714Y-84672371D01*
X146860714Y-84672371D02*
X146803571Y-84672371D01*
X146803571Y-84672371D02*
X146717857Y-84643800D01*
X146717857Y-84643800D02*
X146660714Y-84586657D01*
X146660714Y-84586657D02*
X146632143Y-84529514D01*
X146632143Y-84529514D02*
X146603571Y-84415228D01*
X146603571Y-84415228D02*
X146603571Y-84329514D01*
X146603571Y-84329514D02*
X146632143Y-84215228D01*
X146632143Y-84215228D02*
X146660714Y-84158085D01*
X146660714Y-84158085D02*
X146717857Y-84100942D01*
X146717857Y-84100942D02*
X146803571Y-84072371D01*
X146803571Y-84072371D02*
X146860714Y-84072371D01*
X146860714Y-84072371D02*
X146946428Y-84100942D01*
X146946428Y-84100942D02*
X146975000Y-84129514D01*
X147517857Y-84072371D02*
X147232143Y-84072371D01*
X147232143Y-84072371D02*
X147203571Y-84358085D01*
X147203571Y-84358085D02*
X147232143Y-84329514D01*
X147232143Y-84329514D02*
X147289286Y-84300942D01*
X147289286Y-84300942D02*
X147432143Y-84300942D01*
X147432143Y-84300942D02*
X147489286Y-84329514D01*
X147489286Y-84329514D02*
X147517857Y-84358085D01*
X147517857Y-84358085D02*
X147546428Y-84415228D01*
X147546428Y-84415228D02*
X147546428Y-84558085D01*
X147546428Y-84558085D02*
X147517857Y-84615228D01*
X147517857Y-84615228D02*
X147489286Y-84643800D01*
X147489286Y-84643800D02*
X147432143Y-84672371D01*
X147432143Y-84672371D02*
X147289286Y-84672371D01*
X147289286Y-84672371D02*
X147232143Y-84643800D01*
X147232143Y-84643800D02*
X147203571Y-84615228D01*
X133167371Y-84385714D02*
X132881657Y-84585714D01*
X133167371Y-84728571D02*
X132567371Y-84728571D01*
X132567371Y-84728571D02*
X132567371Y-84500000D01*
X132567371Y-84500000D02*
X132595942Y-84442857D01*
X132595942Y-84442857D02*
X132624514Y-84414286D01*
X132624514Y-84414286D02*
X132681657Y-84385714D01*
X132681657Y-84385714D02*
X132767371Y-84385714D01*
X132767371Y-84385714D02*
X132824514Y-84414286D01*
X132824514Y-84414286D02*
X132853085Y-84442857D01*
X132853085Y-84442857D02*
X132881657Y-84500000D01*
X132881657Y-84500000D02*
X132881657Y-84728571D01*
X133167371Y-83814286D02*
X133167371Y-84157143D01*
X133167371Y-83985714D02*
X132567371Y-83985714D01*
X132567371Y-83985714D02*
X132653085Y-84042857D01*
X132653085Y-84042857D02*
X132710228Y-84100000D01*
X132710228Y-84100000D02*
X132738800Y-84157143D01*
X132567371Y-83271428D02*
X132567371Y-83557142D01*
X132567371Y-83557142D02*
X132853085Y-83585714D01*
X132853085Y-83585714D02*
X132824514Y-83557142D01*
X132824514Y-83557142D02*
X132795942Y-83500000D01*
X132795942Y-83500000D02*
X132795942Y-83357142D01*
X132795942Y-83357142D02*
X132824514Y-83300000D01*
X132824514Y-83300000D02*
X132853085Y-83271428D01*
X132853085Y-83271428D02*
X132910228Y-83242857D01*
X132910228Y-83242857D02*
X133053085Y-83242857D01*
X133053085Y-83242857D02*
X133110228Y-83271428D01*
X133110228Y-83271428D02*
X133138800Y-83300000D01*
X133138800Y-83300000D02*
X133167371Y-83357142D01*
X133167371Y-83357142D02*
X133167371Y-83500000D01*
X133167371Y-83500000D02*
X133138800Y-83557142D01*
X133138800Y-83557142D02*
X133110228Y-83585714D01*
X125800000Y-94415228D02*
X125771428Y-94443800D01*
X125771428Y-94443800D02*
X125685714Y-94472371D01*
X125685714Y-94472371D02*
X125628571Y-94472371D01*
X125628571Y-94472371D02*
X125542857Y-94443800D01*
X125542857Y-94443800D02*
X125485714Y-94386657D01*
X125485714Y-94386657D02*
X125457143Y-94329514D01*
X125457143Y-94329514D02*
X125428571Y-94215228D01*
X125428571Y-94215228D02*
X125428571Y-94129514D01*
X125428571Y-94129514D02*
X125457143Y-94015228D01*
X125457143Y-94015228D02*
X125485714Y-93958085D01*
X125485714Y-93958085D02*
X125542857Y-93900942D01*
X125542857Y-93900942D02*
X125628571Y-93872371D01*
X125628571Y-93872371D02*
X125685714Y-93872371D01*
X125685714Y-93872371D02*
X125771428Y-93900942D01*
X125771428Y-93900942D02*
X125800000Y-93929514D01*
X126000000Y-93872371D02*
X126371428Y-93872371D01*
X126371428Y-93872371D02*
X126171428Y-94100942D01*
X126171428Y-94100942D02*
X126257143Y-94100942D01*
X126257143Y-94100942D02*
X126314286Y-94129514D01*
X126314286Y-94129514D02*
X126342857Y-94158085D01*
X126342857Y-94158085D02*
X126371428Y-94215228D01*
X126371428Y-94215228D02*
X126371428Y-94358085D01*
X126371428Y-94358085D02*
X126342857Y-94415228D01*
X126342857Y-94415228D02*
X126314286Y-94443800D01*
X126314286Y-94443800D02*
X126257143Y-94472371D01*
X126257143Y-94472371D02*
X126085714Y-94472371D01*
X126085714Y-94472371D02*
X126028571Y-94443800D01*
X126028571Y-94443800D02*
X126000000Y-94415228D01*
X154057143Y-84672371D02*
X154057143Y-84072371D01*
X154057143Y-84072371D02*
X154200000Y-84072371D01*
X154200000Y-84072371D02*
X154285714Y-84100942D01*
X154285714Y-84100942D02*
X154342857Y-84158085D01*
X154342857Y-84158085D02*
X154371428Y-84215228D01*
X154371428Y-84215228D02*
X154400000Y-84329514D01*
X154400000Y-84329514D02*
X154400000Y-84415228D01*
X154400000Y-84415228D02*
X154371428Y-84529514D01*
X154371428Y-84529514D02*
X154342857Y-84586657D01*
X154342857Y-84586657D02*
X154285714Y-84643800D01*
X154285714Y-84643800D02*
X154200000Y-84672371D01*
X154200000Y-84672371D02*
X154057143Y-84672371D01*
X154600000Y-84072371D02*
X154971428Y-84072371D01*
X154971428Y-84072371D02*
X154771428Y-84300942D01*
X154771428Y-84300942D02*
X154857143Y-84300942D01*
X154857143Y-84300942D02*
X154914286Y-84329514D01*
X154914286Y-84329514D02*
X154942857Y-84358085D01*
X154942857Y-84358085D02*
X154971428Y-84415228D01*
X154971428Y-84415228D02*
X154971428Y-84558085D01*
X154971428Y-84558085D02*
X154942857Y-84615228D01*
X154942857Y-84615228D02*
X154914286Y-84643800D01*
X154914286Y-84643800D02*
X154857143Y-84672371D01*
X154857143Y-84672371D02*
X154685714Y-84672371D01*
X154685714Y-84672371D02*
X154628571Y-84643800D01*
X154628571Y-84643800D02*
X154600000Y-84615228D01*
X138042857Y-94129514D02*
X137985714Y-94100942D01*
X137985714Y-94100942D02*
X137928571Y-94043800D01*
X137928571Y-94043800D02*
X137842857Y-93958085D01*
X137842857Y-93958085D02*
X137785714Y-93929514D01*
X137785714Y-93929514D02*
X137728571Y-93929514D01*
X137757142Y-94072371D02*
X137700000Y-94043800D01*
X137700000Y-94043800D02*
X137642857Y-93986657D01*
X137642857Y-93986657D02*
X137614285Y-93872371D01*
X137614285Y-93872371D02*
X137614285Y-93672371D01*
X137614285Y-93672371D02*
X137642857Y-93558085D01*
X137642857Y-93558085D02*
X137700000Y-93500942D01*
X137700000Y-93500942D02*
X137757142Y-93472371D01*
X137757142Y-93472371D02*
X137871428Y-93472371D01*
X137871428Y-93472371D02*
X137928571Y-93500942D01*
X137928571Y-93500942D02*
X137985714Y-93558085D01*
X137985714Y-93558085D02*
X138014285Y-93672371D01*
X138014285Y-93672371D02*
X138014285Y-93872371D01*
X138014285Y-93872371D02*
X137985714Y-93986657D01*
X137985714Y-93986657D02*
X137928571Y-94043800D01*
X137928571Y-94043800D02*
X137871428Y-94072371D01*
X137871428Y-94072371D02*
X137757142Y-94072371D01*
X138528571Y-93672371D02*
X138528571Y-94072371D01*
X138385713Y-93443800D02*
X138242856Y-93872371D01*
X138242856Y-93872371D02*
X138614285Y-93872371D01*
X140937857Y-88872371D02*
X140937857Y-89358085D01*
X140937857Y-89358085D02*
X140966428Y-89415228D01*
X140966428Y-89415228D02*
X140995000Y-89443800D01*
X140995000Y-89443800D02*
X141052142Y-89472371D01*
X141052142Y-89472371D02*
X141166428Y-89472371D01*
X141166428Y-89472371D02*
X141223571Y-89443800D01*
X141223571Y-89443800D02*
X141252142Y-89415228D01*
X141252142Y-89415228D02*
X141280714Y-89358085D01*
X141280714Y-89358085D02*
X141280714Y-88872371D01*
X141880713Y-89472371D02*
X141537856Y-89472371D01*
X141709285Y-89472371D02*
X141709285Y-88872371D01*
X141709285Y-88872371D02*
X141652142Y-88958085D01*
X141652142Y-88958085D02*
X141594999Y-89015228D01*
X141594999Y-89015228D02*
X141537856Y-89043800D01*
X126710228Y-77785714D02*
X126738800Y-77814286D01*
X126738800Y-77814286D02*
X126767371Y-77900000D01*
X126767371Y-77900000D02*
X126767371Y-77957143D01*
X126767371Y-77957143D02*
X126738800Y-78042857D01*
X126738800Y-78042857D02*
X126681657Y-78100000D01*
X126681657Y-78100000D02*
X126624514Y-78128571D01*
X126624514Y-78128571D02*
X126510228Y-78157143D01*
X126510228Y-78157143D02*
X126424514Y-78157143D01*
X126424514Y-78157143D02*
X126310228Y-78128571D01*
X126310228Y-78128571D02*
X126253085Y-78100000D01*
X126253085Y-78100000D02*
X126195942Y-78042857D01*
X126195942Y-78042857D02*
X126167371Y-77957143D01*
X126167371Y-77957143D02*
X126167371Y-77900000D01*
X126167371Y-77900000D02*
X126195942Y-77814286D01*
X126195942Y-77814286D02*
X126224514Y-77785714D01*
X126224514Y-77557143D02*
X126195942Y-77528571D01*
X126195942Y-77528571D02*
X126167371Y-77471429D01*
X126167371Y-77471429D02*
X126167371Y-77328571D01*
X126167371Y-77328571D02*
X126195942Y-77271429D01*
X126195942Y-77271429D02*
X126224514Y-77242857D01*
X126224514Y-77242857D02*
X126281657Y-77214286D01*
X126281657Y-77214286D02*
X126338800Y-77214286D01*
X126338800Y-77214286D02*
X126424514Y-77242857D01*
X126424514Y-77242857D02*
X126767371Y-77585714D01*
X126767371Y-77585714D02*
X126767371Y-77214286D01*
X126767371Y-76642857D02*
X126767371Y-76985714D01*
X126767371Y-76814285D02*
X126167371Y-76814285D01*
X126167371Y-76814285D02*
X126253085Y-76871428D01*
X126253085Y-76871428D02*
X126310228Y-76928571D01*
X126310228Y-76928571D02*
X126338800Y-76985714D01*
X133437857Y-69672371D02*
X133437857Y-70158085D01*
X133437857Y-70158085D02*
X133466428Y-70215228D01*
X133466428Y-70215228D02*
X133495000Y-70243800D01*
X133495000Y-70243800D02*
X133552142Y-70272371D01*
X133552142Y-70272371D02*
X133666428Y-70272371D01*
X133666428Y-70272371D02*
X133723571Y-70243800D01*
X133723571Y-70243800D02*
X133752142Y-70215228D01*
X133752142Y-70215228D02*
X133780714Y-70158085D01*
X133780714Y-70158085D02*
X133780714Y-69672371D01*
X134037856Y-69729514D02*
X134066428Y-69700942D01*
X134066428Y-69700942D02*
X134123571Y-69672371D01*
X134123571Y-69672371D02*
X134266428Y-69672371D01*
X134266428Y-69672371D02*
X134323571Y-69700942D01*
X134323571Y-69700942D02*
X134352142Y-69729514D01*
X134352142Y-69729514D02*
X134380713Y-69786657D01*
X134380713Y-69786657D02*
X134380713Y-69843800D01*
X134380713Y-69843800D02*
X134352142Y-69929514D01*
X134352142Y-69929514D02*
X134009285Y-70272371D01*
X134009285Y-70272371D02*
X134380713Y-70272371D01*
X137910228Y-71185714D02*
X137938800Y-71214286D01*
X137938800Y-71214286D02*
X137967371Y-71300000D01*
X137967371Y-71300000D02*
X137967371Y-71357143D01*
X137967371Y-71357143D02*
X137938800Y-71442857D01*
X137938800Y-71442857D02*
X137881657Y-71500000D01*
X137881657Y-71500000D02*
X137824514Y-71528571D01*
X137824514Y-71528571D02*
X137710228Y-71557143D01*
X137710228Y-71557143D02*
X137624514Y-71557143D01*
X137624514Y-71557143D02*
X137510228Y-71528571D01*
X137510228Y-71528571D02*
X137453085Y-71500000D01*
X137453085Y-71500000D02*
X137395942Y-71442857D01*
X137395942Y-71442857D02*
X137367371Y-71357143D01*
X137367371Y-71357143D02*
X137367371Y-71300000D01*
X137367371Y-71300000D02*
X137395942Y-71214286D01*
X137395942Y-71214286D02*
X137424514Y-71185714D01*
X137967371Y-70614286D02*
X137967371Y-70957143D01*
X137967371Y-70785714D02*
X137367371Y-70785714D01*
X137367371Y-70785714D02*
X137453085Y-70842857D01*
X137453085Y-70842857D02*
X137510228Y-70900000D01*
X137510228Y-70900000D02*
X137538800Y-70957143D01*
X137367371Y-70414285D02*
X137367371Y-70014285D01*
X137367371Y-70014285D02*
X137967371Y-70271428D01*
X144942857Y-73172371D02*
X144942857Y-73658085D01*
X144942857Y-73658085D02*
X144971428Y-73715228D01*
X144971428Y-73715228D02*
X145000000Y-73743800D01*
X145000000Y-73743800D02*
X145057142Y-73772371D01*
X145057142Y-73772371D02*
X145171428Y-73772371D01*
X145171428Y-73772371D02*
X145228571Y-73743800D01*
X145228571Y-73743800D02*
X145257142Y-73715228D01*
X145257142Y-73715228D02*
X145285714Y-73658085D01*
X145285714Y-73658085D02*
X145285714Y-73172371D01*
X145514285Y-73172371D02*
X145885713Y-73172371D01*
X145885713Y-73172371D02*
X145685713Y-73400942D01*
X145685713Y-73400942D02*
X145771428Y-73400942D01*
X145771428Y-73400942D02*
X145828571Y-73429514D01*
X145828571Y-73429514D02*
X145857142Y-73458085D01*
X145857142Y-73458085D02*
X145885713Y-73515228D01*
X145885713Y-73515228D02*
X145885713Y-73658085D01*
X145885713Y-73658085D02*
X145857142Y-73715228D01*
X145857142Y-73715228D02*
X145828571Y-73743800D01*
X145828571Y-73743800D02*
X145771428Y-73772371D01*
X145771428Y-73772371D02*
X145599999Y-73772371D01*
X145599999Y-73772371D02*
X145542856Y-73743800D01*
X145542856Y-73743800D02*
X145514285Y-73715228D01*
X128210228Y-69985714D02*
X128238800Y-70014286D01*
X128238800Y-70014286D02*
X128267371Y-70100000D01*
X128267371Y-70100000D02*
X128267371Y-70157143D01*
X128267371Y-70157143D02*
X128238800Y-70242857D01*
X128238800Y-70242857D02*
X128181657Y-70300000D01*
X128181657Y-70300000D02*
X128124514Y-70328571D01*
X128124514Y-70328571D02*
X128010228Y-70357143D01*
X128010228Y-70357143D02*
X127924514Y-70357143D01*
X127924514Y-70357143D02*
X127810228Y-70328571D01*
X127810228Y-70328571D02*
X127753085Y-70300000D01*
X127753085Y-70300000D02*
X127695942Y-70242857D01*
X127695942Y-70242857D02*
X127667371Y-70157143D01*
X127667371Y-70157143D02*
X127667371Y-70100000D01*
X127667371Y-70100000D02*
X127695942Y-70014286D01*
X127695942Y-70014286D02*
X127724514Y-69985714D01*
X128267371Y-69414286D02*
X128267371Y-69757143D01*
X128267371Y-69585714D02*
X127667371Y-69585714D01*
X127667371Y-69585714D02*
X127753085Y-69642857D01*
X127753085Y-69642857D02*
X127810228Y-69700000D01*
X127810228Y-69700000D02*
X127838800Y-69757143D01*
X127724514Y-69185714D02*
X127695942Y-69157142D01*
X127695942Y-69157142D02*
X127667371Y-69100000D01*
X127667371Y-69100000D02*
X127667371Y-68957142D01*
X127667371Y-68957142D02*
X127695942Y-68900000D01*
X127695942Y-68900000D02*
X127724514Y-68871428D01*
X127724514Y-68871428D02*
X127781657Y-68842857D01*
X127781657Y-68842857D02*
X127838800Y-68842857D01*
X127838800Y-68842857D02*
X127924514Y-68871428D01*
X127924514Y-68871428D02*
X128267371Y-69214285D01*
X128267371Y-69214285D02*
X128267371Y-68842857D01*
X125142857Y-80297371D02*
X125142857Y-80783085D01*
X125142857Y-80783085D02*
X125171428Y-80840228D01*
X125171428Y-80840228D02*
X125200000Y-80868800D01*
X125200000Y-80868800D02*
X125257142Y-80897371D01*
X125257142Y-80897371D02*
X125371428Y-80897371D01*
X125371428Y-80897371D02*
X125428571Y-80868800D01*
X125428571Y-80868800D02*
X125457142Y-80840228D01*
X125457142Y-80840228D02*
X125485714Y-80783085D01*
X125485714Y-80783085D02*
X125485714Y-80297371D01*
X126028571Y-80497371D02*
X126028571Y-80897371D01*
X125885713Y-80268800D02*
X125742856Y-80697371D01*
X125742856Y-80697371D02*
X126114285Y-80697371D01*
X143742857Y-94129514D02*
X143685714Y-94100942D01*
X143685714Y-94100942D02*
X143628571Y-94043800D01*
X143628571Y-94043800D02*
X143542857Y-93958085D01*
X143542857Y-93958085D02*
X143485714Y-93929514D01*
X143485714Y-93929514D02*
X143428571Y-93929514D01*
X143457142Y-94072371D02*
X143400000Y-94043800D01*
X143400000Y-94043800D02*
X143342857Y-93986657D01*
X143342857Y-93986657D02*
X143314285Y-93872371D01*
X143314285Y-93872371D02*
X143314285Y-93672371D01*
X143314285Y-93672371D02*
X143342857Y-93558085D01*
X143342857Y-93558085D02*
X143400000Y-93500942D01*
X143400000Y-93500942D02*
X143457142Y-93472371D01*
X143457142Y-93472371D02*
X143571428Y-93472371D01*
X143571428Y-93472371D02*
X143628571Y-93500942D01*
X143628571Y-93500942D02*
X143685714Y-93558085D01*
X143685714Y-93558085D02*
X143714285Y-93672371D01*
X143714285Y-93672371D02*
X143714285Y-93872371D01*
X143714285Y-93872371D02*
X143685714Y-93986657D01*
X143685714Y-93986657D02*
X143628571Y-94043800D01*
X143628571Y-94043800D02*
X143571428Y-94072371D01*
X143571428Y-94072371D02*
X143457142Y-94072371D01*
X143942856Y-93529514D02*
X143971428Y-93500942D01*
X143971428Y-93500942D02*
X144028571Y-93472371D01*
X144028571Y-93472371D02*
X144171428Y-93472371D01*
X144171428Y-93472371D02*
X144228571Y-93500942D01*
X144228571Y-93500942D02*
X144257142Y-93529514D01*
X144257142Y-93529514D02*
X144285713Y-93586657D01*
X144285713Y-93586657D02*
X144285713Y-93643800D01*
X144285713Y-93643800D02*
X144257142Y-93729514D01*
X144257142Y-93729514D02*
X143914285Y-94072371D01*
X143914285Y-94072371D02*
X144285713Y-94072371D01*
X130167371Y-91885714D02*
X129881657Y-92085714D01*
X130167371Y-92228571D02*
X129567371Y-92228571D01*
X129567371Y-92228571D02*
X129567371Y-92000000D01*
X129567371Y-92000000D02*
X129595942Y-91942857D01*
X129595942Y-91942857D02*
X129624514Y-91914286D01*
X129624514Y-91914286D02*
X129681657Y-91885714D01*
X129681657Y-91885714D02*
X129767371Y-91885714D01*
X129767371Y-91885714D02*
X129824514Y-91914286D01*
X129824514Y-91914286D02*
X129853085Y-91942857D01*
X129853085Y-91942857D02*
X129881657Y-92000000D01*
X129881657Y-92000000D02*
X129881657Y-92228571D01*
X130167371Y-91314286D02*
X130167371Y-91657143D01*
X130167371Y-91485714D02*
X129567371Y-91485714D01*
X129567371Y-91485714D02*
X129653085Y-91542857D01*
X129653085Y-91542857D02*
X129710228Y-91600000D01*
X129710228Y-91600000D02*
X129738800Y-91657143D01*
X129824514Y-90971428D02*
X129795942Y-91028571D01*
X129795942Y-91028571D02*
X129767371Y-91057142D01*
X129767371Y-91057142D02*
X129710228Y-91085714D01*
X129710228Y-91085714D02*
X129681657Y-91085714D01*
X129681657Y-91085714D02*
X129624514Y-91057142D01*
X129624514Y-91057142D02*
X129595942Y-91028571D01*
X129595942Y-91028571D02*
X129567371Y-90971428D01*
X129567371Y-90971428D02*
X129567371Y-90857142D01*
X129567371Y-90857142D02*
X129595942Y-90800000D01*
X129595942Y-90800000D02*
X129624514Y-90771428D01*
X129624514Y-90771428D02*
X129681657Y-90742857D01*
X129681657Y-90742857D02*
X129710228Y-90742857D01*
X129710228Y-90742857D02*
X129767371Y-90771428D01*
X129767371Y-90771428D02*
X129795942Y-90800000D01*
X129795942Y-90800000D02*
X129824514Y-90857142D01*
X129824514Y-90857142D02*
X129824514Y-90971428D01*
X129824514Y-90971428D02*
X129853085Y-91028571D01*
X129853085Y-91028571D02*
X129881657Y-91057142D01*
X129881657Y-91057142D02*
X129938800Y-91085714D01*
X129938800Y-91085714D02*
X130053085Y-91085714D01*
X130053085Y-91085714D02*
X130110228Y-91057142D01*
X130110228Y-91057142D02*
X130138800Y-91028571D01*
X130138800Y-91028571D02*
X130167371Y-90971428D01*
X130167371Y-90971428D02*
X130167371Y-90857142D01*
X130167371Y-90857142D02*
X130138800Y-90800000D01*
X130138800Y-90800000D02*
X130110228Y-90771428D01*
X130110228Y-90771428D02*
X130053085Y-90742857D01*
X130053085Y-90742857D02*
X129938800Y-90742857D01*
X129938800Y-90742857D02*
X129881657Y-90771428D01*
X129881657Y-90771428D02*
X129853085Y-90800000D01*
X129853085Y-90800000D02*
X129824514Y-90857142D01*
X149420228Y-73585714D02*
X149448800Y-73614286D01*
X149448800Y-73614286D02*
X149477371Y-73700000D01*
X149477371Y-73700000D02*
X149477371Y-73757143D01*
X149477371Y-73757143D02*
X149448800Y-73842857D01*
X149448800Y-73842857D02*
X149391657Y-73900000D01*
X149391657Y-73900000D02*
X149334514Y-73928571D01*
X149334514Y-73928571D02*
X149220228Y-73957143D01*
X149220228Y-73957143D02*
X149134514Y-73957143D01*
X149134514Y-73957143D02*
X149020228Y-73928571D01*
X149020228Y-73928571D02*
X148963085Y-73900000D01*
X148963085Y-73900000D02*
X148905942Y-73842857D01*
X148905942Y-73842857D02*
X148877371Y-73757143D01*
X148877371Y-73757143D02*
X148877371Y-73700000D01*
X148877371Y-73700000D02*
X148905942Y-73614286D01*
X148905942Y-73614286D02*
X148934514Y-73585714D01*
X148934514Y-73357143D02*
X148905942Y-73328571D01*
X148905942Y-73328571D02*
X148877371Y-73271429D01*
X148877371Y-73271429D02*
X148877371Y-73128571D01*
X148877371Y-73128571D02*
X148905942Y-73071429D01*
X148905942Y-73071429D02*
X148934514Y-73042857D01*
X148934514Y-73042857D02*
X148991657Y-73014286D01*
X148991657Y-73014286D02*
X149048800Y-73014286D01*
X149048800Y-73014286D02*
X149134514Y-73042857D01*
X149134514Y-73042857D02*
X149477371Y-73385714D01*
X149477371Y-73385714D02*
X149477371Y-73014286D01*
X148877371Y-72814285D02*
X148877371Y-72442857D01*
X148877371Y-72442857D02*
X149105942Y-72642857D01*
X149105942Y-72642857D02*
X149105942Y-72557142D01*
X149105942Y-72557142D02*
X149134514Y-72500000D01*
X149134514Y-72500000D02*
X149163085Y-72471428D01*
X149163085Y-72471428D02*
X149220228Y-72442857D01*
X149220228Y-72442857D02*
X149363085Y-72442857D01*
X149363085Y-72442857D02*
X149420228Y-72471428D01*
X149420228Y-72471428D02*
X149448800Y-72500000D01*
X149448800Y-72500000D02*
X149477371Y-72557142D01*
X149477371Y-72557142D02*
X149477371Y-72728571D01*
X149477371Y-72728571D02*
X149448800Y-72785714D01*
X149448800Y-72785714D02*
X149420228Y-72814285D01*
X136572371Y-80814285D02*
X136286657Y-81014285D01*
X136572371Y-81157142D02*
X135972371Y-81157142D01*
X135972371Y-81157142D02*
X135972371Y-80928571D01*
X135972371Y-80928571D02*
X136000942Y-80871428D01*
X136000942Y-80871428D02*
X136029514Y-80842857D01*
X136029514Y-80842857D02*
X136086657Y-80814285D01*
X136086657Y-80814285D02*
X136172371Y-80814285D01*
X136172371Y-80814285D02*
X136229514Y-80842857D01*
X136229514Y-80842857D02*
X136258085Y-80871428D01*
X136258085Y-80871428D02*
X136286657Y-80928571D01*
X136286657Y-80928571D02*
X136286657Y-81157142D01*
X136572371Y-80557142D02*
X135972371Y-80557142D01*
X135972371Y-80557142D02*
X136572371Y-80214285D01*
X136572371Y-80214285D02*
X135972371Y-80214285D01*
X135972371Y-79985714D02*
X135972371Y-79614286D01*
X135972371Y-79614286D02*
X136200942Y-79814286D01*
X136200942Y-79814286D02*
X136200942Y-79728571D01*
X136200942Y-79728571D02*
X136229514Y-79671429D01*
X136229514Y-79671429D02*
X136258085Y-79642857D01*
X136258085Y-79642857D02*
X136315228Y-79614286D01*
X136315228Y-79614286D02*
X136458085Y-79614286D01*
X136458085Y-79614286D02*
X136515228Y-79642857D01*
X136515228Y-79642857D02*
X136543800Y-79671429D01*
X136543800Y-79671429D02*
X136572371Y-79728571D01*
X136572371Y-79728571D02*
X136572371Y-79900000D01*
X136572371Y-79900000D02*
X136543800Y-79957143D01*
X136543800Y-79957143D02*
X136515228Y-79985714D01*
X154057143Y-86372371D02*
X154057143Y-85772371D01*
X154057143Y-85772371D02*
X154200000Y-85772371D01*
X154200000Y-85772371D02*
X154285714Y-85800942D01*
X154285714Y-85800942D02*
X154342857Y-85858085D01*
X154342857Y-85858085D02*
X154371428Y-85915228D01*
X154371428Y-85915228D02*
X154400000Y-86029514D01*
X154400000Y-86029514D02*
X154400000Y-86115228D01*
X154400000Y-86115228D02*
X154371428Y-86229514D01*
X154371428Y-86229514D02*
X154342857Y-86286657D01*
X154342857Y-86286657D02*
X154285714Y-86343800D01*
X154285714Y-86343800D02*
X154200000Y-86372371D01*
X154200000Y-86372371D02*
X154057143Y-86372371D01*
X154628571Y-85829514D02*
X154657143Y-85800942D01*
X154657143Y-85800942D02*
X154714286Y-85772371D01*
X154714286Y-85772371D02*
X154857143Y-85772371D01*
X154857143Y-85772371D02*
X154914286Y-85800942D01*
X154914286Y-85800942D02*
X154942857Y-85829514D01*
X154942857Y-85829514D02*
X154971428Y-85886657D01*
X154971428Y-85886657D02*
X154971428Y-85943800D01*
X154971428Y-85943800D02*
X154942857Y-86029514D01*
X154942857Y-86029514D02*
X154600000Y-86372371D01*
X154600000Y-86372371D02*
X154971428Y-86372371D01*
X143842857Y-109529514D02*
X143785714Y-109500942D01*
X143785714Y-109500942D02*
X143728571Y-109443800D01*
X143728571Y-109443800D02*
X143642857Y-109358085D01*
X143642857Y-109358085D02*
X143585714Y-109329514D01*
X143585714Y-109329514D02*
X143528571Y-109329514D01*
X143557142Y-109472371D02*
X143500000Y-109443800D01*
X143500000Y-109443800D02*
X143442857Y-109386657D01*
X143442857Y-109386657D02*
X143414285Y-109272371D01*
X143414285Y-109272371D02*
X143414285Y-109072371D01*
X143414285Y-109072371D02*
X143442857Y-108958085D01*
X143442857Y-108958085D02*
X143500000Y-108900942D01*
X143500000Y-108900942D02*
X143557142Y-108872371D01*
X143557142Y-108872371D02*
X143671428Y-108872371D01*
X143671428Y-108872371D02*
X143728571Y-108900942D01*
X143728571Y-108900942D02*
X143785714Y-108958085D01*
X143785714Y-108958085D02*
X143814285Y-109072371D01*
X143814285Y-109072371D02*
X143814285Y-109272371D01*
X143814285Y-109272371D02*
X143785714Y-109386657D01*
X143785714Y-109386657D02*
X143728571Y-109443800D01*
X143728571Y-109443800D02*
X143671428Y-109472371D01*
X143671428Y-109472371D02*
X143557142Y-109472371D01*
X144385713Y-109472371D02*
X144042856Y-109472371D01*
X144214285Y-109472371D02*
X144214285Y-108872371D01*
X144214285Y-108872371D02*
X144157142Y-108958085D01*
X144157142Y-108958085D02*
X144099999Y-109015228D01*
X144099999Y-109015228D02*
X144042856Y-109043800D01*
X146315228Y-82485714D02*
X146343800Y-82514286D01*
X146343800Y-82514286D02*
X146372371Y-82600000D01*
X146372371Y-82600000D02*
X146372371Y-82657143D01*
X146372371Y-82657143D02*
X146343800Y-82742857D01*
X146343800Y-82742857D02*
X146286657Y-82800000D01*
X146286657Y-82800000D02*
X146229514Y-82828571D01*
X146229514Y-82828571D02*
X146115228Y-82857143D01*
X146115228Y-82857143D02*
X146029514Y-82857143D01*
X146029514Y-82857143D02*
X145915228Y-82828571D01*
X145915228Y-82828571D02*
X145858085Y-82800000D01*
X145858085Y-82800000D02*
X145800942Y-82742857D01*
X145800942Y-82742857D02*
X145772371Y-82657143D01*
X145772371Y-82657143D02*
X145772371Y-82600000D01*
X145772371Y-82600000D02*
X145800942Y-82514286D01*
X145800942Y-82514286D02*
X145829514Y-82485714D01*
X146372371Y-81914286D02*
X146372371Y-82257143D01*
X146372371Y-82085714D02*
X145772371Y-82085714D01*
X145772371Y-82085714D02*
X145858085Y-82142857D01*
X145858085Y-82142857D02*
X145915228Y-82200000D01*
X145915228Y-82200000D02*
X145943800Y-82257143D01*
X145972371Y-81400000D02*
X146372371Y-81400000D01*
X145743800Y-81542857D02*
X146172371Y-81685714D01*
X146172371Y-81685714D02*
X146172371Y-81314285D01*
X125967371Y-91885714D02*
X125681657Y-92085714D01*
X125967371Y-92228571D02*
X125367371Y-92228571D01*
X125367371Y-92228571D02*
X125367371Y-92000000D01*
X125367371Y-92000000D02*
X125395942Y-91942857D01*
X125395942Y-91942857D02*
X125424514Y-91914286D01*
X125424514Y-91914286D02*
X125481657Y-91885714D01*
X125481657Y-91885714D02*
X125567371Y-91885714D01*
X125567371Y-91885714D02*
X125624514Y-91914286D01*
X125624514Y-91914286D02*
X125653085Y-91942857D01*
X125653085Y-91942857D02*
X125681657Y-92000000D01*
X125681657Y-92000000D02*
X125681657Y-92228571D01*
X125967371Y-91314286D02*
X125967371Y-91657143D01*
X125967371Y-91485714D02*
X125367371Y-91485714D01*
X125367371Y-91485714D02*
X125453085Y-91542857D01*
X125453085Y-91542857D02*
X125510228Y-91600000D01*
X125510228Y-91600000D02*
X125538800Y-91657143D01*
X125367371Y-91114285D02*
X125367371Y-90714285D01*
X125367371Y-90714285D02*
X125967371Y-90971428D01*
X138700000Y-70972371D02*
X138500000Y-70686657D01*
X138357143Y-70972371D02*
X138357143Y-70372371D01*
X138357143Y-70372371D02*
X138585714Y-70372371D01*
X138585714Y-70372371D02*
X138642857Y-70400942D01*
X138642857Y-70400942D02*
X138671428Y-70429514D01*
X138671428Y-70429514D02*
X138700000Y-70486657D01*
X138700000Y-70486657D02*
X138700000Y-70572371D01*
X138700000Y-70572371D02*
X138671428Y-70629514D01*
X138671428Y-70629514D02*
X138642857Y-70658085D01*
X138642857Y-70658085D02*
X138585714Y-70686657D01*
X138585714Y-70686657D02*
X138357143Y-70686657D01*
X139242857Y-70372371D02*
X138957143Y-70372371D01*
X138957143Y-70372371D02*
X138928571Y-70658085D01*
X138928571Y-70658085D02*
X138957143Y-70629514D01*
X138957143Y-70629514D02*
X139014286Y-70600942D01*
X139014286Y-70600942D02*
X139157143Y-70600942D01*
X139157143Y-70600942D02*
X139214286Y-70629514D01*
X139214286Y-70629514D02*
X139242857Y-70658085D01*
X139242857Y-70658085D02*
X139271428Y-70715228D01*
X139271428Y-70715228D02*
X139271428Y-70858085D01*
X139271428Y-70858085D02*
X139242857Y-70915228D01*
X139242857Y-70915228D02*
X139214286Y-70943800D01*
X139214286Y-70943800D02*
X139157143Y-70972371D01*
X139157143Y-70972371D02*
X139014286Y-70972371D01*
X139014286Y-70972371D02*
X138957143Y-70943800D01*
X138957143Y-70943800D02*
X138928571Y-70915228D01*
X150572371Y-72585714D02*
X150286657Y-72785714D01*
X150572371Y-72928571D02*
X149972371Y-72928571D01*
X149972371Y-72928571D02*
X149972371Y-72700000D01*
X149972371Y-72700000D02*
X150000942Y-72642857D01*
X150000942Y-72642857D02*
X150029514Y-72614286D01*
X150029514Y-72614286D02*
X150086657Y-72585714D01*
X150086657Y-72585714D02*
X150172371Y-72585714D01*
X150172371Y-72585714D02*
X150229514Y-72614286D01*
X150229514Y-72614286D02*
X150258085Y-72642857D01*
X150258085Y-72642857D02*
X150286657Y-72700000D01*
X150286657Y-72700000D02*
X150286657Y-72928571D01*
X150572371Y-72014286D02*
X150572371Y-72357143D01*
X150572371Y-72185714D02*
X149972371Y-72185714D01*
X149972371Y-72185714D02*
X150058085Y-72242857D01*
X150058085Y-72242857D02*
X150115228Y-72300000D01*
X150115228Y-72300000D02*
X150143800Y-72357143D01*
X150172371Y-71500000D02*
X150572371Y-71500000D01*
X149943800Y-71642857D02*
X150372371Y-71785714D01*
X150372371Y-71785714D02*
X150372371Y-71414285D01*
X141700000Y-81872371D02*
X141414286Y-81872371D01*
X141414286Y-81872371D02*
X141414286Y-81272371D01*
X141871428Y-81329514D02*
X141900000Y-81300942D01*
X141900000Y-81300942D02*
X141957143Y-81272371D01*
X141957143Y-81272371D02*
X142100000Y-81272371D01*
X142100000Y-81272371D02*
X142157143Y-81300942D01*
X142157143Y-81300942D02*
X142185714Y-81329514D01*
X142185714Y-81329514D02*
X142214285Y-81386657D01*
X142214285Y-81386657D02*
X142214285Y-81443800D01*
X142214285Y-81443800D02*
X142185714Y-81529514D01*
X142185714Y-81529514D02*
X141842857Y-81872371D01*
X141842857Y-81872371D02*
X142214285Y-81872371D01*
X143815228Y-73685714D02*
X143843800Y-73714286D01*
X143843800Y-73714286D02*
X143872371Y-73800000D01*
X143872371Y-73800000D02*
X143872371Y-73857143D01*
X143872371Y-73857143D02*
X143843800Y-73942857D01*
X143843800Y-73942857D02*
X143786657Y-74000000D01*
X143786657Y-74000000D02*
X143729514Y-74028571D01*
X143729514Y-74028571D02*
X143615228Y-74057143D01*
X143615228Y-74057143D02*
X143529514Y-74057143D01*
X143529514Y-74057143D02*
X143415228Y-74028571D01*
X143415228Y-74028571D02*
X143358085Y-74000000D01*
X143358085Y-74000000D02*
X143300942Y-73942857D01*
X143300942Y-73942857D02*
X143272371Y-73857143D01*
X143272371Y-73857143D02*
X143272371Y-73800000D01*
X143272371Y-73800000D02*
X143300942Y-73714286D01*
X143300942Y-73714286D02*
X143329514Y-73685714D01*
X143329514Y-73457143D02*
X143300942Y-73428571D01*
X143300942Y-73428571D02*
X143272371Y-73371429D01*
X143272371Y-73371429D02*
X143272371Y-73228571D01*
X143272371Y-73228571D02*
X143300942Y-73171429D01*
X143300942Y-73171429D02*
X143329514Y-73142857D01*
X143329514Y-73142857D02*
X143386657Y-73114286D01*
X143386657Y-73114286D02*
X143443800Y-73114286D01*
X143443800Y-73114286D02*
X143529514Y-73142857D01*
X143529514Y-73142857D02*
X143872371Y-73485714D01*
X143872371Y-73485714D02*
X143872371Y-73114286D01*
X143472371Y-72600000D02*
X143872371Y-72600000D01*
X143243800Y-72742857D02*
X143672371Y-72885714D01*
X143672371Y-72885714D02*
X143672371Y-72514285D01*
X154300000Y-94415228D02*
X154271428Y-94443800D01*
X154271428Y-94443800D02*
X154185714Y-94472371D01*
X154185714Y-94472371D02*
X154128571Y-94472371D01*
X154128571Y-94472371D02*
X154042857Y-94443800D01*
X154042857Y-94443800D02*
X153985714Y-94386657D01*
X153985714Y-94386657D02*
X153957143Y-94329514D01*
X153957143Y-94329514D02*
X153928571Y-94215228D01*
X153928571Y-94215228D02*
X153928571Y-94129514D01*
X153928571Y-94129514D02*
X153957143Y-94015228D01*
X153957143Y-94015228D02*
X153985714Y-93958085D01*
X153985714Y-93958085D02*
X154042857Y-93900942D01*
X154042857Y-93900942D02*
X154128571Y-93872371D01*
X154128571Y-93872371D02*
X154185714Y-93872371D01*
X154185714Y-93872371D02*
X154271428Y-93900942D01*
X154271428Y-93900942D02*
X154300000Y-93929514D01*
X154871428Y-94472371D02*
X154528571Y-94472371D01*
X154700000Y-94472371D02*
X154700000Y-93872371D01*
X154700000Y-93872371D02*
X154642857Y-93958085D01*
X154642857Y-93958085D02*
X154585714Y-94015228D01*
X154585714Y-94015228D02*
X154528571Y-94043800D01*
X144785714Y-81272371D02*
X144585714Y-80986657D01*
X144442857Y-81272371D02*
X144442857Y-80672371D01*
X144442857Y-80672371D02*
X144671428Y-80672371D01*
X144671428Y-80672371D02*
X144728571Y-80700942D01*
X144728571Y-80700942D02*
X144757142Y-80729514D01*
X144757142Y-80729514D02*
X144785714Y-80786657D01*
X144785714Y-80786657D02*
X144785714Y-80872371D01*
X144785714Y-80872371D02*
X144757142Y-80929514D01*
X144757142Y-80929514D02*
X144728571Y-80958085D01*
X144728571Y-80958085D02*
X144671428Y-80986657D01*
X144671428Y-80986657D02*
X144442857Y-80986657D01*
X145042857Y-81272371D02*
X145042857Y-80672371D01*
X145042857Y-80672371D02*
X145385714Y-81272371D01*
X145385714Y-81272371D02*
X145385714Y-80672371D01*
X145985713Y-81272371D02*
X145642856Y-81272371D01*
X145814285Y-81272371D02*
X145814285Y-80672371D01*
X145814285Y-80672371D02*
X145757142Y-80758085D01*
X145757142Y-80758085D02*
X145699999Y-80815228D01*
X145699999Y-80815228D02*
X145642856Y-80843800D01*
X150615228Y-70285714D02*
X150643800Y-70314286D01*
X150643800Y-70314286D02*
X150672371Y-70400000D01*
X150672371Y-70400000D02*
X150672371Y-70457143D01*
X150672371Y-70457143D02*
X150643800Y-70542857D01*
X150643800Y-70542857D02*
X150586657Y-70600000D01*
X150586657Y-70600000D02*
X150529514Y-70628571D01*
X150529514Y-70628571D02*
X150415228Y-70657143D01*
X150415228Y-70657143D02*
X150329514Y-70657143D01*
X150329514Y-70657143D02*
X150215228Y-70628571D01*
X150215228Y-70628571D02*
X150158085Y-70600000D01*
X150158085Y-70600000D02*
X150100942Y-70542857D01*
X150100942Y-70542857D02*
X150072371Y-70457143D01*
X150072371Y-70457143D02*
X150072371Y-70400000D01*
X150072371Y-70400000D02*
X150100942Y-70314286D01*
X150100942Y-70314286D02*
X150129514Y-70285714D01*
X150129514Y-70057143D02*
X150100942Y-70028571D01*
X150100942Y-70028571D02*
X150072371Y-69971429D01*
X150072371Y-69971429D02*
X150072371Y-69828571D01*
X150072371Y-69828571D02*
X150100942Y-69771429D01*
X150100942Y-69771429D02*
X150129514Y-69742857D01*
X150129514Y-69742857D02*
X150186657Y-69714286D01*
X150186657Y-69714286D02*
X150243800Y-69714286D01*
X150243800Y-69714286D02*
X150329514Y-69742857D01*
X150329514Y-69742857D02*
X150672371Y-70085714D01*
X150672371Y-70085714D02*
X150672371Y-69714286D01*
X150129514Y-69485714D02*
X150100942Y-69457142D01*
X150100942Y-69457142D02*
X150072371Y-69400000D01*
X150072371Y-69400000D02*
X150072371Y-69257142D01*
X150072371Y-69257142D02*
X150100942Y-69200000D01*
X150100942Y-69200000D02*
X150129514Y-69171428D01*
X150129514Y-69171428D02*
X150186657Y-69142857D01*
X150186657Y-69142857D02*
X150243800Y-69142857D01*
X150243800Y-69142857D02*
X150329514Y-69171428D01*
X150329514Y-69171428D02*
X150672371Y-69514285D01*
X150672371Y-69514285D02*
X150672371Y-69142857D01*
X146975000Y-88015228D02*
X146946428Y-88043800D01*
X146946428Y-88043800D02*
X146860714Y-88072371D01*
X146860714Y-88072371D02*
X146803571Y-88072371D01*
X146803571Y-88072371D02*
X146717857Y-88043800D01*
X146717857Y-88043800D02*
X146660714Y-87986657D01*
X146660714Y-87986657D02*
X146632143Y-87929514D01*
X146632143Y-87929514D02*
X146603571Y-87815228D01*
X146603571Y-87815228D02*
X146603571Y-87729514D01*
X146603571Y-87729514D02*
X146632143Y-87615228D01*
X146632143Y-87615228D02*
X146660714Y-87558085D01*
X146660714Y-87558085D02*
X146717857Y-87500942D01*
X146717857Y-87500942D02*
X146803571Y-87472371D01*
X146803571Y-87472371D02*
X146860714Y-87472371D01*
X146860714Y-87472371D02*
X146946428Y-87500942D01*
X146946428Y-87500942D02*
X146975000Y-87529514D01*
X147203571Y-87529514D02*
X147232143Y-87500942D01*
X147232143Y-87500942D02*
X147289286Y-87472371D01*
X147289286Y-87472371D02*
X147432143Y-87472371D01*
X147432143Y-87472371D02*
X147489286Y-87500942D01*
X147489286Y-87500942D02*
X147517857Y-87529514D01*
X147517857Y-87529514D02*
X147546428Y-87586657D01*
X147546428Y-87586657D02*
X147546428Y-87643800D01*
X147546428Y-87643800D02*
X147517857Y-87729514D01*
X147517857Y-87729514D02*
X147175000Y-88072371D01*
X147175000Y-88072371D02*
X147546428Y-88072371D01*
X147672371Y-70242856D02*
X147072371Y-70242856D01*
X147072371Y-70242856D02*
X147072371Y-70099999D01*
X147072371Y-70099999D02*
X147100942Y-70014285D01*
X147100942Y-70014285D02*
X147158085Y-69957142D01*
X147158085Y-69957142D02*
X147215228Y-69928571D01*
X147215228Y-69928571D02*
X147329514Y-69899999D01*
X147329514Y-69899999D02*
X147415228Y-69899999D01*
X147415228Y-69899999D02*
X147529514Y-69928571D01*
X147529514Y-69928571D02*
X147586657Y-69957142D01*
X147586657Y-69957142D02*
X147643800Y-70014285D01*
X147643800Y-70014285D02*
X147672371Y-70099999D01*
X147672371Y-70099999D02*
X147672371Y-70242856D01*
X147072371Y-69357142D02*
X147072371Y-69642856D01*
X147072371Y-69642856D02*
X147358085Y-69671428D01*
X147358085Y-69671428D02*
X147329514Y-69642856D01*
X147329514Y-69642856D02*
X147300942Y-69585714D01*
X147300942Y-69585714D02*
X147300942Y-69442856D01*
X147300942Y-69442856D02*
X147329514Y-69385714D01*
X147329514Y-69385714D02*
X147358085Y-69357142D01*
X147358085Y-69357142D02*
X147415228Y-69328571D01*
X147415228Y-69328571D02*
X147558085Y-69328571D01*
X147558085Y-69328571D02*
X147615228Y-69357142D01*
X147615228Y-69357142D02*
X147643800Y-69385714D01*
X147643800Y-69385714D02*
X147672371Y-69442856D01*
X147672371Y-69442856D02*
X147672371Y-69585714D01*
X147672371Y-69585714D02*
X147643800Y-69642856D01*
X147643800Y-69642856D02*
X147615228Y-69671428D01*
X154044643Y-79572371D02*
X154044643Y-78972371D01*
X154044643Y-78972371D02*
X154187500Y-78972371D01*
X154187500Y-78972371D02*
X154273214Y-79000942D01*
X154273214Y-79000942D02*
X154330357Y-79058085D01*
X154330357Y-79058085D02*
X154358928Y-79115228D01*
X154358928Y-79115228D02*
X154387500Y-79229514D01*
X154387500Y-79229514D02*
X154387500Y-79315228D01*
X154387500Y-79315228D02*
X154358928Y-79429514D01*
X154358928Y-79429514D02*
X154330357Y-79486657D01*
X154330357Y-79486657D02*
X154273214Y-79543800D01*
X154273214Y-79543800D02*
X154187500Y-79572371D01*
X154187500Y-79572371D02*
X154044643Y-79572371D01*
X154901786Y-78972371D02*
X154787500Y-78972371D01*
X154787500Y-78972371D02*
X154730357Y-79000942D01*
X154730357Y-79000942D02*
X154701786Y-79029514D01*
X154701786Y-79029514D02*
X154644643Y-79115228D01*
X154644643Y-79115228D02*
X154616071Y-79229514D01*
X154616071Y-79229514D02*
X154616071Y-79458085D01*
X154616071Y-79458085D02*
X154644643Y-79515228D01*
X154644643Y-79515228D02*
X154673214Y-79543800D01*
X154673214Y-79543800D02*
X154730357Y-79572371D01*
X154730357Y-79572371D02*
X154844643Y-79572371D01*
X154844643Y-79572371D02*
X154901786Y-79543800D01*
X154901786Y-79543800D02*
X154930357Y-79515228D01*
X154930357Y-79515228D02*
X154958928Y-79458085D01*
X154958928Y-79458085D02*
X154958928Y-79315228D01*
X154958928Y-79315228D02*
X154930357Y-79258085D01*
X154930357Y-79258085D02*
X154901786Y-79229514D01*
X154901786Y-79229514D02*
X154844643Y-79200942D01*
X154844643Y-79200942D02*
X154730357Y-79200942D01*
X154730357Y-79200942D02*
X154673214Y-79229514D01*
X154673214Y-79229514D02*
X154644643Y-79258085D01*
X154644643Y-79258085D02*
X154616071Y-79315228D01*
X122372371Y-91885714D02*
X122086657Y-92085714D01*
X122372371Y-92228571D02*
X121772371Y-92228571D01*
X121772371Y-92228571D02*
X121772371Y-92000000D01*
X121772371Y-92000000D02*
X121800942Y-91942857D01*
X121800942Y-91942857D02*
X121829514Y-91914286D01*
X121829514Y-91914286D02*
X121886657Y-91885714D01*
X121886657Y-91885714D02*
X121972371Y-91885714D01*
X121972371Y-91885714D02*
X122029514Y-91914286D01*
X122029514Y-91914286D02*
X122058085Y-91942857D01*
X122058085Y-91942857D02*
X122086657Y-92000000D01*
X122086657Y-92000000D02*
X122086657Y-92228571D01*
X121829514Y-91657143D02*
X121800942Y-91628571D01*
X121800942Y-91628571D02*
X121772371Y-91571429D01*
X121772371Y-91571429D02*
X121772371Y-91428571D01*
X121772371Y-91428571D02*
X121800942Y-91371429D01*
X121800942Y-91371429D02*
X121829514Y-91342857D01*
X121829514Y-91342857D02*
X121886657Y-91314286D01*
X121886657Y-91314286D02*
X121943800Y-91314286D01*
X121943800Y-91314286D02*
X122029514Y-91342857D01*
X122029514Y-91342857D02*
X122372371Y-91685714D01*
X122372371Y-91685714D02*
X122372371Y-91314286D01*
X122372371Y-90742857D02*
X122372371Y-91085714D01*
X122372371Y-90914285D02*
X121772371Y-90914285D01*
X121772371Y-90914285D02*
X121858085Y-90971428D01*
X121858085Y-90971428D02*
X121915228Y-91028571D01*
X121915228Y-91028571D02*
X121943800Y-91085714D01*
X137972371Y-89585714D02*
X137686657Y-89785714D01*
X137972371Y-89928571D02*
X137372371Y-89928571D01*
X137372371Y-89928571D02*
X137372371Y-89700000D01*
X137372371Y-89700000D02*
X137400942Y-89642857D01*
X137400942Y-89642857D02*
X137429514Y-89614286D01*
X137429514Y-89614286D02*
X137486657Y-89585714D01*
X137486657Y-89585714D02*
X137572371Y-89585714D01*
X137572371Y-89585714D02*
X137629514Y-89614286D01*
X137629514Y-89614286D02*
X137658085Y-89642857D01*
X137658085Y-89642857D02*
X137686657Y-89700000D01*
X137686657Y-89700000D02*
X137686657Y-89928571D01*
X137972371Y-89014286D02*
X137972371Y-89357143D01*
X137972371Y-89185714D02*
X137372371Y-89185714D01*
X137372371Y-89185714D02*
X137458085Y-89242857D01*
X137458085Y-89242857D02*
X137515228Y-89300000D01*
X137515228Y-89300000D02*
X137543800Y-89357143D01*
X137429514Y-88785714D02*
X137400942Y-88757142D01*
X137400942Y-88757142D02*
X137372371Y-88700000D01*
X137372371Y-88700000D02*
X137372371Y-88557142D01*
X137372371Y-88557142D02*
X137400942Y-88500000D01*
X137400942Y-88500000D02*
X137429514Y-88471428D01*
X137429514Y-88471428D02*
X137486657Y-88442857D01*
X137486657Y-88442857D02*
X137543800Y-88442857D01*
X137543800Y-88442857D02*
X137629514Y-88471428D01*
X137629514Y-88471428D02*
X137972371Y-88814285D01*
X137972371Y-88814285D02*
X137972371Y-88442857D01*
X138015228Y-83485714D02*
X138043800Y-83514286D01*
X138043800Y-83514286D02*
X138072371Y-83600000D01*
X138072371Y-83600000D02*
X138072371Y-83657143D01*
X138072371Y-83657143D02*
X138043800Y-83742857D01*
X138043800Y-83742857D02*
X137986657Y-83800000D01*
X137986657Y-83800000D02*
X137929514Y-83828571D01*
X137929514Y-83828571D02*
X137815228Y-83857143D01*
X137815228Y-83857143D02*
X137729514Y-83857143D01*
X137729514Y-83857143D02*
X137615228Y-83828571D01*
X137615228Y-83828571D02*
X137558085Y-83800000D01*
X137558085Y-83800000D02*
X137500942Y-83742857D01*
X137500942Y-83742857D02*
X137472371Y-83657143D01*
X137472371Y-83657143D02*
X137472371Y-83600000D01*
X137472371Y-83600000D02*
X137500942Y-83514286D01*
X137500942Y-83514286D02*
X137529514Y-83485714D01*
X138072371Y-82914286D02*
X138072371Y-83257143D01*
X138072371Y-83085714D02*
X137472371Y-83085714D01*
X137472371Y-83085714D02*
X137558085Y-83142857D01*
X137558085Y-83142857D02*
X137615228Y-83200000D01*
X137615228Y-83200000D02*
X137643800Y-83257143D01*
X138072371Y-82342857D02*
X138072371Y-82685714D01*
X138072371Y-82514285D02*
X137472371Y-82514285D01*
X137472371Y-82514285D02*
X137558085Y-82571428D01*
X137558085Y-82571428D02*
X137615228Y-82628571D01*
X137615228Y-82628571D02*
X137643800Y-82685714D01*
X153372371Y-70185714D02*
X153086657Y-70385714D01*
X153372371Y-70528571D02*
X152772371Y-70528571D01*
X152772371Y-70528571D02*
X152772371Y-70300000D01*
X152772371Y-70300000D02*
X152800942Y-70242857D01*
X152800942Y-70242857D02*
X152829514Y-70214286D01*
X152829514Y-70214286D02*
X152886657Y-70185714D01*
X152886657Y-70185714D02*
X152972371Y-70185714D01*
X152972371Y-70185714D02*
X153029514Y-70214286D01*
X153029514Y-70214286D02*
X153058085Y-70242857D01*
X153058085Y-70242857D02*
X153086657Y-70300000D01*
X153086657Y-70300000D02*
X153086657Y-70528571D01*
X152829514Y-69957143D02*
X152800942Y-69928571D01*
X152800942Y-69928571D02*
X152772371Y-69871429D01*
X152772371Y-69871429D02*
X152772371Y-69728571D01*
X152772371Y-69728571D02*
X152800942Y-69671429D01*
X152800942Y-69671429D02*
X152829514Y-69642857D01*
X152829514Y-69642857D02*
X152886657Y-69614286D01*
X152886657Y-69614286D02*
X152943800Y-69614286D01*
X152943800Y-69614286D02*
X153029514Y-69642857D01*
X153029514Y-69642857D02*
X153372371Y-69985714D01*
X153372371Y-69985714D02*
X153372371Y-69614286D01*
X152829514Y-69385714D02*
X152800942Y-69357142D01*
X152800942Y-69357142D02*
X152772371Y-69300000D01*
X152772371Y-69300000D02*
X152772371Y-69157142D01*
X152772371Y-69157142D02*
X152800942Y-69100000D01*
X152800942Y-69100000D02*
X152829514Y-69071428D01*
X152829514Y-69071428D02*
X152886657Y-69042857D01*
X152886657Y-69042857D02*
X152943800Y-69042857D01*
X152943800Y-69042857D02*
X153029514Y-69071428D01*
X153029514Y-69071428D02*
X153372371Y-69414285D01*
X153372371Y-69414285D02*
X153372371Y-69042857D01*
X138142857Y-109529514D02*
X138085714Y-109500942D01*
X138085714Y-109500942D02*
X138028571Y-109443800D01*
X138028571Y-109443800D02*
X137942857Y-109358085D01*
X137942857Y-109358085D02*
X137885714Y-109329514D01*
X137885714Y-109329514D02*
X137828571Y-109329514D01*
X137857142Y-109472371D02*
X137800000Y-109443800D01*
X137800000Y-109443800D02*
X137742857Y-109386657D01*
X137742857Y-109386657D02*
X137714285Y-109272371D01*
X137714285Y-109272371D02*
X137714285Y-109072371D01*
X137714285Y-109072371D02*
X137742857Y-108958085D01*
X137742857Y-108958085D02*
X137800000Y-108900942D01*
X137800000Y-108900942D02*
X137857142Y-108872371D01*
X137857142Y-108872371D02*
X137971428Y-108872371D01*
X137971428Y-108872371D02*
X138028571Y-108900942D01*
X138028571Y-108900942D02*
X138085714Y-108958085D01*
X138085714Y-108958085D02*
X138114285Y-109072371D01*
X138114285Y-109072371D02*
X138114285Y-109272371D01*
X138114285Y-109272371D02*
X138085714Y-109386657D01*
X138085714Y-109386657D02*
X138028571Y-109443800D01*
X138028571Y-109443800D02*
X137971428Y-109472371D01*
X137971428Y-109472371D02*
X137857142Y-109472371D01*
X138314285Y-108872371D02*
X138685713Y-108872371D01*
X138685713Y-108872371D02*
X138485713Y-109100942D01*
X138485713Y-109100942D02*
X138571428Y-109100942D01*
X138571428Y-109100942D02*
X138628571Y-109129514D01*
X138628571Y-109129514D02*
X138657142Y-109158085D01*
X138657142Y-109158085D02*
X138685713Y-109215228D01*
X138685713Y-109215228D02*
X138685713Y-109358085D01*
X138685713Y-109358085D02*
X138657142Y-109415228D01*
X138657142Y-109415228D02*
X138628571Y-109443800D01*
X138628571Y-109443800D02*
X138571428Y-109472371D01*
X138571428Y-109472371D02*
X138399999Y-109472371D01*
X138399999Y-109472371D02*
X138342856Y-109443800D01*
X138342856Y-109443800D02*
X138314285Y-109415228D01*
X154057143Y-88072371D02*
X154057143Y-87472371D01*
X154057143Y-87472371D02*
X154200000Y-87472371D01*
X154200000Y-87472371D02*
X154285714Y-87500942D01*
X154285714Y-87500942D02*
X154342857Y-87558085D01*
X154342857Y-87558085D02*
X154371428Y-87615228D01*
X154371428Y-87615228D02*
X154400000Y-87729514D01*
X154400000Y-87729514D02*
X154400000Y-87815228D01*
X154400000Y-87815228D02*
X154371428Y-87929514D01*
X154371428Y-87929514D02*
X154342857Y-87986657D01*
X154342857Y-87986657D02*
X154285714Y-88043800D01*
X154285714Y-88043800D02*
X154200000Y-88072371D01*
X154200000Y-88072371D02*
X154057143Y-88072371D01*
X154971428Y-88072371D02*
X154628571Y-88072371D01*
X154800000Y-88072371D02*
X154800000Y-87472371D01*
X154800000Y-87472371D02*
X154742857Y-87558085D01*
X154742857Y-87558085D02*
X154685714Y-87615228D01*
X154685714Y-87615228D02*
X154628571Y-87643800D01*
X132142857Y-94129514D02*
X132085714Y-94100942D01*
X132085714Y-94100942D02*
X132028571Y-94043800D01*
X132028571Y-94043800D02*
X131942857Y-93958085D01*
X131942857Y-93958085D02*
X131885714Y-93929514D01*
X131885714Y-93929514D02*
X131828571Y-93929514D01*
X131857142Y-94072371D02*
X131800000Y-94043800D01*
X131800000Y-94043800D02*
X131742857Y-93986657D01*
X131742857Y-93986657D02*
X131714285Y-93872371D01*
X131714285Y-93872371D02*
X131714285Y-93672371D01*
X131714285Y-93672371D02*
X131742857Y-93558085D01*
X131742857Y-93558085D02*
X131800000Y-93500942D01*
X131800000Y-93500942D02*
X131857142Y-93472371D01*
X131857142Y-93472371D02*
X131971428Y-93472371D01*
X131971428Y-93472371D02*
X132028571Y-93500942D01*
X132028571Y-93500942D02*
X132085714Y-93558085D01*
X132085714Y-93558085D02*
X132114285Y-93672371D01*
X132114285Y-93672371D02*
X132114285Y-93872371D01*
X132114285Y-93872371D02*
X132085714Y-93986657D01*
X132085714Y-93986657D02*
X132028571Y-94043800D01*
X132028571Y-94043800D02*
X131971428Y-94072371D01*
X131971428Y-94072371D02*
X131857142Y-94072371D01*
X132628571Y-93472371D02*
X132514285Y-93472371D01*
X132514285Y-93472371D02*
X132457142Y-93500942D01*
X132457142Y-93500942D02*
X132428571Y-93529514D01*
X132428571Y-93529514D02*
X132371428Y-93615228D01*
X132371428Y-93615228D02*
X132342856Y-93729514D01*
X132342856Y-93729514D02*
X132342856Y-93958085D01*
X132342856Y-93958085D02*
X132371428Y-94015228D01*
X132371428Y-94015228D02*
X132399999Y-94043800D01*
X132399999Y-94043800D02*
X132457142Y-94072371D01*
X132457142Y-94072371D02*
X132571428Y-94072371D01*
X132571428Y-94072371D02*
X132628571Y-94043800D01*
X132628571Y-94043800D02*
X132657142Y-94015228D01*
X132657142Y-94015228D02*
X132685713Y-93958085D01*
X132685713Y-93958085D02*
X132685713Y-93815228D01*
X132685713Y-93815228D02*
X132657142Y-93758085D01*
X132657142Y-93758085D02*
X132628571Y-93729514D01*
X132628571Y-93729514D02*
X132571428Y-93700942D01*
X132571428Y-93700942D02*
X132457142Y-93700942D01*
X132457142Y-93700942D02*
X132399999Y-93729514D01*
X132399999Y-93729514D02*
X132371428Y-93758085D01*
X132371428Y-93758085D02*
X132342856Y-93815228D01*
X137300000Y-61515228D02*
X137271428Y-61543800D01*
X137271428Y-61543800D02*
X137185714Y-61572371D01*
X137185714Y-61572371D02*
X137128571Y-61572371D01*
X137128571Y-61572371D02*
X137042857Y-61543800D01*
X137042857Y-61543800D02*
X136985714Y-61486657D01*
X136985714Y-61486657D02*
X136957143Y-61429514D01*
X136957143Y-61429514D02*
X136928571Y-61315228D01*
X136928571Y-61315228D02*
X136928571Y-61229514D01*
X136928571Y-61229514D02*
X136957143Y-61115228D01*
X136957143Y-61115228D02*
X136985714Y-61058085D01*
X136985714Y-61058085D02*
X137042857Y-61000942D01*
X137042857Y-61000942D02*
X137128571Y-60972371D01*
X137128571Y-60972371D02*
X137185714Y-60972371D01*
X137185714Y-60972371D02*
X137271428Y-61000942D01*
X137271428Y-61000942D02*
X137300000Y-61029514D01*
X137585714Y-61572371D02*
X137700000Y-61572371D01*
X137700000Y-61572371D02*
X137757143Y-61543800D01*
X137757143Y-61543800D02*
X137785714Y-61515228D01*
X137785714Y-61515228D02*
X137842857Y-61429514D01*
X137842857Y-61429514D02*
X137871428Y-61315228D01*
X137871428Y-61315228D02*
X137871428Y-61086657D01*
X137871428Y-61086657D02*
X137842857Y-61029514D01*
X137842857Y-61029514D02*
X137814286Y-61000942D01*
X137814286Y-61000942D02*
X137757143Y-60972371D01*
X137757143Y-60972371D02*
X137642857Y-60972371D01*
X137642857Y-60972371D02*
X137585714Y-61000942D01*
X137585714Y-61000942D02*
X137557143Y-61029514D01*
X137557143Y-61029514D02*
X137528571Y-61086657D01*
X137528571Y-61086657D02*
X137528571Y-61229514D01*
X137528571Y-61229514D02*
X137557143Y-61286657D01*
X137557143Y-61286657D02*
X137585714Y-61315228D01*
X137585714Y-61315228D02*
X137642857Y-61343800D01*
X137642857Y-61343800D02*
X137757143Y-61343800D01*
X137757143Y-61343800D02*
X137814286Y-61315228D01*
X137814286Y-61315228D02*
X137842857Y-61286657D01*
X137842857Y-61286657D02*
X137871428Y-61229514D01*
X123710228Y-69999999D02*
X123738800Y-70028571D01*
X123738800Y-70028571D02*
X123767371Y-70114285D01*
X123767371Y-70114285D02*
X123767371Y-70171428D01*
X123767371Y-70171428D02*
X123738800Y-70257142D01*
X123738800Y-70257142D02*
X123681657Y-70314285D01*
X123681657Y-70314285D02*
X123624514Y-70342856D01*
X123624514Y-70342856D02*
X123510228Y-70371428D01*
X123510228Y-70371428D02*
X123424514Y-70371428D01*
X123424514Y-70371428D02*
X123310228Y-70342856D01*
X123310228Y-70342856D02*
X123253085Y-70314285D01*
X123253085Y-70314285D02*
X123195942Y-70257142D01*
X123195942Y-70257142D02*
X123167371Y-70171428D01*
X123167371Y-70171428D02*
X123167371Y-70114285D01*
X123167371Y-70114285D02*
X123195942Y-70028571D01*
X123195942Y-70028571D02*
X123224514Y-69999999D01*
X123424514Y-69657142D02*
X123395942Y-69714285D01*
X123395942Y-69714285D02*
X123367371Y-69742856D01*
X123367371Y-69742856D02*
X123310228Y-69771428D01*
X123310228Y-69771428D02*
X123281657Y-69771428D01*
X123281657Y-69771428D02*
X123224514Y-69742856D01*
X123224514Y-69742856D02*
X123195942Y-69714285D01*
X123195942Y-69714285D02*
X123167371Y-69657142D01*
X123167371Y-69657142D02*
X123167371Y-69542856D01*
X123167371Y-69542856D02*
X123195942Y-69485714D01*
X123195942Y-69485714D02*
X123224514Y-69457142D01*
X123224514Y-69457142D02*
X123281657Y-69428571D01*
X123281657Y-69428571D02*
X123310228Y-69428571D01*
X123310228Y-69428571D02*
X123367371Y-69457142D01*
X123367371Y-69457142D02*
X123395942Y-69485714D01*
X123395942Y-69485714D02*
X123424514Y-69542856D01*
X123424514Y-69542856D02*
X123424514Y-69657142D01*
X123424514Y-69657142D02*
X123453085Y-69714285D01*
X123453085Y-69714285D02*
X123481657Y-69742856D01*
X123481657Y-69742856D02*
X123538800Y-69771428D01*
X123538800Y-69771428D02*
X123653085Y-69771428D01*
X123653085Y-69771428D02*
X123710228Y-69742856D01*
X123710228Y-69742856D02*
X123738800Y-69714285D01*
X123738800Y-69714285D02*
X123767371Y-69657142D01*
X123767371Y-69657142D02*
X123767371Y-69542856D01*
X123767371Y-69542856D02*
X123738800Y-69485714D01*
X123738800Y-69485714D02*
X123710228Y-69457142D01*
X123710228Y-69457142D02*
X123653085Y-69428571D01*
X123653085Y-69428571D02*
X123538800Y-69428571D01*
X123538800Y-69428571D02*
X123481657Y-69457142D01*
X123481657Y-69457142D02*
X123453085Y-69485714D01*
X123453085Y-69485714D02*
X123424514Y-69542856D01*
X126014285Y-87515228D02*
X125985713Y-87543800D01*
X125985713Y-87543800D02*
X125899999Y-87572371D01*
X125899999Y-87572371D02*
X125842856Y-87572371D01*
X125842856Y-87572371D02*
X125757142Y-87543800D01*
X125757142Y-87543800D02*
X125699999Y-87486657D01*
X125699999Y-87486657D02*
X125671428Y-87429514D01*
X125671428Y-87429514D02*
X125642856Y-87315228D01*
X125642856Y-87315228D02*
X125642856Y-87229514D01*
X125642856Y-87229514D02*
X125671428Y-87115228D01*
X125671428Y-87115228D02*
X125699999Y-87058085D01*
X125699999Y-87058085D02*
X125757142Y-87000942D01*
X125757142Y-87000942D02*
X125842856Y-86972371D01*
X125842856Y-86972371D02*
X125899999Y-86972371D01*
X125899999Y-86972371D02*
X125985713Y-87000942D01*
X125985713Y-87000942D02*
X126014285Y-87029514D01*
X126242856Y-87029514D02*
X126271428Y-87000942D01*
X126271428Y-87000942D02*
X126328571Y-86972371D01*
X126328571Y-86972371D02*
X126471428Y-86972371D01*
X126471428Y-86972371D02*
X126528571Y-87000942D01*
X126528571Y-87000942D02*
X126557142Y-87029514D01*
X126557142Y-87029514D02*
X126585713Y-87086657D01*
X126585713Y-87086657D02*
X126585713Y-87143800D01*
X126585713Y-87143800D02*
X126557142Y-87229514D01*
X126557142Y-87229514D02*
X126214285Y-87572371D01*
X126214285Y-87572371D02*
X126585713Y-87572371D01*
X126928571Y-87229514D02*
X126871428Y-87200942D01*
X126871428Y-87200942D02*
X126842857Y-87172371D01*
X126842857Y-87172371D02*
X126814285Y-87115228D01*
X126814285Y-87115228D02*
X126814285Y-87086657D01*
X126814285Y-87086657D02*
X126842857Y-87029514D01*
X126842857Y-87029514D02*
X126871428Y-87000942D01*
X126871428Y-87000942D02*
X126928571Y-86972371D01*
X126928571Y-86972371D02*
X127042857Y-86972371D01*
X127042857Y-86972371D02*
X127100000Y-87000942D01*
X127100000Y-87000942D02*
X127128571Y-87029514D01*
X127128571Y-87029514D02*
X127157142Y-87086657D01*
X127157142Y-87086657D02*
X127157142Y-87115228D01*
X127157142Y-87115228D02*
X127128571Y-87172371D01*
X127128571Y-87172371D02*
X127100000Y-87200942D01*
X127100000Y-87200942D02*
X127042857Y-87229514D01*
X127042857Y-87229514D02*
X126928571Y-87229514D01*
X126928571Y-87229514D02*
X126871428Y-87258085D01*
X126871428Y-87258085D02*
X126842857Y-87286657D01*
X126842857Y-87286657D02*
X126814285Y-87343800D01*
X126814285Y-87343800D02*
X126814285Y-87458085D01*
X126814285Y-87458085D02*
X126842857Y-87515228D01*
X126842857Y-87515228D02*
X126871428Y-87543800D01*
X126871428Y-87543800D02*
X126928571Y-87572371D01*
X126928571Y-87572371D02*
X127042857Y-87572371D01*
X127042857Y-87572371D02*
X127100000Y-87543800D01*
X127100000Y-87543800D02*
X127128571Y-87515228D01*
X127128571Y-87515228D02*
X127157142Y-87458085D01*
X127157142Y-87458085D02*
X127157142Y-87343800D01*
X127157142Y-87343800D02*
X127128571Y-87286657D01*
X127128571Y-87286657D02*
X127100000Y-87258085D01*
X127100000Y-87258085D02*
X127042857Y-87229514D01*
X132442857Y-109529514D02*
X132385714Y-109500942D01*
X132385714Y-109500942D02*
X132328571Y-109443800D01*
X132328571Y-109443800D02*
X132242857Y-109358085D01*
X132242857Y-109358085D02*
X132185714Y-109329514D01*
X132185714Y-109329514D02*
X132128571Y-109329514D01*
X132157142Y-109472371D02*
X132100000Y-109443800D01*
X132100000Y-109443800D02*
X132042857Y-109386657D01*
X132042857Y-109386657D02*
X132014285Y-109272371D01*
X132014285Y-109272371D02*
X132014285Y-109072371D01*
X132014285Y-109072371D02*
X132042857Y-108958085D01*
X132042857Y-108958085D02*
X132100000Y-108900942D01*
X132100000Y-108900942D02*
X132157142Y-108872371D01*
X132157142Y-108872371D02*
X132271428Y-108872371D01*
X132271428Y-108872371D02*
X132328571Y-108900942D01*
X132328571Y-108900942D02*
X132385714Y-108958085D01*
X132385714Y-108958085D02*
X132414285Y-109072371D01*
X132414285Y-109072371D02*
X132414285Y-109272371D01*
X132414285Y-109272371D02*
X132385714Y-109386657D01*
X132385714Y-109386657D02*
X132328571Y-109443800D01*
X132328571Y-109443800D02*
X132271428Y-109472371D01*
X132271428Y-109472371D02*
X132157142Y-109472371D01*
X132957142Y-108872371D02*
X132671428Y-108872371D01*
X132671428Y-108872371D02*
X132642856Y-109158085D01*
X132642856Y-109158085D02*
X132671428Y-109129514D01*
X132671428Y-109129514D02*
X132728571Y-109100942D01*
X132728571Y-109100942D02*
X132871428Y-109100942D01*
X132871428Y-109100942D02*
X132928571Y-109129514D01*
X132928571Y-109129514D02*
X132957142Y-109158085D01*
X132957142Y-109158085D02*
X132985713Y-109215228D01*
X132985713Y-109215228D02*
X132985713Y-109358085D01*
X132985713Y-109358085D02*
X132957142Y-109415228D01*
X132957142Y-109415228D02*
X132928571Y-109443800D01*
X132928571Y-109443800D02*
X132871428Y-109472371D01*
X132871428Y-109472371D02*
X132728571Y-109472371D01*
X132728571Y-109472371D02*
X132671428Y-109443800D01*
X132671428Y-109443800D02*
X132642856Y-109415228D01*
X137214285Y-64286657D02*
X137214285Y-64572371D01*
X137014285Y-63972371D02*
X137214285Y-64286657D01*
X137214285Y-64286657D02*
X137414285Y-63972371D01*
X137928571Y-64572371D02*
X137585714Y-64572371D01*
X137757143Y-64572371D02*
X137757143Y-63972371D01*
X137757143Y-63972371D02*
X137700000Y-64058085D01*
X137700000Y-64058085D02*
X137642857Y-64115228D01*
X137642857Y-64115228D02*
X137585714Y-64143800D01*
X146975000Y-86315228D02*
X146946428Y-86343800D01*
X146946428Y-86343800D02*
X146860714Y-86372371D01*
X146860714Y-86372371D02*
X146803571Y-86372371D01*
X146803571Y-86372371D02*
X146717857Y-86343800D01*
X146717857Y-86343800D02*
X146660714Y-86286657D01*
X146660714Y-86286657D02*
X146632143Y-86229514D01*
X146632143Y-86229514D02*
X146603571Y-86115228D01*
X146603571Y-86115228D02*
X146603571Y-86029514D01*
X146603571Y-86029514D02*
X146632143Y-85915228D01*
X146632143Y-85915228D02*
X146660714Y-85858085D01*
X146660714Y-85858085D02*
X146717857Y-85800942D01*
X146717857Y-85800942D02*
X146803571Y-85772371D01*
X146803571Y-85772371D02*
X146860714Y-85772371D01*
X146860714Y-85772371D02*
X146946428Y-85800942D01*
X146946428Y-85800942D02*
X146975000Y-85829514D01*
X147489286Y-85972371D02*
X147489286Y-86372371D01*
X147346428Y-85743800D02*
X147203571Y-86172371D01*
X147203571Y-86172371D02*
X147575000Y-86172371D01*
X144815228Y-89699999D02*
X144843800Y-89728571D01*
X144843800Y-89728571D02*
X144872371Y-89814285D01*
X144872371Y-89814285D02*
X144872371Y-89871428D01*
X144872371Y-89871428D02*
X144843800Y-89957142D01*
X144843800Y-89957142D02*
X144786657Y-90014285D01*
X144786657Y-90014285D02*
X144729514Y-90042856D01*
X144729514Y-90042856D02*
X144615228Y-90071428D01*
X144615228Y-90071428D02*
X144529514Y-90071428D01*
X144529514Y-90071428D02*
X144415228Y-90042856D01*
X144415228Y-90042856D02*
X144358085Y-90014285D01*
X144358085Y-90014285D02*
X144300942Y-89957142D01*
X144300942Y-89957142D02*
X144272371Y-89871428D01*
X144272371Y-89871428D02*
X144272371Y-89814285D01*
X144272371Y-89814285D02*
X144300942Y-89728571D01*
X144300942Y-89728571D02*
X144329514Y-89699999D01*
X144272371Y-89185714D02*
X144272371Y-89299999D01*
X144272371Y-89299999D02*
X144300942Y-89357142D01*
X144300942Y-89357142D02*
X144329514Y-89385714D01*
X144329514Y-89385714D02*
X144415228Y-89442856D01*
X144415228Y-89442856D02*
X144529514Y-89471428D01*
X144529514Y-89471428D02*
X144758085Y-89471428D01*
X144758085Y-89471428D02*
X144815228Y-89442856D01*
X144815228Y-89442856D02*
X144843800Y-89414285D01*
X144843800Y-89414285D02*
X144872371Y-89357142D01*
X144872371Y-89357142D02*
X144872371Y-89242856D01*
X144872371Y-89242856D02*
X144843800Y-89185714D01*
X144843800Y-89185714D02*
X144815228Y-89157142D01*
X144815228Y-89157142D02*
X144758085Y-89128571D01*
X144758085Y-89128571D02*
X144615228Y-89128571D01*
X144615228Y-89128571D02*
X144558085Y-89157142D01*
X144558085Y-89157142D02*
X144529514Y-89185714D01*
X144529514Y-89185714D02*
X144500942Y-89242856D01*
X144500942Y-89242856D02*
X144500942Y-89357142D01*
X144500942Y-89357142D02*
X144529514Y-89414285D01*
X144529514Y-89414285D02*
X144558085Y-89442856D01*
X144558085Y-89442856D02*
X144615228Y-89471428D01*
X153077371Y-63914999D02*
X152791657Y-64114999D01*
X153077371Y-64257856D02*
X152477371Y-64257856D01*
X152477371Y-64257856D02*
X152477371Y-64029285D01*
X152477371Y-64029285D02*
X152505942Y-63972142D01*
X152505942Y-63972142D02*
X152534514Y-63943571D01*
X152534514Y-63943571D02*
X152591657Y-63914999D01*
X152591657Y-63914999D02*
X152677371Y-63914999D01*
X152677371Y-63914999D02*
X152734514Y-63943571D01*
X152734514Y-63943571D02*
X152763085Y-63972142D01*
X152763085Y-63972142D02*
X152791657Y-64029285D01*
X152791657Y-64029285D02*
X152791657Y-64257856D01*
X152477371Y-63714999D02*
X152477371Y-63343571D01*
X152477371Y-63343571D02*
X152705942Y-63543571D01*
X152705942Y-63543571D02*
X152705942Y-63457856D01*
X152705942Y-63457856D02*
X152734514Y-63400714D01*
X152734514Y-63400714D02*
X152763085Y-63372142D01*
X152763085Y-63372142D02*
X152820228Y-63343571D01*
X152820228Y-63343571D02*
X152963085Y-63343571D01*
X152963085Y-63343571D02*
X153020228Y-63372142D01*
X153020228Y-63372142D02*
X153048800Y-63400714D01*
X153048800Y-63400714D02*
X153077371Y-63457856D01*
X153077371Y-63457856D02*
X153077371Y-63629285D01*
X153077371Y-63629285D02*
X153048800Y-63686428D01*
X153048800Y-63686428D02*
X153020228Y-63714999D01*
X124167371Y-91885714D02*
X123881657Y-92085714D01*
X124167371Y-92228571D02*
X123567371Y-92228571D01*
X123567371Y-92228571D02*
X123567371Y-92000000D01*
X123567371Y-92000000D02*
X123595942Y-91942857D01*
X123595942Y-91942857D02*
X123624514Y-91914286D01*
X123624514Y-91914286D02*
X123681657Y-91885714D01*
X123681657Y-91885714D02*
X123767371Y-91885714D01*
X123767371Y-91885714D02*
X123824514Y-91914286D01*
X123824514Y-91914286D02*
X123853085Y-91942857D01*
X123853085Y-91942857D02*
X123881657Y-92000000D01*
X123881657Y-92000000D02*
X123881657Y-92228571D01*
X124167371Y-91314286D02*
X124167371Y-91657143D01*
X124167371Y-91485714D02*
X123567371Y-91485714D01*
X123567371Y-91485714D02*
X123653085Y-91542857D01*
X123653085Y-91542857D02*
X123710228Y-91600000D01*
X123710228Y-91600000D02*
X123738800Y-91657143D01*
X124167371Y-91028571D02*
X124167371Y-90914285D01*
X124167371Y-90914285D02*
X124138800Y-90857142D01*
X124138800Y-90857142D02*
X124110228Y-90828571D01*
X124110228Y-90828571D02*
X124024514Y-90771428D01*
X124024514Y-90771428D02*
X123910228Y-90742857D01*
X123910228Y-90742857D02*
X123681657Y-90742857D01*
X123681657Y-90742857D02*
X123624514Y-90771428D01*
X123624514Y-90771428D02*
X123595942Y-90800000D01*
X123595942Y-90800000D02*
X123567371Y-90857142D01*
X123567371Y-90857142D02*
X123567371Y-90971428D01*
X123567371Y-90971428D02*
X123595942Y-91028571D01*
X123595942Y-91028571D02*
X123624514Y-91057142D01*
X123624514Y-91057142D02*
X123681657Y-91085714D01*
X123681657Y-91085714D02*
X123824514Y-91085714D01*
X123824514Y-91085714D02*
X123881657Y-91057142D01*
X123881657Y-91057142D02*
X123910228Y-91028571D01*
X123910228Y-91028571D02*
X123938800Y-90971428D01*
X123938800Y-90971428D02*
X123938800Y-90857142D01*
X123938800Y-90857142D02*
X123910228Y-90800000D01*
X123910228Y-90800000D02*
X123881657Y-90771428D01*
X123881657Y-90771428D02*
X123824514Y-90742857D01*
X148485714Y-81272371D02*
X148285714Y-80986657D01*
X148142857Y-81272371D02*
X148142857Y-80672371D01*
X148142857Y-80672371D02*
X148371428Y-80672371D01*
X148371428Y-80672371D02*
X148428571Y-80700942D01*
X148428571Y-80700942D02*
X148457142Y-80729514D01*
X148457142Y-80729514D02*
X148485714Y-80786657D01*
X148485714Y-80786657D02*
X148485714Y-80872371D01*
X148485714Y-80872371D02*
X148457142Y-80929514D01*
X148457142Y-80929514D02*
X148428571Y-80958085D01*
X148428571Y-80958085D02*
X148371428Y-80986657D01*
X148371428Y-80986657D02*
X148142857Y-80986657D01*
X148742857Y-81272371D02*
X148742857Y-80672371D01*
X148742857Y-80672371D02*
X149085714Y-81272371D01*
X149085714Y-81272371D02*
X149085714Y-80672371D01*
X149342856Y-80729514D02*
X149371428Y-80700942D01*
X149371428Y-80700942D02*
X149428571Y-80672371D01*
X149428571Y-80672371D02*
X149571428Y-80672371D01*
X149571428Y-80672371D02*
X149628571Y-80700942D01*
X149628571Y-80700942D02*
X149657142Y-80729514D01*
X149657142Y-80729514D02*
X149685713Y-80786657D01*
X149685713Y-80786657D02*
X149685713Y-80843800D01*
X149685713Y-80843800D02*
X149657142Y-80929514D01*
X149657142Y-80929514D02*
X149314285Y-81272371D01*
X149314285Y-81272371D02*
X149685713Y-81272371D01*
X129115228Y-66485714D02*
X129143800Y-66514286D01*
X129143800Y-66514286D02*
X129172371Y-66600000D01*
X129172371Y-66600000D02*
X129172371Y-66657143D01*
X129172371Y-66657143D02*
X129143800Y-66742857D01*
X129143800Y-66742857D02*
X129086657Y-66800000D01*
X129086657Y-66800000D02*
X129029514Y-66828571D01*
X129029514Y-66828571D02*
X128915228Y-66857143D01*
X128915228Y-66857143D02*
X128829514Y-66857143D01*
X128829514Y-66857143D02*
X128715228Y-66828571D01*
X128715228Y-66828571D02*
X128658085Y-66800000D01*
X128658085Y-66800000D02*
X128600942Y-66742857D01*
X128600942Y-66742857D02*
X128572371Y-66657143D01*
X128572371Y-66657143D02*
X128572371Y-66600000D01*
X128572371Y-66600000D02*
X128600942Y-66514286D01*
X128600942Y-66514286D02*
X128629514Y-66485714D01*
X128629514Y-66257143D02*
X128600942Y-66228571D01*
X128600942Y-66228571D02*
X128572371Y-66171429D01*
X128572371Y-66171429D02*
X128572371Y-66028571D01*
X128572371Y-66028571D02*
X128600942Y-65971429D01*
X128600942Y-65971429D02*
X128629514Y-65942857D01*
X128629514Y-65942857D02*
X128686657Y-65914286D01*
X128686657Y-65914286D02*
X128743800Y-65914286D01*
X128743800Y-65914286D02*
X128829514Y-65942857D01*
X128829514Y-65942857D02*
X129172371Y-66285714D01*
X129172371Y-66285714D02*
X129172371Y-65914286D01*
X128572371Y-65542857D02*
X128572371Y-65485714D01*
X128572371Y-65485714D02*
X128600942Y-65428571D01*
X128600942Y-65428571D02*
X128629514Y-65400000D01*
X128629514Y-65400000D02*
X128686657Y-65371428D01*
X128686657Y-65371428D02*
X128800942Y-65342857D01*
X128800942Y-65342857D02*
X128943800Y-65342857D01*
X128943800Y-65342857D02*
X129058085Y-65371428D01*
X129058085Y-65371428D02*
X129115228Y-65400000D01*
X129115228Y-65400000D02*
X129143800Y-65428571D01*
X129143800Y-65428571D02*
X129172371Y-65485714D01*
X129172371Y-65485714D02*
X129172371Y-65542857D01*
X129172371Y-65542857D02*
X129143800Y-65600000D01*
X129143800Y-65600000D02*
X129115228Y-65628571D01*
X129115228Y-65628571D02*
X129058085Y-65657142D01*
X129058085Y-65657142D02*
X128943800Y-65685714D01*
X128943800Y-65685714D02*
X128800942Y-65685714D01*
X128800942Y-65685714D02*
X128686657Y-65657142D01*
X128686657Y-65657142D02*
X128629514Y-65628571D01*
X128629514Y-65628571D02*
X128600942Y-65600000D01*
X128600942Y-65600000D02*
X128572371Y-65542857D01*
X128367371Y-91885714D02*
X128081657Y-92085714D01*
X128367371Y-92228571D02*
X127767371Y-92228571D01*
X127767371Y-92228571D02*
X127767371Y-92000000D01*
X127767371Y-92000000D02*
X127795942Y-91942857D01*
X127795942Y-91942857D02*
X127824514Y-91914286D01*
X127824514Y-91914286D02*
X127881657Y-91885714D01*
X127881657Y-91885714D02*
X127967371Y-91885714D01*
X127967371Y-91885714D02*
X128024514Y-91914286D01*
X128024514Y-91914286D02*
X128053085Y-91942857D01*
X128053085Y-91942857D02*
X128081657Y-92000000D01*
X128081657Y-92000000D02*
X128081657Y-92228571D01*
X127824514Y-91657143D02*
X127795942Y-91628571D01*
X127795942Y-91628571D02*
X127767371Y-91571429D01*
X127767371Y-91571429D02*
X127767371Y-91428571D01*
X127767371Y-91428571D02*
X127795942Y-91371429D01*
X127795942Y-91371429D02*
X127824514Y-91342857D01*
X127824514Y-91342857D02*
X127881657Y-91314286D01*
X127881657Y-91314286D02*
X127938800Y-91314286D01*
X127938800Y-91314286D02*
X128024514Y-91342857D01*
X128024514Y-91342857D02*
X128367371Y-91685714D01*
X128367371Y-91685714D02*
X128367371Y-91314286D01*
X127767371Y-90942857D02*
X127767371Y-90885714D01*
X127767371Y-90885714D02*
X127795942Y-90828571D01*
X127795942Y-90828571D02*
X127824514Y-90800000D01*
X127824514Y-90800000D02*
X127881657Y-90771428D01*
X127881657Y-90771428D02*
X127995942Y-90742857D01*
X127995942Y-90742857D02*
X128138800Y-90742857D01*
X128138800Y-90742857D02*
X128253085Y-90771428D01*
X128253085Y-90771428D02*
X128310228Y-90800000D01*
X128310228Y-90800000D02*
X128338800Y-90828571D01*
X128338800Y-90828571D02*
X128367371Y-90885714D01*
X128367371Y-90885714D02*
X128367371Y-90942857D01*
X128367371Y-90942857D02*
X128338800Y-91000000D01*
X128338800Y-91000000D02*
X128310228Y-91028571D01*
X128310228Y-91028571D02*
X128253085Y-91057142D01*
X128253085Y-91057142D02*
X128138800Y-91085714D01*
X128138800Y-91085714D02*
X127995942Y-91085714D01*
X127995942Y-91085714D02*
X127881657Y-91057142D01*
X127881657Y-91057142D02*
X127824514Y-91028571D01*
X127824514Y-91028571D02*
X127795942Y-91000000D01*
X127795942Y-91000000D02*
X127767371Y-90942857D01*
X131967371Y-91885714D02*
X131681657Y-92085714D01*
X131967371Y-92228571D02*
X131367371Y-92228571D01*
X131367371Y-92228571D02*
X131367371Y-92000000D01*
X131367371Y-92000000D02*
X131395942Y-91942857D01*
X131395942Y-91942857D02*
X131424514Y-91914286D01*
X131424514Y-91914286D02*
X131481657Y-91885714D01*
X131481657Y-91885714D02*
X131567371Y-91885714D01*
X131567371Y-91885714D02*
X131624514Y-91914286D01*
X131624514Y-91914286D02*
X131653085Y-91942857D01*
X131653085Y-91942857D02*
X131681657Y-92000000D01*
X131681657Y-92000000D02*
X131681657Y-92228571D01*
X131967371Y-91314286D02*
X131967371Y-91657143D01*
X131967371Y-91485714D02*
X131367371Y-91485714D01*
X131367371Y-91485714D02*
X131453085Y-91542857D01*
X131453085Y-91542857D02*
X131510228Y-91600000D01*
X131510228Y-91600000D02*
X131538800Y-91657143D01*
X131367371Y-90800000D02*
X131367371Y-90914285D01*
X131367371Y-90914285D02*
X131395942Y-90971428D01*
X131395942Y-90971428D02*
X131424514Y-91000000D01*
X131424514Y-91000000D02*
X131510228Y-91057142D01*
X131510228Y-91057142D02*
X131624514Y-91085714D01*
X131624514Y-91085714D02*
X131853085Y-91085714D01*
X131853085Y-91085714D02*
X131910228Y-91057142D01*
X131910228Y-91057142D02*
X131938800Y-91028571D01*
X131938800Y-91028571D02*
X131967371Y-90971428D01*
X131967371Y-90971428D02*
X131967371Y-90857142D01*
X131967371Y-90857142D02*
X131938800Y-90800000D01*
X131938800Y-90800000D02*
X131910228Y-90771428D01*
X131910228Y-90771428D02*
X131853085Y-90742857D01*
X131853085Y-90742857D02*
X131710228Y-90742857D01*
X131710228Y-90742857D02*
X131653085Y-90771428D01*
X131653085Y-90771428D02*
X131624514Y-90800000D01*
X131624514Y-90800000D02*
X131595942Y-90857142D01*
X131595942Y-90857142D02*
X131595942Y-90971428D01*
X131595942Y-90971428D02*
X131624514Y-91028571D01*
X131624514Y-91028571D02*
X131653085Y-91057142D01*
X131653085Y-91057142D02*
X131710228Y-91085714D01*
X151352143Y-74547371D02*
X151352143Y-73947371D01*
X151352143Y-73947371D02*
X151495000Y-73947371D01*
X151495000Y-73947371D02*
X151580714Y-73975942D01*
X151580714Y-73975942D02*
X151637857Y-74033085D01*
X151637857Y-74033085D02*
X151666428Y-74090228D01*
X151666428Y-74090228D02*
X151695000Y-74204514D01*
X151695000Y-74204514D02*
X151695000Y-74290228D01*
X151695000Y-74290228D02*
X151666428Y-74404514D01*
X151666428Y-74404514D02*
X151637857Y-74461657D01*
X151637857Y-74461657D02*
X151580714Y-74518800D01*
X151580714Y-74518800D02*
X151495000Y-74547371D01*
X151495000Y-74547371D02*
X151352143Y-74547371D01*
X152209286Y-74147371D02*
X152209286Y-74547371D01*
X152066428Y-73918800D02*
X151923571Y-74347371D01*
X151923571Y-74347371D02*
X152295000Y-74347371D01*
X154057143Y-82572371D02*
X154057143Y-81972371D01*
X154057143Y-81972371D02*
X154200000Y-81972371D01*
X154200000Y-81972371D02*
X154285714Y-82000942D01*
X154285714Y-82000942D02*
X154342857Y-82058085D01*
X154342857Y-82058085D02*
X154371428Y-82115228D01*
X154371428Y-82115228D02*
X154400000Y-82229514D01*
X154400000Y-82229514D02*
X154400000Y-82315228D01*
X154400000Y-82315228D02*
X154371428Y-82429514D01*
X154371428Y-82429514D02*
X154342857Y-82486657D01*
X154342857Y-82486657D02*
X154285714Y-82543800D01*
X154285714Y-82543800D02*
X154200000Y-82572371D01*
X154200000Y-82572371D02*
X154057143Y-82572371D01*
X154742857Y-82229514D02*
X154685714Y-82200942D01*
X154685714Y-82200942D02*
X154657143Y-82172371D01*
X154657143Y-82172371D02*
X154628571Y-82115228D01*
X154628571Y-82115228D02*
X154628571Y-82086657D01*
X154628571Y-82086657D02*
X154657143Y-82029514D01*
X154657143Y-82029514D02*
X154685714Y-82000942D01*
X154685714Y-82000942D02*
X154742857Y-81972371D01*
X154742857Y-81972371D02*
X154857143Y-81972371D01*
X154857143Y-81972371D02*
X154914286Y-82000942D01*
X154914286Y-82000942D02*
X154942857Y-82029514D01*
X154942857Y-82029514D02*
X154971428Y-82086657D01*
X154971428Y-82086657D02*
X154971428Y-82115228D01*
X154971428Y-82115228D02*
X154942857Y-82172371D01*
X154942857Y-82172371D02*
X154914286Y-82200942D01*
X154914286Y-82200942D02*
X154857143Y-82229514D01*
X154857143Y-82229514D02*
X154742857Y-82229514D01*
X154742857Y-82229514D02*
X154685714Y-82258085D01*
X154685714Y-82258085D02*
X154657143Y-82286657D01*
X154657143Y-82286657D02*
X154628571Y-82343800D01*
X154628571Y-82343800D02*
X154628571Y-82458085D01*
X154628571Y-82458085D02*
X154657143Y-82515228D01*
X154657143Y-82515228D02*
X154685714Y-82543800D01*
X154685714Y-82543800D02*
X154742857Y-82572371D01*
X154742857Y-82572371D02*
X154857143Y-82572371D01*
X154857143Y-82572371D02*
X154914286Y-82543800D01*
X154914286Y-82543800D02*
X154942857Y-82515228D01*
X154942857Y-82515228D02*
X154971428Y-82458085D01*
X154971428Y-82458085D02*
X154971428Y-82343800D01*
X154971428Y-82343800D02*
X154942857Y-82286657D01*
X154942857Y-82286657D02*
X154914286Y-82258085D01*
X154914286Y-82258085D02*
X154857143Y-82229514D01*
X132009285Y-87515228D02*
X131980713Y-87543800D01*
X131980713Y-87543800D02*
X131894999Y-87572371D01*
X131894999Y-87572371D02*
X131837856Y-87572371D01*
X131837856Y-87572371D02*
X131752142Y-87543800D01*
X131752142Y-87543800D02*
X131694999Y-87486657D01*
X131694999Y-87486657D02*
X131666428Y-87429514D01*
X131666428Y-87429514D02*
X131637856Y-87315228D01*
X131637856Y-87315228D02*
X131637856Y-87229514D01*
X131637856Y-87229514D02*
X131666428Y-87115228D01*
X131666428Y-87115228D02*
X131694999Y-87058085D01*
X131694999Y-87058085D02*
X131752142Y-87000942D01*
X131752142Y-87000942D02*
X131837856Y-86972371D01*
X131837856Y-86972371D02*
X131894999Y-86972371D01*
X131894999Y-86972371D02*
X131980713Y-87000942D01*
X131980713Y-87000942D02*
X132009285Y-87029514D01*
X132237856Y-87029514D02*
X132266428Y-87000942D01*
X132266428Y-87000942D02*
X132323571Y-86972371D01*
X132323571Y-86972371D02*
X132466428Y-86972371D01*
X132466428Y-86972371D02*
X132523571Y-87000942D01*
X132523571Y-87000942D02*
X132552142Y-87029514D01*
X132552142Y-87029514D02*
X132580713Y-87086657D01*
X132580713Y-87086657D02*
X132580713Y-87143800D01*
X132580713Y-87143800D02*
X132552142Y-87229514D01*
X132552142Y-87229514D02*
X132209285Y-87572371D01*
X132209285Y-87572371D02*
X132580713Y-87572371D01*
X133095000Y-86972371D02*
X132980714Y-86972371D01*
X132980714Y-86972371D02*
X132923571Y-87000942D01*
X132923571Y-87000942D02*
X132895000Y-87029514D01*
X132895000Y-87029514D02*
X132837857Y-87115228D01*
X132837857Y-87115228D02*
X132809285Y-87229514D01*
X132809285Y-87229514D02*
X132809285Y-87458085D01*
X132809285Y-87458085D02*
X132837857Y-87515228D01*
X132837857Y-87515228D02*
X132866428Y-87543800D01*
X132866428Y-87543800D02*
X132923571Y-87572371D01*
X132923571Y-87572371D02*
X133037857Y-87572371D01*
X133037857Y-87572371D02*
X133095000Y-87543800D01*
X133095000Y-87543800D02*
X133123571Y-87515228D01*
X133123571Y-87515228D02*
X133152142Y-87458085D01*
X133152142Y-87458085D02*
X133152142Y-87315228D01*
X133152142Y-87315228D02*
X133123571Y-87258085D01*
X133123571Y-87258085D02*
X133095000Y-87229514D01*
X133095000Y-87229514D02*
X133037857Y-87200942D01*
X133037857Y-87200942D02*
X132923571Y-87200942D01*
X132923571Y-87200942D02*
X132866428Y-87229514D01*
X132866428Y-87229514D02*
X132837857Y-87258085D01*
X132837857Y-87258085D02*
X132809285Y-87315228D01*
X125210228Y-69985714D02*
X125238800Y-70014286D01*
X125238800Y-70014286D02*
X125267371Y-70100000D01*
X125267371Y-70100000D02*
X125267371Y-70157143D01*
X125267371Y-70157143D02*
X125238800Y-70242857D01*
X125238800Y-70242857D02*
X125181657Y-70300000D01*
X125181657Y-70300000D02*
X125124514Y-70328571D01*
X125124514Y-70328571D02*
X125010228Y-70357143D01*
X125010228Y-70357143D02*
X124924514Y-70357143D01*
X124924514Y-70357143D02*
X124810228Y-70328571D01*
X124810228Y-70328571D02*
X124753085Y-70300000D01*
X124753085Y-70300000D02*
X124695942Y-70242857D01*
X124695942Y-70242857D02*
X124667371Y-70157143D01*
X124667371Y-70157143D02*
X124667371Y-70100000D01*
X124667371Y-70100000D02*
X124695942Y-70014286D01*
X124695942Y-70014286D02*
X124724514Y-69985714D01*
X125267371Y-69414286D02*
X125267371Y-69757143D01*
X125267371Y-69585714D02*
X124667371Y-69585714D01*
X124667371Y-69585714D02*
X124753085Y-69642857D01*
X124753085Y-69642857D02*
X124810228Y-69700000D01*
X124810228Y-69700000D02*
X124838800Y-69757143D01*
X124667371Y-69042857D02*
X124667371Y-68985714D01*
X124667371Y-68985714D02*
X124695942Y-68928571D01*
X124695942Y-68928571D02*
X124724514Y-68900000D01*
X124724514Y-68900000D02*
X124781657Y-68871428D01*
X124781657Y-68871428D02*
X124895942Y-68842857D01*
X124895942Y-68842857D02*
X125038800Y-68842857D01*
X125038800Y-68842857D02*
X125153085Y-68871428D01*
X125153085Y-68871428D02*
X125210228Y-68900000D01*
X125210228Y-68900000D02*
X125238800Y-68928571D01*
X125238800Y-68928571D02*
X125267371Y-68985714D01*
X125267371Y-68985714D02*
X125267371Y-69042857D01*
X125267371Y-69042857D02*
X125238800Y-69100000D01*
X125238800Y-69100000D02*
X125210228Y-69128571D01*
X125210228Y-69128571D02*
X125153085Y-69157142D01*
X125153085Y-69157142D02*
X125038800Y-69185714D01*
X125038800Y-69185714D02*
X124895942Y-69185714D01*
X124895942Y-69185714D02*
X124781657Y-69157142D01*
X124781657Y-69157142D02*
X124724514Y-69128571D01*
X124724514Y-69128571D02*
X124695942Y-69100000D01*
X124695942Y-69100000D02*
X124667371Y-69042857D01*
X154057143Y-81072371D02*
X154057143Y-80472371D01*
X154057143Y-80472371D02*
X154200000Y-80472371D01*
X154200000Y-80472371D02*
X154285714Y-80500942D01*
X154285714Y-80500942D02*
X154342857Y-80558085D01*
X154342857Y-80558085D02*
X154371428Y-80615228D01*
X154371428Y-80615228D02*
X154400000Y-80729514D01*
X154400000Y-80729514D02*
X154400000Y-80815228D01*
X154400000Y-80815228D02*
X154371428Y-80929514D01*
X154371428Y-80929514D02*
X154342857Y-80986657D01*
X154342857Y-80986657D02*
X154285714Y-81043800D01*
X154285714Y-81043800D02*
X154200000Y-81072371D01*
X154200000Y-81072371D02*
X154057143Y-81072371D01*
X154600000Y-80472371D02*
X155000000Y-80472371D01*
X155000000Y-80472371D02*
X154742857Y-81072371D01*
X130615228Y-66185714D02*
X130643800Y-66214286D01*
X130643800Y-66214286D02*
X130672371Y-66300000D01*
X130672371Y-66300000D02*
X130672371Y-66357143D01*
X130672371Y-66357143D02*
X130643800Y-66442857D01*
X130643800Y-66442857D02*
X130586657Y-66500000D01*
X130586657Y-66500000D02*
X130529514Y-66528571D01*
X130529514Y-66528571D02*
X130415228Y-66557143D01*
X130415228Y-66557143D02*
X130329514Y-66557143D01*
X130329514Y-66557143D02*
X130215228Y-66528571D01*
X130215228Y-66528571D02*
X130158085Y-66500000D01*
X130158085Y-66500000D02*
X130100942Y-66442857D01*
X130100942Y-66442857D02*
X130072371Y-66357143D01*
X130072371Y-66357143D02*
X130072371Y-66300000D01*
X130072371Y-66300000D02*
X130100942Y-66214286D01*
X130100942Y-66214286D02*
X130129514Y-66185714D01*
X130672371Y-65614286D02*
X130672371Y-65957143D01*
X130672371Y-65785714D02*
X130072371Y-65785714D01*
X130072371Y-65785714D02*
X130158085Y-65842857D01*
X130158085Y-65842857D02*
X130215228Y-65900000D01*
X130215228Y-65900000D02*
X130243800Y-65957143D01*
X130329514Y-65271428D02*
X130300942Y-65328571D01*
X130300942Y-65328571D02*
X130272371Y-65357142D01*
X130272371Y-65357142D02*
X130215228Y-65385714D01*
X130215228Y-65385714D02*
X130186657Y-65385714D01*
X130186657Y-65385714D02*
X130129514Y-65357142D01*
X130129514Y-65357142D02*
X130100942Y-65328571D01*
X130100942Y-65328571D02*
X130072371Y-65271428D01*
X130072371Y-65271428D02*
X130072371Y-65157142D01*
X130072371Y-65157142D02*
X130100942Y-65100000D01*
X130100942Y-65100000D02*
X130129514Y-65071428D01*
X130129514Y-65071428D02*
X130186657Y-65042857D01*
X130186657Y-65042857D02*
X130215228Y-65042857D01*
X130215228Y-65042857D02*
X130272371Y-65071428D01*
X130272371Y-65071428D02*
X130300942Y-65100000D01*
X130300942Y-65100000D02*
X130329514Y-65157142D01*
X130329514Y-65157142D02*
X130329514Y-65271428D01*
X130329514Y-65271428D02*
X130358085Y-65328571D01*
X130358085Y-65328571D02*
X130386657Y-65357142D01*
X130386657Y-65357142D02*
X130443800Y-65385714D01*
X130443800Y-65385714D02*
X130558085Y-65385714D01*
X130558085Y-65385714D02*
X130615228Y-65357142D01*
X130615228Y-65357142D02*
X130643800Y-65328571D01*
X130643800Y-65328571D02*
X130672371Y-65271428D01*
X130672371Y-65271428D02*
X130672371Y-65157142D01*
X130672371Y-65157142D02*
X130643800Y-65100000D01*
X130643800Y-65100000D02*
X130615228Y-65071428D01*
X130615228Y-65071428D02*
X130558085Y-65042857D01*
X130558085Y-65042857D02*
X130443800Y-65042857D01*
X130443800Y-65042857D02*
X130386657Y-65071428D01*
X130386657Y-65071428D02*
X130358085Y-65100000D01*
X130358085Y-65100000D02*
X130329514Y-65157142D01*
X152299999Y-60962371D02*
X152299999Y-61390942D01*
X152299999Y-61390942D02*
X152271428Y-61476657D01*
X152271428Y-61476657D02*
X152214285Y-61533800D01*
X152214285Y-61533800D02*
X152128571Y-61562371D01*
X152128571Y-61562371D02*
X152071428Y-61562371D01*
X152557142Y-61019514D02*
X152585714Y-60990942D01*
X152585714Y-60990942D02*
X152642857Y-60962371D01*
X152642857Y-60962371D02*
X152785714Y-60962371D01*
X152785714Y-60962371D02*
X152842857Y-60990942D01*
X152842857Y-60990942D02*
X152871428Y-61019514D01*
X152871428Y-61019514D02*
X152899999Y-61076657D01*
X152899999Y-61076657D02*
X152899999Y-61133800D01*
X152899999Y-61133800D02*
X152871428Y-61219514D01*
X152871428Y-61219514D02*
X152528571Y-61562371D01*
X152528571Y-61562371D02*
X152899999Y-61562371D01*
X139410228Y-73085714D02*
X139438800Y-73114286D01*
X139438800Y-73114286D02*
X139467371Y-73200000D01*
X139467371Y-73200000D02*
X139467371Y-73257143D01*
X139467371Y-73257143D02*
X139438800Y-73342857D01*
X139438800Y-73342857D02*
X139381657Y-73400000D01*
X139381657Y-73400000D02*
X139324514Y-73428571D01*
X139324514Y-73428571D02*
X139210228Y-73457143D01*
X139210228Y-73457143D02*
X139124514Y-73457143D01*
X139124514Y-73457143D02*
X139010228Y-73428571D01*
X139010228Y-73428571D02*
X138953085Y-73400000D01*
X138953085Y-73400000D02*
X138895942Y-73342857D01*
X138895942Y-73342857D02*
X138867371Y-73257143D01*
X138867371Y-73257143D02*
X138867371Y-73200000D01*
X138867371Y-73200000D02*
X138895942Y-73114286D01*
X138895942Y-73114286D02*
X138924514Y-73085714D01*
X139467371Y-72514286D02*
X139467371Y-72857143D01*
X139467371Y-72685714D02*
X138867371Y-72685714D01*
X138867371Y-72685714D02*
X138953085Y-72742857D01*
X138953085Y-72742857D02*
X139010228Y-72800000D01*
X139010228Y-72800000D02*
X139038800Y-72857143D01*
X138867371Y-72000000D02*
X138867371Y-72114285D01*
X138867371Y-72114285D02*
X138895942Y-72171428D01*
X138895942Y-72171428D02*
X138924514Y-72200000D01*
X138924514Y-72200000D02*
X139010228Y-72257142D01*
X139010228Y-72257142D02*
X139124514Y-72285714D01*
X139124514Y-72285714D02*
X139353085Y-72285714D01*
X139353085Y-72285714D02*
X139410228Y-72257142D01*
X139410228Y-72257142D02*
X139438800Y-72228571D01*
X139438800Y-72228571D02*
X139467371Y-72171428D01*
X139467371Y-72171428D02*
X139467371Y-72057142D01*
X139467371Y-72057142D02*
X139438800Y-72000000D01*
X139438800Y-72000000D02*
X139410228Y-71971428D01*
X139410228Y-71971428D02*
X139353085Y-71942857D01*
X139353085Y-71942857D02*
X139210228Y-71942857D01*
X139210228Y-71942857D02*
X139153085Y-71971428D01*
X139153085Y-71971428D02*
X139124514Y-72000000D01*
X139124514Y-72000000D02*
X139095942Y-72057142D01*
X139095942Y-72057142D02*
X139095942Y-72171428D01*
X139095942Y-72171428D02*
X139124514Y-72228571D01*
X139124514Y-72228571D02*
X139153085Y-72257142D01*
X139153085Y-72257142D02*
X139210228Y-72285714D01*
X137300000Y-67415228D02*
X137271428Y-67443800D01*
X137271428Y-67443800D02*
X137185714Y-67472371D01*
X137185714Y-67472371D02*
X137128571Y-67472371D01*
X137128571Y-67472371D02*
X137042857Y-67443800D01*
X137042857Y-67443800D02*
X136985714Y-67386657D01*
X136985714Y-67386657D02*
X136957143Y-67329514D01*
X136957143Y-67329514D02*
X136928571Y-67215228D01*
X136928571Y-67215228D02*
X136928571Y-67129514D01*
X136928571Y-67129514D02*
X136957143Y-67015228D01*
X136957143Y-67015228D02*
X136985714Y-66958085D01*
X136985714Y-66958085D02*
X137042857Y-66900942D01*
X137042857Y-66900942D02*
X137128571Y-66872371D01*
X137128571Y-66872371D02*
X137185714Y-66872371D01*
X137185714Y-66872371D02*
X137271428Y-66900942D01*
X137271428Y-66900942D02*
X137300000Y-66929514D01*
X137500000Y-66872371D02*
X137900000Y-66872371D01*
X137900000Y-66872371D02*
X137642857Y-67472371D01*
X129009285Y-87515228D02*
X128980713Y-87543800D01*
X128980713Y-87543800D02*
X128894999Y-87572371D01*
X128894999Y-87572371D02*
X128837856Y-87572371D01*
X128837856Y-87572371D02*
X128752142Y-87543800D01*
X128752142Y-87543800D02*
X128694999Y-87486657D01*
X128694999Y-87486657D02*
X128666428Y-87429514D01*
X128666428Y-87429514D02*
X128637856Y-87315228D01*
X128637856Y-87315228D02*
X128637856Y-87229514D01*
X128637856Y-87229514D02*
X128666428Y-87115228D01*
X128666428Y-87115228D02*
X128694999Y-87058085D01*
X128694999Y-87058085D02*
X128752142Y-87000942D01*
X128752142Y-87000942D02*
X128837856Y-86972371D01*
X128837856Y-86972371D02*
X128894999Y-86972371D01*
X128894999Y-86972371D02*
X128980713Y-87000942D01*
X128980713Y-87000942D02*
X129009285Y-87029514D01*
X129237856Y-87029514D02*
X129266428Y-87000942D01*
X129266428Y-87000942D02*
X129323571Y-86972371D01*
X129323571Y-86972371D02*
X129466428Y-86972371D01*
X129466428Y-86972371D02*
X129523571Y-87000942D01*
X129523571Y-87000942D02*
X129552142Y-87029514D01*
X129552142Y-87029514D02*
X129580713Y-87086657D01*
X129580713Y-87086657D02*
X129580713Y-87143800D01*
X129580713Y-87143800D02*
X129552142Y-87229514D01*
X129552142Y-87229514D02*
X129209285Y-87572371D01*
X129209285Y-87572371D02*
X129580713Y-87572371D01*
X129780714Y-86972371D02*
X130180714Y-86972371D01*
X130180714Y-86972371D02*
X129923571Y-87572371D01*
X144815228Y-82485714D02*
X144843800Y-82514286D01*
X144843800Y-82514286D02*
X144872371Y-82600000D01*
X144872371Y-82600000D02*
X144872371Y-82657143D01*
X144872371Y-82657143D02*
X144843800Y-82742857D01*
X144843800Y-82742857D02*
X144786657Y-82800000D01*
X144786657Y-82800000D02*
X144729514Y-82828571D01*
X144729514Y-82828571D02*
X144615228Y-82857143D01*
X144615228Y-82857143D02*
X144529514Y-82857143D01*
X144529514Y-82857143D02*
X144415228Y-82828571D01*
X144415228Y-82828571D02*
X144358085Y-82800000D01*
X144358085Y-82800000D02*
X144300942Y-82742857D01*
X144300942Y-82742857D02*
X144272371Y-82657143D01*
X144272371Y-82657143D02*
X144272371Y-82600000D01*
X144272371Y-82600000D02*
X144300942Y-82514286D01*
X144300942Y-82514286D02*
X144329514Y-82485714D01*
X144872371Y-81914286D02*
X144872371Y-82257143D01*
X144872371Y-82085714D02*
X144272371Y-82085714D01*
X144272371Y-82085714D02*
X144358085Y-82142857D01*
X144358085Y-82142857D02*
X144415228Y-82200000D01*
X144415228Y-82200000D02*
X144443800Y-82257143D01*
X144272371Y-81714285D02*
X144272371Y-81342857D01*
X144272371Y-81342857D02*
X144500942Y-81542857D01*
X144500942Y-81542857D02*
X144500942Y-81457142D01*
X144500942Y-81457142D02*
X144529514Y-81400000D01*
X144529514Y-81400000D02*
X144558085Y-81371428D01*
X144558085Y-81371428D02*
X144615228Y-81342857D01*
X144615228Y-81342857D02*
X144758085Y-81342857D01*
X144758085Y-81342857D02*
X144815228Y-81371428D01*
X144815228Y-81371428D02*
X144843800Y-81400000D01*
X144843800Y-81400000D02*
X144872371Y-81457142D01*
X144872371Y-81457142D02*
X144872371Y-81628571D01*
X144872371Y-81628571D02*
X144843800Y-81685714D01*
X144843800Y-81685714D02*
X144815228Y-81714285D01*
X142272371Y-77342856D02*
X141672371Y-77342856D01*
X141672371Y-77342856D02*
X141672371Y-77199999D01*
X141672371Y-77199999D02*
X141700942Y-77114285D01*
X141700942Y-77114285D02*
X141758085Y-77057142D01*
X141758085Y-77057142D02*
X141815228Y-77028571D01*
X141815228Y-77028571D02*
X141929514Y-76999999D01*
X141929514Y-76999999D02*
X142015228Y-76999999D01*
X142015228Y-76999999D02*
X142129514Y-77028571D01*
X142129514Y-77028571D02*
X142186657Y-77057142D01*
X142186657Y-77057142D02*
X142243800Y-77114285D01*
X142243800Y-77114285D02*
X142272371Y-77199999D01*
X142272371Y-77199999D02*
X142272371Y-77342856D01*
X142272371Y-76714285D02*
X142272371Y-76599999D01*
X142272371Y-76599999D02*
X142243800Y-76542856D01*
X142243800Y-76542856D02*
X142215228Y-76514285D01*
X142215228Y-76514285D02*
X142129514Y-76457142D01*
X142129514Y-76457142D02*
X142015228Y-76428571D01*
X142015228Y-76428571D02*
X141786657Y-76428571D01*
X141786657Y-76428571D02*
X141729514Y-76457142D01*
X141729514Y-76457142D02*
X141700942Y-76485714D01*
X141700942Y-76485714D02*
X141672371Y-76542856D01*
X141672371Y-76542856D02*
X141672371Y-76657142D01*
X141672371Y-76657142D02*
X141700942Y-76714285D01*
X141700942Y-76714285D02*
X141729514Y-76742856D01*
X141729514Y-76742856D02*
X141786657Y-76771428D01*
X141786657Y-76771428D02*
X141929514Y-76771428D01*
X141929514Y-76771428D02*
X141986657Y-76742856D01*
X141986657Y-76742856D02*
X142015228Y-76714285D01*
X142015228Y-76714285D02*
X142043800Y-76657142D01*
X142043800Y-76657142D02*
X142043800Y-76542856D01*
X142043800Y-76542856D02*
X142015228Y-76485714D01*
X142015228Y-76485714D02*
X141986657Y-76457142D01*
X141986657Y-76457142D02*
X141929514Y-76428571D01*
D12*
X138519047Y-78962295D02*
X139014285Y-78962295D01*
X139014285Y-78962295D02*
X138747619Y-79267057D01*
X138747619Y-79267057D02*
X138861904Y-79267057D01*
X138861904Y-79267057D02*
X138938095Y-79305152D01*
X138938095Y-79305152D02*
X138976190Y-79343247D01*
X138976190Y-79343247D02*
X139014285Y-79419438D01*
X139014285Y-79419438D02*
X139014285Y-79609914D01*
X139014285Y-79609914D02*
X138976190Y-79686104D01*
X138976190Y-79686104D02*
X138938095Y-79724200D01*
X138938095Y-79724200D02*
X138861904Y-79762295D01*
X138861904Y-79762295D02*
X138633333Y-79762295D01*
X138633333Y-79762295D02*
X138557142Y-79724200D01*
X138557142Y-79724200D02*
X138519047Y-79686104D01*
X139357143Y-79686104D02*
X139395238Y-79724200D01*
X139395238Y-79724200D02*
X139357143Y-79762295D01*
X139357143Y-79762295D02*
X139319047Y-79724200D01*
X139319047Y-79724200D02*
X139357143Y-79686104D01*
X139357143Y-79686104D02*
X139357143Y-79762295D01*
X139661904Y-78962295D02*
X140157142Y-78962295D01*
X140157142Y-78962295D02*
X139890476Y-79267057D01*
X139890476Y-79267057D02*
X140004761Y-79267057D01*
X140004761Y-79267057D02*
X140080952Y-79305152D01*
X140080952Y-79305152D02*
X140119047Y-79343247D01*
X140119047Y-79343247D02*
X140157142Y-79419438D01*
X140157142Y-79419438D02*
X140157142Y-79609914D01*
X140157142Y-79609914D02*
X140119047Y-79686104D01*
X140119047Y-79686104D02*
X140080952Y-79724200D01*
X140080952Y-79724200D02*
X140004761Y-79762295D01*
X140004761Y-79762295D02*
X139776190Y-79762295D01*
X139776190Y-79762295D02*
X139699999Y-79724200D01*
X139699999Y-79724200D02*
X139661904Y-79686104D01*
X140385714Y-78962295D02*
X140652381Y-79762295D01*
X140652381Y-79762295D02*
X140919047Y-78962295D01*
D10*
X126767371Y-69999999D02*
X126767371Y-70285713D01*
X126767371Y-70285713D02*
X126167371Y-70285713D01*
X126767371Y-69485714D02*
X126767371Y-69828571D01*
X126767371Y-69657142D02*
X126167371Y-69657142D01*
X126167371Y-69657142D02*
X126253085Y-69714285D01*
X126253085Y-69714285D02*
X126310228Y-69771428D01*
X126310228Y-69771428D02*
X126338800Y-69828571D01*
X124984285Y-79415228D02*
X124955713Y-79443800D01*
X124955713Y-79443800D02*
X124869999Y-79472371D01*
X124869999Y-79472371D02*
X124812856Y-79472371D01*
X124812856Y-79472371D02*
X124727142Y-79443800D01*
X124727142Y-79443800D02*
X124669999Y-79386657D01*
X124669999Y-79386657D02*
X124641428Y-79329514D01*
X124641428Y-79329514D02*
X124612856Y-79215228D01*
X124612856Y-79215228D02*
X124612856Y-79129514D01*
X124612856Y-79129514D02*
X124641428Y-79015228D01*
X124641428Y-79015228D02*
X124669999Y-78958085D01*
X124669999Y-78958085D02*
X124727142Y-78900942D01*
X124727142Y-78900942D02*
X124812856Y-78872371D01*
X124812856Y-78872371D02*
X124869999Y-78872371D01*
X124869999Y-78872371D02*
X124955713Y-78900942D01*
X124955713Y-78900942D02*
X124984285Y-78929514D01*
X125212856Y-78929514D02*
X125241428Y-78900942D01*
X125241428Y-78900942D02*
X125298571Y-78872371D01*
X125298571Y-78872371D02*
X125441428Y-78872371D01*
X125441428Y-78872371D02*
X125498571Y-78900942D01*
X125498571Y-78900942D02*
X125527142Y-78929514D01*
X125527142Y-78929514D02*
X125555713Y-78986657D01*
X125555713Y-78986657D02*
X125555713Y-79043800D01*
X125555713Y-79043800D02*
X125527142Y-79129514D01*
X125527142Y-79129514D02*
X125184285Y-79472371D01*
X125184285Y-79472371D02*
X125555713Y-79472371D01*
X126098571Y-78872371D02*
X125812857Y-78872371D01*
X125812857Y-78872371D02*
X125784285Y-79158085D01*
X125784285Y-79158085D02*
X125812857Y-79129514D01*
X125812857Y-79129514D02*
X125870000Y-79100942D01*
X125870000Y-79100942D02*
X126012857Y-79100942D01*
X126012857Y-79100942D02*
X126070000Y-79129514D01*
X126070000Y-79129514D02*
X126098571Y-79158085D01*
X126098571Y-79158085D02*
X126127142Y-79215228D01*
X126127142Y-79215228D02*
X126127142Y-79358085D01*
X126127142Y-79358085D02*
X126098571Y-79415228D01*
X126098571Y-79415228D02*
X126070000Y-79443800D01*
X126070000Y-79443800D02*
X126012857Y-79472371D01*
X126012857Y-79472371D02*
X125870000Y-79472371D01*
X125870000Y-79472371D02*
X125812857Y-79443800D01*
X125812857Y-79443800D02*
X125784285Y-79415228D01*
%TO.C,R6*%
D13*
X141237258Y-68777500D02*
X140762742Y-68777500D01*
X141237258Y-69822500D02*
X140762742Y-69822500D01*
%TO.C,C19*%
X131390000Y-68440580D02*
X131390000Y-68159420D01*
X132410000Y-68440580D02*
X132410000Y-68159420D01*
%TO.C,R4*%
X139682500Y-66452258D02*
X139682500Y-65977742D01*
X140727500Y-66452258D02*
X140727500Y-65977742D01*
%TO.C,R11*%
X135777500Y-86562742D02*
X135777500Y-87037258D01*
X136822500Y-86562742D02*
X136822500Y-87037258D01*
%TO.C,C5*%
X149240580Y-83890000D02*
X148959420Y-83890000D01*
X149240580Y-84910000D02*
X148959420Y-84910000D01*
%TO.C,R15*%
X133572500Y-83762742D02*
X133572500Y-84237258D01*
X134617500Y-83762742D02*
X134617500Y-84237258D01*
%TO.C,C3*%
X120445000Y-96115000D02*
X124295000Y-96115000D01*
X120445000Y-105770563D02*
X120445000Y-96115000D01*
X121509437Y-106835000D02*
X120445000Y-105770563D01*
X121509437Y-106835000D02*
X124295000Y-106835000D01*
X122420000Y-107700000D02*
X123670000Y-107700000D01*
X123045000Y-108325000D02*
X123045000Y-107075000D01*
X130100563Y-106835000D02*
X127315000Y-106835000D01*
X130100563Y-106835000D02*
X131165000Y-105770563D01*
X131165000Y-96115000D02*
X127315000Y-96115000D01*
X131165000Y-105770563D02*
X131165000Y-96115000D01*
%TO.C,D3*%
X153810000Y-83550000D02*
X151150000Y-83550000D01*
X153810000Y-85250000D02*
X151150000Y-85250000D01*
X153810000Y-85250000D02*
X153810000Y-83550000D01*
%TO.C,Q4*%
X137420000Y-100935000D02*
X137420000Y-94815000D01*
X142790000Y-100935000D02*
X142790000Y-95255000D01*
X142525270Y-94743378D02*
X142855270Y-94503378D01*
X142855270Y-94983378D01*
X142525270Y-94743378D01*
G36*
X142855270Y-94983378D02*
G01*
X142525270Y-94743378D01*
X142855270Y-94503378D01*
X142855270Y-94983378D01*
G37*
%TO.C,U1*%
X139790000Y-85240000D02*
X141610000Y-85240000D01*
X139790000Y-85290000D02*
X139790000Y-85240000D01*
X139790000Y-88360000D02*
X139790000Y-88310000D01*
X141610000Y-85240000D02*
X141610000Y-85290000D01*
X141610000Y-88310000D02*
X141610000Y-88360000D01*
X141610000Y-88360000D02*
X139790000Y-88360000D01*
X139250000Y-85290000D02*
X139010000Y-84960000D01*
X139490000Y-84960000D01*
X139250000Y-85290000D01*
G36*
X139250000Y-85290000D02*
G01*
X139010000Y-84960000D01*
X139490000Y-84960000D01*
X139250000Y-85290000D01*
G37*
%TO.C,C21*%
X125985000Y-75040580D02*
X125985000Y-74759420D01*
X127005000Y-75040580D02*
X127005000Y-74759420D01*
%TO.C,U2*%
X131165000Y-70790000D02*
X131640000Y-70790000D01*
X131165000Y-71265000D02*
X131165000Y-70790000D01*
X131165000Y-76010000D02*
X131165000Y-75535000D01*
X131640000Y-76010000D02*
X131165000Y-76010000D01*
X135910000Y-70790000D02*
X136385000Y-70790000D01*
X136385000Y-70790000D02*
X136385000Y-71265000D01*
X136385000Y-75535000D02*
X136385000Y-76010000D01*
X136385000Y-76010000D02*
X135910000Y-76010000D01*
X130665000Y-71650000D02*
X130335000Y-71890000D01*
X130335000Y-71410000D01*
X130665000Y-71650000D01*
G36*
X130665000Y-71650000D02*
G01*
X130335000Y-71890000D01*
X130335000Y-71410000D01*
X130665000Y-71650000D01*
G37*
%TO.C,C17*%
X137185000Y-72959420D02*
X137185000Y-73240580D01*
X138205000Y-72959420D02*
X138205000Y-73240580D01*
%TO.C,U3*%
X145395000Y-74040000D02*
X147215000Y-74040000D01*
X145395000Y-74090000D02*
X145395000Y-74040000D01*
X145395000Y-75990000D02*
X145395000Y-75210000D01*
X145395000Y-77160000D02*
X145395000Y-77110000D01*
X147215000Y-74040000D02*
X147215000Y-74090000D01*
X147215000Y-77110000D02*
X147215000Y-77160000D01*
X147215000Y-77160000D02*
X145395000Y-77160000D01*
X147755000Y-77110000D02*
X147995000Y-77440000D01*
X147515000Y-77440000D01*
X147755000Y-77110000D01*
G36*
X147995000Y-77440000D02*
G01*
X147515000Y-77440000D01*
X147755000Y-77110000D01*
X147995000Y-77440000D01*
G37*
%TO.C,C12*%
X127485000Y-71859420D02*
X127485000Y-72140580D01*
X128505000Y-71859420D02*
X128505000Y-72140580D01*
%TO.C,U4*%
X126950000Y-80375000D02*
X127350000Y-80375000D01*
X126950000Y-80775000D02*
X126950000Y-80375000D01*
X126950000Y-84275000D02*
X126950000Y-84675000D01*
X126950000Y-84675000D02*
X127350000Y-84675000D01*
X131250000Y-80775000D02*
X131250000Y-80225000D01*
X131250000Y-84275000D02*
X131250000Y-84675000D01*
X131250000Y-84675000D02*
X130850000Y-84675000D01*
%TO.C,Q2*%
X143120000Y-100935000D02*
X143120000Y-94815000D01*
X148490000Y-100935000D02*
X148490000Y-95255000D01*
X148225270Y-94743378D02*
X148555270Y-94503378D01*
X148555270Y-94983378D01*
X148225270Y-94743378D01*
G36*
X148555270Y-94983378D02*
G01*
X148225270Y-94743378D01*
X148555270Y-94503378D01*
X148555270Y-94983378D01*
G37*
%TO.C,R18*%
X129372500Y-88862742D02*
X129372500Y-89337258D01*
X130417500Y-88862742D02*
X130417500Y-89337258D01*
%TO.C,C23*%
X148695000Y-75459420D02*
X148695000Y-75740580D01*
X149715000Y-75459420D02*
X149715000Y-75740580D01*
%TO.C,RN3*%
X134200000Y-78780000D02*
X133400000Y-78780000D01*
X134200000Y-82220000D02*
X133400000Y-82220000D01*
%TO.C,D2*%
X153810000Y-85250000D02*
X151150000Y-85250000D01*
X153810000Y-86950000D02*
X151150000Y-86950000D01*
X153810000Y-86950000D02*
X153810000Y-85250000D01*
%TO.C,Q1*%
X143120000Y-108135000D02*
X143120000Y-102015000D01*
X148490000Y-108135000D02*
X148490000Y-102455000D01*
X148225270Y-101943378D02*
X148555270Y-101703378D01*
X148555270Y-102183378D01*
X148225270Y-101943378D01*
G36*
X148555270Y-102183378D02*
G01*
X148225270Y-101943378D01*
X148555270Y-101703378D01*
X148555270Y-102183378D01*
G37*
%TO.C,C14*%
X145590000Y-84490580D02*
X145590000Y-84209420D01*
X146610000Y-84490580D02*
X146610000Y-84209420D01*
%TO.C,R17*%
X125172500Y-88862742D02*
X125172500Y-89337258D01*
X126217500Y-88862742D02*
X126217500Y-89337258D01*
%TO.C,R5*%
X141237258Y-70277500D02*
X140762742Y-70277500D01*
X141237258Y-71322500D02*
X140762742Y-71322500D01*
%TO.C,R14*%
X151077500Y-71962742D02*
X151077500Y-72437258D01*
X152122500Y-71962742D02*
X152122500Y-72437258D01*
%TO.C,L2*%
X141538748Y-82090000D02*
X142061252Y-82090000D01*
X141538748Y-84310000D02*
X142061252Y-84310000D01*
%TO.C,C24*%
X143090000Y-75459420D02*
X143090000Y-75740580D01*
X144110000Y-75459420D02*
X144110000Y-75740580D01*
%TO.C,C1*%
X149045000Y-96115000D02*
X152895000Y-96115000D01*
X149045000Y-105770563D02*
X149045000Y-96115000D01*
X150109437Y-106835000D02*
X149045000Y-105770563D01*
X150109437Y-106835000D02*
X152895000Y-106835000D01*
X151020000Y-107700000D02*
X152270000Y-107700000D01*
X151645000Y-108325000D02*
X151645000Y-107075000D01*
X158700563Y-106835000D02*
X155915000Y-106835000D01*
X158700563Y-106835000D02*
X159765000Y-105770563D01*
X159765000Y-96115000D02*
X155915000Y-96115000D01*
X159765000Y-105770563D02*
X159765000Y-96115000D01*
%TO.C,RN1*%
X143480000Y-78600000D02*
X143480000Y-79400000D01*
X146920000Y-78600000D02*
X146920000Y-79400000D01*
%TO.C,C22*%
X151090000Y-69159420D02*
X151090000Y-69440580D01*
X152110000Y-69159420D02*
X152110000Y-69440580D01*
%TO.C,C2*%
X149240580Y-87290000D02*
X148959420Y-87290000D01*
X149240580Y-88310000D02*
X148959420Y-88310000D01*
%TO.C,D5*%
X146550000Y-73710000D02*
X146550000Y-71050000D01*
X146550000Y-73710000D02*
X148250000Y-73710000D01*
X148250000Y-73710000D02*
X148250000Y-71050000D01*
%TO.C,D6*%
X151500000Y-80035000D02*
X153785000Y-80035000D01*
X153785000Y-78565000D02*
X151500000Y-78565000D01*
X153785000Y-80035000D02*
X153785000Y-78565000D01*
%TO.C,R21*%
X121577500Y-88862742D02*
X121577500Y-89337258D01*
X122622500Y-88862742D02*
X122622500Y-89337258D01*
%TO.C,R12*%
X137277500Y-87037258D02*
X137277500Y-86562742D01*
X138322500Y-87037258D02*
X138322500Y-86562742D01*
%TO.C,C11*%
X138490000Y-83540580D02*
X138490000Y-83259420D01*
X139510000Y-83540580D02*
X139510000Y-83259420D01*
%TO.C,R22*%
X152477500Y-72437258D02*
X152477500Y-71962742D01*
X153522500Y-72437258D02*
X153522500Y-71962742D01*
%TO.C,Q3*%
X137420000Y-108135000D02*
X137420000Y-102015000D01*
X142790000Y-108135000D02*
X142790000Y-102455000D01*
X142525270Y-101943378D02*
X142855270Y-101703378D01*
X142855270Y-102183378D01*
X142525270Y-101943378D01*
G36*
X142855270Y-102183378D02*
G01*
X142525270Y-101943378D01*
X142855270Y-101703378D01*
X142855270Y-102183378D01*
G37*
%TO.C,D1*%
X153810000Y-86950000D02*
X151150000Y-86950000D01*
X153810000Y-88650000D02*
X151150000Y-88650000D01*
X153810000Y-88650000D02*
X153810000Y-86950000D01*
%TO.C,Q6*%
X131720000Y-100935000D02*
X131720000Y-94815000D01*
X137090000Y-100935000D02*
X137090000Y-95255000D01*
X136825270Y-94743378D02*
X137155270Y-94503378D01*
X137155270Y-94983378D01*
X136825270Y-94743378D01*
G36*
X137155270Y-94983378D02*
G01*
X136825270Y-94743378D01*
X137155270Y-94503378D01*
X137155270Y-94983378D01*
G37*
%TO.C,C9*%
X134959420Y-60790000D02*
X135240580Y-60790000D01*
X134959420Y-61810000D02*
X135240580Y-61810000D01*
%TO.C,C8*%
X122985000Y-72140580D02*
X122985000Y-71859420D01*
X124005000Y-72140580D02*
X124005000Y-71859420D01*
%TO.C,C28*%
X126259420Y-85715000D02*
X126540580Y-85715000D01*
X126259420Y-86735000D02*
X126540580Y-86735000D01*
%TO.C,Q5*%
X131720000Y-108135000D02*
X131720000Y-102015000D01*
X137090000Y-108135000D02*
X137090000Y-102455000D01*
X136825270Y-101943378D02*
X137155270Y-101703378D01*
X137155270Y-102183378D01*
X136825270Y-101943378D01*
G36*
X137155270Y-102183378D02*
G01*
X136825270Y-101943378D01*
X137155270Y-101703378D01*
X137155270Y-102183378D01*
G37*
%TO.C,Y1*%
X133390000Y-66360000D02*
X136810000Y-66360000D01*
X136810000Y-66360000D02*
X136810000Y-62240000D01*
%TO.C,C4*%
X149240580Y-85590000D02*
X148959420Y-85590000D01*
X149240580Y-86610000D02*
X148959420Y-86610000D01*
%TO.C,C6*%
X144090000Y-87309420D02*
X144090000Y-87590580D01*
X145110000Y-87309420D02*
X145110000Y-87590580D01*
%TO.C,R3*%
X152282500Y-66452258D02*
X152282500Y-65977742D01*
X153327500Y-66452258D02*
X153327500Y-65977742D01*
%TO.C,R19*%
X123372500Y-88862742D02*
X123372500Y-89337258D01*
X124417500Y-88862742D02*
X124417500Y-89337258D01*
%TO.C,RN2*%
X147180000Y-78600000D02*
X147180000Y-79400000D01*
X150620000Y-78600000D02*
X150620000Y-79400000D01*
%TO.C,C20*%
X128390000Y-68159420D02*
X128390000Y-68440580D01*
X129410000Y-68159420D02*
X129410000Y-68440580D01*
%TO.C,R20*%
X127572500Y-88862742D02*
X127572500Y-89337258D01*
X128617500Y-88862742D02*
X128617500Y-89337258D01*
%TO.C,R16*%
X131172500Y-88862742D02*
X131172500Y-89337258D01*
X132217500Y-88862742D02*
X132217500Y-89337258D01*
%TO.C,D4*%
X150190000Y-75025000D02*
X150190000Y-76725000D01*
X150190000Y-75025000D02*
X152850000Y-75025000D01*
X150190000Y-76725000D02*
X152850000Y-76725000D01*
%TO.C,D8*%
X151500000Y-83035000D02*
X153785000Y-83035000D01*
X153785000Y-81565000D02*
X151500000Y-81565000D01*
X153785000Y-83035000D02*
X153785000Y-81565000D01*
%TO.C,C26*%
X132259420Y-85715000D02*
X132540580Y-85715000D01*
X132259420Y-86735000D02*
X132540580Y-86735000D01*
%TO.C,C10*%
X124485000Y-72140580D02*
X124485000Y-71859420D01*
X125505000Y-72140580D02*
X125505000Y-71859420D01*
%TO.C,J1*%
X156620000Y-78100000D02*
X156620000Y-93580000D01*
X156620000Y-78100000D02*
X159380000Y-78100000D01*
X156620000Y-93580000D02*
X159380000Y-93580000D01*
X159380000Y-78100000D02*
X159380000Y-93580000D01*
%TO.C,D7*%
X151500000Y-81535000D02*
X153785000Y-81535000D01*
X153785000Y-80065000D02*
X151500000Y-80065000D01*
X153785000Y-81535000D02*
X153785000Y-80065000D01*
%TO.C,C18*%
X129890000Y-68440580D02*
X129890000Y-68159420D01*
X130910000Y-68440580D02*
X130910000Y-68159420D01*
%TO.C,J2*%
X141830000Y-63800000D02*
X141830000Y-65500000D01*
X151170000Y-63800000D02*
X151170000Y-65500000D01*
%TO.C,C16*%
X138685000Y-74959420D02*
X138685000Y-75240580D01*
X139705000Y-74959420D02*
X139705000Y-75240580D01*
%TO.C,C7*%
X135240580Y-66690000D02*
X134959420Y-66690000D01*
X135240580Y-67710000D02*
X134959420Y-67710000D01*
%TO.C,C27*%
X129259420Y-85715000D02*
X129540580Y-85715000D01*
X129259420Y-86735000D02*
X129540580Y-86735000D01*
%TO.C,C13*%
X144090000Y-84490580D02*
X144090000Y-84209420D01*
X145110000Y-84490580D02*
X145110000Y-84209420D01*
%TO.C,D9*%
X141265000Y-77615000D02*
X141265000Y-79900000D01*
X142735000Y-77615000D02*
X141265000Y-77615000D01*
X142735000Y-79900000D02*
X142735000Y-77615000D01*
%TO.C,L1*%
X125985000Y-72162779D02*
X125985000Y-71837221D01*
X127005000Y-72162779D02*
X127005000Y-71837221D01*
%TO.C,C25*%
X127935580Y-78690000D02*
X127654420Y-78690000D01*
X127935580Y-79710000D02*
X127654420Y-79710000D01*
%TO.C,J3*%
X154080000Y-77380000D02*
X154080000Y-67000000D01*
X159380000Y-67000000D02*
X154080000Y-67000000D01*
X159400000Y-77380000D02*
X154080000Y-77380000D01*
X159400000Y-77380000D02*
X159400000Y-67000000D01*
%TD*%
M02*
