%TF.GenerationSoftware,KiCad,Pcbnew,10.0.5*%
%TF.CreationDate,2026-09-04T22:35:11+02:00*%
%TF.ProjectId,FlexDrive,466c6578-4472-4697-9665-2e6b69636164,rev?*%
%TF.SameCoordinates,Original*%
%TF.FileFunction,Soldermask,Top*%
%TF.FilePolarity,Negative*%
%FSLAX46Y46*%
G04 Gerber Fmt 4.6, Leading zero omitted, Abs format (unit mm)*
G04 Created by KiCad (PCBNEW 10.0.5) date 2026-09-04 22:35:11*
%MOMM*%
%LPD*%
G01*
G04 APERTURE LIST*
G04 Aperture macros list*
%AMRoundRect*
0 Rectangle with rounded corners*
0 $1 Rounding radius*
0 $2 $3 $4 $5 $6 $7 $8 $9 X,Y pos of 4 corners*
0 Add a 4 corners polygon primitive as box body*
4,1,4,$2,$3,$4,$5,$6,$7,$8,$9,$2,$3,0*
0 Add four circle primitives for the rounded corners*
1,1,$1+$1,$2,$3*
1,1,$1+$1,$4,$5*
1,1,$1+$1,$6,$7*
1,1,$1+$1,$8,$9*
0 Add four rect primitives between the rounded corners*
20,1,$1+$1,$2,$3,$4,$5,0*
20,1,$1+$1,$4,$5,$6,$7,0*
20,1,$1+$1,$6,$7,$8,$9,0*
20,1,$1+$1,$8,$9,$2,$3,0*%
%AMFreePoly0*
4,1,17,2.675000,1.605000,1.875000,1.605000,1.875000,0.935000,2.675000,0.935000,2.675000,0.335000,1.875000,0.335000,1.875000,-0.335000,2.675000,-0.335000,2.675000,-0.935000,1.875000,-0.935000,1.875000,-1.605000,2.675000,-1.605000,2.675000,-2.205000,-1.875000,-2.205000,-1.875000,2.205000,2.675000,2.205000,2.675000,1.605000,2.675000,1.605000,$1*%
G04 Aperture macros list end*
%ADD10RoundRect,0.200000X0.200000X0.275000X-0.200000X0.275000X-0.200000X-0.275000X0.200000X-0.275000X0*%
%ADD11RoundRect,0.225000X0.250000X-0.225000X0.250000X0.225000X-0.250000X0.225000X-0.250000X-0.225000X0*%
%ADD12RoundRect,0.200000X0.275000X-0.200000X0.275000X0.200000X-0.275000X0.200000X-0.275000X-0.200000X0*%
%ADD13RoundRect,0.200000X-0.275000X0.200000X-0.275000X-0.200000X0.275000X-0.200000X0.275000X0.200000X0*%
%ADD14RoundRect,0.225000X0.225000X0.250000X-0.225000X0.250000X-0.225000X-0.250000X0.225000X-0.250000X0*%
%ADD15RoundRect,0.250000X1.000000X-1.950000X1.000000X1.950000X-1.000000X1.950000X-1.000000X-1.950000X0*%
%ADD16RoundRect,0.112500X0.187500X0.112500X-0.187500X0.112500X-0.187500X-0.112500X0.187500X-0.112500X0*%
%ADD17FreePoly0,270.000000*%
%ADD18RoundRect,0.125000X-0.125000X0.300000X-0.125000X-0.300000X0.125000X-0.300000X0.125000X0.300000X0*%
%ADD19RoundRect,0.150000X-0.512500X-0.150000X0.512500X-0.150000X0.512500X0.150000X-0.512500X0.150000X0*%
%ADD20RoundRect,0.062500X-0.337500X-0.062500X0.337500X-0.062500X0.337500X0.062500X-0.337500X0.062500X0*%
%ADD21RoundRect,0.062500X-0.062500X-0.337500X0.062500X-0.337500X0.062500X0.337500X-0.062500X0.337500X0*%
%ADD22R,3.700000X3.700000*%
%ADD23RoundRect,0.225000X-0.250000X0.225000X-0.250000X-0.225000X0.250000X-0.225000X0.250000X0.225000X0*%
%ADD24RoundRect,0.150000X0.512500X0.150000X-0.512500X0.150000X-0.512500X-0.150000X0.512500X-0.150000X0*%
%ADD25O,0.250000X0.600000*%
%ADD26O,0.600000X0.250000*%
%ADD27R,2.450000X2.450000*%
%ADD28C,3.200000*%
%ADD29R,0.900000X0.400000*%
%ADD30RoundRect,0.250000X-0.375000X-0.850000X0.375000X-0.850000X0.375000X0.850000X-0.375000X0.850000X0*%
%ADD31R,0.400000X0.900000*%
%ADD32RoundRect,0.112500X0.112500X-0.187500X0.112500X0.187500X-0.112500X0.187500X-0.112500X-0.187500X0*%
%ADD33RoundRect,0.218750X0.218750X0.256250X-0.218750X0.256250X-0.218750X-0.256250X0.218750X-0.256250X0*%
%ADD34RoundRect,0.225000X-0.225000X-0.250000X0.225000X-0.250000X0.225000X0.250000X-0.225000X0.250000X0*%
%ADD35RoundRect,0.250000X0.350000X-0.450000X0.350000X0.450000X-0.350000X0.450000X-0.350000X-0.450000X0*%
%ADD36RoundRect,0.112500X-0.187500X-0.112500X0.187500X-0.112500X0.187500X0.112500X-0.187500X0.112500X0*%
%ADD37R,1.700000X1.700000*%
%ADD38C,1.700000*%
%ADD39C,0.650000*%
%ADD40RoundRect,0.150000X0.150000X0.425000X-0.150000X0.425000X-0.150000X-0.425000X0.150000X-0.425000X0*%
%ADD41RoundRect,0.075000X0.075000X0.500000X-0.075000X0.500000X-0.075000X-0.500000X0.075000X-0.500000X0*%
%ADD42O,1.000000X2.100000*%
%ADD43O,1.000000X1.800000*%
%ADD44RoundRect,0.218750X-0.256250X0.218750X-0.256250X-0.218750X0.256250X-0.218750X0.256250X0.218750X0*%
%ADD45RoundRect,0.218750X0.256250X-0.218750X0.256250X0.218750X-0.256250X0.218750X-0.256250X-0.218750X0*%
%ADD46RoundRect,0.250000X1.000000X1.000000X-1.000000X1.000000X-1.000000X-1.000000X1.000000X-1.000000X0*%
%ADD47C,2.500000*%
G04 APERTURE END LIST*
D10*
%TO.C,R6*%
X141825000Y-69300000D03*
X140175000Y-69300000D03*
%TD*%
D11*
%TO.C,C19*%
X131900000Y-69075000D03*
X131900000Y-67525000D03*
%TD*%
D12*
%TO.C,R4*%
X140205000Y-67040000D03*
X140205000Y-65390000D03*
%TD*%
D13*
%TO.C,R11*%
X136300000Y-85975000D03*
X136300000Y-87625000D03*
%TD*%
D14*
%TO.C,C5*%
X149875000Y-84400000D03*
X148325000Y-84400000D03*
%TD*%
D13*
%TO.C,R15*%
X134095000Y-83175000D03*
X134095000Y-84825000D03*
%TD*%
D15*
%TO.C,C3*%
X125805000Y-105675000D03*
X125805000Y-97275000D03*
%TD*%
D16*
%TO.C,D3*%
X153250000Y-84400000D03*
X151150000Y-84400000D03*
%TD*%
D17*
%TO.C,Q4*%
X140105000Y-98525000D03*
D18*
X142010000Y-94975000D03*
X140740000Y-94975000D03*
X139470000Y-94975000D03*
X138200000Y-94975000D03*
%TD*%
D19*
%TO.C,U1*%
X139562500Y-85850000D03*
X139562500Y-86800000D03*
X139562500Y-87750000D03*
X141837500Y-87750000D03*
X141837500Y-86800000D03*
X141837500Y-85850000D03*
%TD*%
D11*
%TO.C,C21*%
X126495000Y-75675000D03*
X126495000Y-74125000D03*
%TD*%
D20*
%TO.C,U2*%
X131325000Y-71650000D03*
X131325000Y-72150000D03*
X131325000Y-72650000D03*
X131325000Y-73150000D03*
X131325000Y-73650000D03*
X131325000Y-74150000D03*
X131325000Y-74650000D03*
X131325000Y-75150000D03*
D21*
X132025000Y-75850000D03*
X132525000Y-75850000D03*
X133025000Y-75850000D03*
X133525000Y-75850000D03*
X134025000Y-75850000D03*
X134525000Y-75850000D03*
X135025000Y-75850000D03*
X135525000Y-75850000D03*
D20*
X136225000Y-75150000D03*
X136225000Y-74650000D03*
X136225000Y-74150000D03*
X136225000Y-73650000D03*
X136225000Y-73150000D03*
X136225000Y-72650000D03*
X136225000Y-72150000D03*
X136225000Y-71650000D03*
D21*
X135525000Y-70950000D03*
X135025000Y-70950000D03*
X134525000Y-70950000D03*
X134025000Y-70950000D03*
X133525000Y-70950000D03*
X133025000Y-70950000D03*
X132525000Y-70950000D03*
X132025000Y-70950000D03*
D22*
X133775000Y-73400000D03*
%TD*%
D23*
%TO.C,C17*%
X137695000Y-72325000D03*
X137695000Y-73875000D03*
%TD*%
D24*
%TO.C,U3*%
X147442500Y-76550000D03*
X147442500Y-75600000D03*
X147442500Y-74650000D03*
X145167500Y-74650000D03*
X145167500Y-76550000D03*
%TD*%
D23*
%TO.C,C12*%
X127995000Y-71225000D03*
X127995000Y-72775000D03*
%TD*%
D25*
%TO.C,U4*%
X130350000Y-80525000D03*
X129850000Y-80525000D03*
X129350000Y-80525000D03*
X128850000Y-80525000D03*
X128350000Y-80525000D03*
X127850000Y-80525000D03*
D26*
X127100000Y-81275000D03*
X127100000Y-81775000D03*
X127100000Y-82275000D03*
X127100000Y-82775000D03*
X127100000Y-83275000D03*
X127100000Y-83775000D03*
D25*
X127850000Y-84525000D03*
X128350000Y-84525000D03*
X128850000Y-84525000D03*
X129350000Y-84525000D03*
X129850000Y-84525000D03*
X130350000Y-84525000D03*
D26*
X131100000Y-83775000D03*
X131100000Y-83275000D03*
X131100000Y-82775000D03*
X131100000Y-82275000D03*
X131100000Y-81775000D03*
X131100000Y-81275000D03*
D27*
X129100000Y-82525000D03*
%TD*%
D28*
%TO.C,H2*%
X123000000Y-113000000D03*
%TD*%
D17*
%TO.C,Q2*%
X145805000Y-98525000D03*
D18*
X147710000Y-94975000D03*
X146440000Y-94975000D03*
X145170000Y-94975000D03*
X143900000Y-94975000D03*
%TD*%
D13*
%TO.C,R18*%
X129895000Y-88275000D03*
X129895000Y-89925000D03*
%TD*%
D23*
%TO.C,C23*%
X149205000Y-74825000D03*
X149205000Y-76375000D03*
%TD*%
D29*
%TO.C,RN3*%
X132950000Y-79300000D03*
X132950000Y-80100000D03*
X132950000Y-80900000D03*
X132950000Y-81700000D03*
X134650000Y-81700000D03*
X134650000Y-80900000D03*
X134650000Y-80100000D03*
X134650000Y-79300000D03*
%TD*%
D16*
%TO.C,D2*%
X153250000Y-86100000D03*
X151150000Y-86100000D03*
%TD*%
D17*
%TO.C,Q1*%
X145805000Y-105725000D03*
D18*
X147710000Y-102175000D03*
X146440000Y-102175000D03*
X145170000Y-102175000D03*
X143900000Y-102175000D03*
%TD*%
D11*
%TO.C,C14*%
X146100000Y-85125000D03*
X146100000Y-83575000D03*
%TD*%
D13*
%TO.C,R17*%
X125695000Y-88275000D03*
X125695000Y-89925000D03*
%TD*%
D10*
%TO.C,R5*%
X141825000Y-70800000D03*
X140175000Y-70800000D03*
%TD*%
D13*
%TO.C,R14*%
X151600000Y-71375000D03*
X151600000Y-73025000D03*
%TD*%
D30*
%TO.C,L2*%
X140725000Y-83200000D03*
X142875000Y-83200000D03*
%TD*%
D23*
%TO.C,C24*%
X143600000Y-74825000D03*
X143600000Y-76375000D03*
%TD*%
D15*
%TO.C,C1*%
X154405000Y-105675000D03*
X154405000Y-97275000D03*
%TD*%
D31*
%TO.C,RN1*%
X144000000Y-79850000D03*
X144800000Y-79850000D03*
X145600000Y-79850000D03*
X146400000Y-79850000D03*
X146400000Y-78150000D03*
X145600000Y-78150000D03*
X144800000Y-78150000D03*
X144000000Y-78150000D03*
%TD*%
D23*
%TO.C,C22*%
X151600000Y-68525000D03*
X151600000Y-70075000D03*
%TD*%
D14*
%TO.C,C2*%
X149875000Y-87800000D03*
X148325000Y-87800000D03*
%TD*%
D32*
%TO.C,D5*%
X147400000Y-73150000D03*
X147400000Y-71050000D03*
%TD*%
D33*
%TO.C,D6*%
X153087500Y-79300000D03*
X151512500Y-79300000D03*
%TD*%
D13*
%TO.C,R21*%
X122100000Y-88275000D03*
X122100000Y-89925000D03*
%TD*%
D12*
%TO.C,R12*%
X137800000Y-87625000D03*
X137800000Y-85975000D03*
%TD*%
D11*
%TO.C,C11*%
X139000000Y-84175000D03*
X139000000Y-82625000D03*
%TD*%
D12*
%TO.C,R22*%
X153000000Y-73025000D03*
X153000000Y-71375000D03*
%TD*%
D17*
%TO.C,Q3*%
X140105000Y-105725000D03*
D18*
X142010000Y-102175000D03*
X140740000Y-102175000D03*
X139470000Y-102175000D03*
X138200000Y-102175000D03*
%TD*%
D16*
%TO.C,D1*%
X153250000Y-87800000D03*
X151150000Y-87800000D03*
%TD*%
D17*
%TO.C,Q6*%
X134405000Y-98525000D03*
D18*
X136310000Y-94975000D03*
X135040000Y-94975000D03*
X133770000Y-94975000D03*
X132500000Y-94975000D03*
%TD*%
D34*
%TO.C,C9*%
X134325000Y-61300000D03*
X135875000Y-61300000D03*
%TD*%
D11*
%TO.C,C8*%
X123495000Y-72775000D03*
X123495000Y-71225000D03*
%TD*%
D34*
%TO.C,C28*%
X125625000Y-86225000D03*
X127175000Y-86225000D03*
%TD*%
D28*
%TO.C,H1*%
X157000000Y-63000000D03*
%TD*%
D17*
%TO.C,Q5*%
X134405000Y-105725000D03*
D18*
X136310000Y-102175000D03*
X135040000Y-102175000D03*
X133770000Y-102175000D03*
X132500000Y-102175000D03*
%TD*%
D35*
%TO.C,Y1*%
X135950000Y-65400000D03*
X135950000Y-63200000D03*
X134250000Y-63200000D03*
X134250000Y-65400000D03*
%TD*%
D14*
%TO.C,C4*%
X149875000Y-86100000D03*
X148325000Y-86100000D03*
%TD*%
D23*
%TO.C,C6*%
X144600000Y-86675000D03*
X144600000Y-88225000D03*
%TD*%
D12*
%TO.C,R3*%
X152805000Y-67040000D03*
X152805000Y-65390000D03*
%TD*%
D13*
%TO.C,R19*%
X123895000Y-88275000D03*
X123895000Y-89925000D03*
%TD*%
D31*
%TO.C,RN2*%
X147700000Y-79850000D03*
X148500000Y-79850000D03*
X149300000Y-79850000D03*
X150100000Y-79850000D03*
X150100000Y-78150000D03*
X149300000Y-78150000D03*
X148500000Y-78150000D03*
X147700000Y-78150000D03*
%TD*%
D23*
%TO.C,C20*%
X128900000Y-67525000D03*
X128900000Y-69075000D03*
%TD*%
D13*
%TO.C,R20*%
X128095000Y-88275000D03*
X128095000Y-89925000D03*
%TD*%
%TO.C,R16*%
X131695000Y-88275000D03*
X131695000Y-89925000D03*
%TD*%
D36*
%TO.C,D4*%
X150750000Y-75875000D03*
X152850000Y-75875000D03*
%TD*%
D33*
%TO.C,D8*%
X153087500Y-82300000D03*
X151512500Y-82300000D03*
%TD*%
D34*
%TO.C,C26*%
X131625000Y-86225000D03*
X133175000Y-86225000D03*
%TD*%
D11*
%TO.C,C10*%
X124995000Y-72775000D03*
X124995000Y-71225000D03*
%TD*%
D37*
%TO.C,J1*%
X158000000Y-79500000D03*
D38*
X158000000Y-82040000D03*
X158000000Y-84580000D03*
X158000000Y-87120000D03*
X158000000Y-89660000D03*
X158000000Y-92200000D03*
%TD*%
D33*
%TO.C,D7*%
X153087500Y-80800000D03*
X151512500Y-80800000D03*
%TD*%
D11*
%TO.C,C18*%
X130400000Y-69075000D03*
X130400000Y-67525000D03*
%TD*%
D39*
%TO.C,J2*%
X149390000Y-66305000D03*
X143610000Y-66305000D03*
D40*
X149700000Y-67380000D03*
X148900000Y-67380000D03*
D41*
X147750000Y-67380000D03*
X146750000Y-67380000D03*
X146250000Y-67380000D03*
X145250000Y-67380000D03*
D40*
X144100000Y-67380000D03*
X143300000Y-67380000D03*
X143300000Y-67380000D03*
X144100000Y-67380000D03*
D41*
X144750000Y-67380000D03*
X145750000Y-67380000D03*
X147250000Y-67380000D03*
X148250000Y-67380000D03*
D40*
X148900000Y-67380000D03*
X149700000Y-67380000D03*
D42*
X150820000Y-66805000D03*
D43*
X150820000Y-62625000D03*
D42*
X142180000Y-66805000D03*
D43*
X142180000Y-62625000D03*
%TD*%
D23*
%TO.C,C16*%
X139195000Y-74325000D03*
X139195000Y-75875000D03*
%TD*%
D14*
%TO.C,C7*%
X135875000Y-67200000D03*
X134325000Y-67200000D03*
%TD*%
D34*
%TO.C,C27*%
X128625000Y-86225000D03*
X130175000Y-86225000D03*
%TD*%
D11*
%TO.C,C13*%
X144600000Y-85125000D03*
X144600000Y-83575000D03*
%TD*%
D44*
%TO.C,D9*%
X142000000Y-78312500D03*
X142000000Y-79887500D03*
%TD*%
D45*
%TO.C,L1*%
X126495000Y-72787500D03*
X126495000Y-71212500D03*
%TD*%
D14*
%TO.C,C25*%
X128570000Y-79200000D03*
X127020000Y-79200000D03*
%TD*%
D46*
%TO.C,J4*%
X155240000Y-113300000D03*
D47*
X150160000Y-113300000D03*
X145080000Y-113300000D03*
X140000000Y-113300000D03*
X134920000Y-113300000D03*
%TD*%
D37*
%TO.C,J3*%
X158000000Y-76000000D03*
D38*
X155460000Y-76000000D03*
X158000000Y-73460000D03*
X155460000Y-73460000D03*
X158000000Y-70920000D03*
X155460000Y-70920000D03*
X158000000Y-68380000D03*
X155460000Y-68380000D03*
%TD*%
G36*
X125343039Y-60019685D02*
G01*
X125388794Y-60072489D01*
X125400000Y-60124000D01*
X125400000Y-61076000D01*
X125380315Y-61143039D01*
X125327511Y-61188794D01*
X125276000Y-61200000D01*
X122700000Y-61200000D01*
X122700000Y-69176000D01*
X122680315Y-69243039D01*
X122627511Y-69288794D01*
X122576000Y-69300000D01*
X120124000Y-69300000D01*
X120056961Y-69280315D01*
X120011206Y-69227511D01*
X120000000Y-69176000D01*
X120000000Y-60124000D01*
X120019685Y-60056961D01*
X120072489Y-60011206D01*
X120124000Y-60000000D01*
X125276000Y-60000000D01*
X125343039Y-60019685D01*
G37*
M02*
